<svg version="1" xmlns="http://www.w3.org/2000/svg" width="4000" height="4000" viewBox="0 0 3000 3000"><path d="M1017.7 204.7c-1.3 1.2-.8 7.5.5 6.7.7-.4.8-.3.4.4-1.8 3 4.3 9.2 9.6 9.7 3.8.4 3.9.5 3.3 1.5-.3.5 0 .7.7.5.8-.3 2.9 1.2 4.8 3.2l3.5 3.8-3.5-3-3.5-3 2.9 3.2c1.6 1.8 3.2 3 3.6 2.8 1.1-.7 6 3.4 6 5 0 .8.5 1.7 1.2 2.1.7.5.8.3.3-.5-.4-.7.4-.5 1.9.4 2.6 1.7 3.7 3.3 1.4 1.9-.8-.4-.9-.3-.5.2.5.5 1.6.9 2.5.9.9 0 1.7.7 1.7 1.5.1.8.7 1.4 1.5 1.2 1.6-.4 10.1 7.8 9.4 9-.3.5 2.6 4.2 6.5 8.3 3.9 4.1 7.1 8 7.1 8.6 0 .5.4.7 1 .4.5-.3.7 0 .4.9-.3.9.3 1.9 1.6 2.6 1.1.6 1.7 1.6 1.4 2.2-.4.6.6 2.2 2.2 3.6 1.6 1.3 2.3 2.1 1.7 1.8-.9-.5-1.1-.2-.7.8.3.9 1 1.4 1.4 1.1.9-.6 2.3 6.1 1.6 7.4-.7 1-6.4 2.4-8.8 2.2-1-.1-1.8.2-1.8.7 0 .5-3.9 1-8.7 1.1-4.8 0-9 .5-9.3 1-.3.5-1.2.9-2 .9-4.2-.3-8.1.3-7.6 1.1.7 1.1-2.2 2.3-3.6 1.4-.7-.3-.8-.1-.4.5.7 1.2-.8 1.6-5.1 1.2-1.3-.1-2.3.4-2.3 1s-.5.8-1.1.5c-1.1-.8-11.9 4.4-11.9 5.6 0 .5-1 1.3-2.1 2-1.5.7-1.9.8-1.5 0 .5-.7.1-.9-.8-.5-.9.3-1.3 1.1-.9 1.7.4.6.1.7-.6.2-.8-.4-2.4.1-4 1.2-1.4 1.1-3.7 2.3-4.9 2.7-2.5.8-5.4 4.7-5 6.7.2.7-.3 1.3-1 1.4-1.4 0-3.3 2.5-2.7 3.5.2.4-2.2 3.1-5.3 6.1l-5.7 5.4 5.5-6 5.5-6-6.2 6c-3.5 3.2-6.2 6.6-6 7.5.1.8-.4 1.4-1.1 1.2-1.5-.3-4.6 6.4-3.6 8 .4.6-.1 1.7-1.1 2.5-1.1.7-1.5 1.3-.9 1.3.5 0 .5.3-.1.8-2.2 1.5-5.7 9.5-5.7 12.8 0 1.8-.3 3.2-.8 2.9-.4-.2-.7 1.4-.7 3.7 0 2.3-.5 4.4-1.2 4.6-1.5.5-1.6 26.2-.1 26.2.7 0 1 1.9.9 4.6-.2 2.5.1 4.9.7 5.2.5.4 1 1.5 1.2 2.5.4 2.5 6.3 11.7 7.5 11.7.6 0 .8.3.4.6-.8.9 1.3 6.4 2.6 6.4.6 0 3.6 2.2 6.6 4.8 6.4 5.6 11.9 9.4 10.7 7.4-.7-1.1-.4-1.2 1.3-.3 1.1.7 2.1 1.4 2.1 1.7 0 .3-.6.2-1.2-.2-.9-.5-.8-.2.1 1 .8.9 2 1.5 2.7 1.2.7-.3 1.6 0 2 .6.4.7.3.8-.4.4s-1.2-.5-1.2-.2c0 .2 1.4 1.1 3 2 1.7.8 2.7 1 2.4.4-.4-.6.2-.5 1.5.2 1.2.6 2.5 1.8 2.8 2.6.3.7.9 1.1 1.4.8.5-.3.9 0 .9.5 0 .7 2.7 1.1 7 1.1 3.9 0 7-.3 7-.8 0-.4 1.5-.8 3.3-.9 1.8-.1 3.9-1.1 4.9-2.3 1-1.3 2.2-1.8 3.4-1.3 1.3.5 1.5.3.9-.7-.5-.9-.4-1.1.4-.6 1.5 1 4.3-1.3 3.4-2.7-.3-.5-.2-.7.4-.4 1.2.8 6-2.4 8-5.3 1.3-1.8 1.3-2.1.2-1.5-.8.5-.3-.4 1-1.8 1.3-1.5 2.8-2.4 3.4-2 .6.3.7.1.4-.4-.8-1.2 2-3.9 3-3 .3.4 1.2-.1 2-1.1.9-1 1.2-1.1.7-.2-.5 1 0 .9 1.4-.4 2.4-2.1 2.9-3.2 1-2-.7.5-.8.3-.4-.5.5-.7 1.1-1 1.4-.7.3.4 1.5-.3 2.7-1.4 1.9-1.7 2.2-2.9 1.7-6.6-.2-2.4 0-4.4.5-4.4s.9-1.6 1-3.6c.1-2 .6-4.1 1.2-4.7.7-.7 1.1-7.2 1.1-18.4 0-15.9-.2-17.5-2-19.3-1.1-1.1-1.7-2.5-1.5-3.3.3-.7-.4-2.3-1.5-3.5-1.8-1.9-4.3-2.6-8.7-2.5-.7.1-1-.3-.7-.8.3-.5-2-.9-5-.9-3.6 0-5.6.4-5.6 1.2 0 .6-.3.8-.7.5-.3-.4-1.2.1-2 1.1-.9 1.1-1.2 1.2-.8.2.4-.8-.3-.4-1.6 1s-1.9 1.9-1.4 1.1c.9-1.2.7-1.2-1.2-.1-1.2.8-2 1.7-1.7 2.1.2.4-.3 1-1.2 1.3-.8.3-1.2.2-.9-.4.3-.6-.1-.7-.9-.4-.9.3-1.3 1-1 1.5.6 1.1-.1 1.2-10 1-8.4-.1-9.3-.4-9.6-3.6-.4-3.9 0-5.6 1.2-4.9.7.4.8.3.4-.5-.9-1.4 1.2-4.3 2.5-3.5.5.3.9.1.9-.4s4.5-5.3 10-10.7c5.5-5.4 9.7-10.1 9.5-10.4-.9-.9 1.7-3 3.1-2.4.8.3 1.4 0 1.4-.6s.6-.8 1.4-.5c.8.3 1.7 0 2.2-.7.4-.8.3-1-.4-.5-.7.4-1.2.5-1.2.2s1-1 2.1-1.7c1.5-.7 1.9-.8 1.5 0-.5.7-.1.9.8.5.9-.3 1.6-1 1.6-1.4 0-.4.9-1 2-1.3 1.1-.3 1.8-.2 1.6.2-.2.3 1.3.5 3.5.3 2.1-.2 3.6-.8 3.3-1.3-.3-.5 3.9-.9 9.6-.9 7.3 0 9.9.3 9.4 1.1s.1 1 1.8.6c3.9-1 6.9 1.7 6.1 5.5-.4 2.2-.3 2.9.5 2.4.9-.5 1.2 3.1 1.4 13.6 0 7.9.1 15.1 0 16-.1 1 .3 1.8.8 1.8.6 0 1 4.3 1 10.8 0 5.9.4 12.2.9 14 .6 1.8 1.1 5.9 1.3 9 .1 3.1.6 6 1 6.3.4.3.9 2.8 1 5.7.2 2.9.7 5.2 1.1 5.2.5 0 .6.9.2 1.9-.3 1.1 0 2.3.7 2.8 1.4.8 1.4 1 1.7 6.9 0 1.9.5 3.3 1 3 .5-.3 1.2.1 1.5 1 .3.8.2 1.2-.4.9-.6-.3-.7.1-.4.9.3.9.9 1.6 1.3 1.6s.7 1 .8 2.2c.1 1.1.7 2.4 1.3 2.8.6.4 1.3 2.2 1.4 4.1.2 1.9.8 4.4 1.4 5.6.7 1.2.9 2.9.6 3.7-.3.9-.1 1.6.5 1.6s.8.7.5 1.5c-.3.8.1 2.4 1 3.7.9 1.2 1.6 3.3 1.6 4.5 0 1.3.5 2.3 1.1 2.3.5 0 .8.4.5.9-.7 1.1.4 4.2 1.3 3.7.3-.2.7.7.7 2 .1 1.2 2.3 5.3 4.9 9 2.6 3.7 5.1 7.8 5.6 9.1.5 1.5 1.4 2.1 2.1 1.7.7-.4.8-.3.4.5-.4.7 2.5 4.5 7.4 9.6 7.9 8.3 8.1 8.5 7.8 13-.2 2.6-.9 4.7-1.7 5-.7.3-1.1 1.2-.8 1.9.3.8.1 1.6-.4 1.8-.5.2-1.1 2.2-1.2 4.5 0 2.3-.5 3.9-.9 3.7-.8-.5-1.2.9-.9 3.8.1 1-.2 1.8-.7 1.8-.6 0-1 2.1-.9 4.7 0 2.7-.5 4.9-1.1 5.1-1.5.5-1.7 20.9-.2 21.4.5.1 1 4.5 1.1 9.5.1 5.1.5 9.1.9 8.8.4-.2.8 2.3.9 5.6.1 3.9.7 6.7 1.7 7.6.8.9 1.3 2.1 1 2.9-.3.7 0 1.4.7 1.7.6.2 1 1.8.9 3.6-.1 1.8.2 3 .7 2.7.4-.3.9.5.9 1.9 0 1.3.7 3.1 1.6 4 1.8 1.8 2.1 3 .6 2-.6-.3-.7.1-.4.9.3.9 1 1.4 1.4 1.1.4-.3 1 .6 1.2 2 .3 1.3.2 2.2-.2 2-.4-.2-.5.7-.2 2 .2 1.4.9 2.2 1.5 1.8.6-.4.8 0 .4 1-.8 2.2.2 4.9 1.6 4 .6-.3.7-.1.3.5-.9 1.4 4.1 12.5 5.3 11.8.5-.3.9 0 .8.7-.1 4.1.4 6.7 1.3 6.2s1.2.1.9 2.1c0 .4.4 1 1.1 1.4 1 .6 1.7 2.4 1.9 5.3.1.5.5.5 1.1.2.6-.4.7.1.3 1.1-.4 1.2-.3 1.5.5 1 .8-.4 1-.2.6.7-.3.9 1.1 3.1 3.5 5.5 3.9 3.8 5.3 6.1 3 4.7-1.8-1.2 2.9 7.2 6.2 10.9 1.7 2 3.6 3.4 4.2 3.3.6-.1 1.2.5 1.3 1.3 0 .8.2 2.1.2 2.7.3 1.8 7.3 9.4 8.2 8.8.4-.2 1.5.4 2.5 1.5 1.8 2 1.8 2.2-1.1 6.3-1.7 2.3-3.6 4.2-4.4 4.2-.7 0-1.4.9-1.6 2-.2 1.1-1 2.5-1.8 3.1-.9.6-1.6 2.4-1.6 4s-1.6 5.5-3.6 8.6c-1.9 3.2-3.2 6.3-2.8 7 .4.6.3.8-.3.5-1.3-.8-2.6 2-1.6 3.5.3.7.1.8-.5.4-.7-.4-1.3-.2-1.3.3-.1.6-.2 1.5-.3 2 0 .5-.5 1.3-1 1.8-.6.5-.6.2-.1-.7.8-1.3.7-1.3-.9-.1-.9.8-1.5 2-1.2 2.7.3.7 0 1.6-.6 2-.7.5-.8.2-.4-.7.4-.8 0-.5-.8.6-.9 1.1-1.4 2.5-1.1 3.3.2.7 0 1-.5.7-.6-.3-1.1 0-1.1.7-.1.7-.3 2-.4 2.8 0 .8-.5 2.8-.9 4.5-2.2 8.8-3.1 11.5-3.8 11.5-.4 0-.8 3.8-.8 8.4 0 5.5-.5 9.4-1.5 11.2-.8 1.6-1.2 3.7-.9 4.8.3 1 .1 2.1-.4 2.5-.6.3-1.2 3.2-1.4 6.4-.1 3.1-.6 5.7-1 5.7-1.3 0-.9 48.8.3 49.2.6.2 1.2 1.5 1.2 3 .1 1.4.6 2.4 1 2.1.4-.3.7.6.6 1.9-.4 4.5.1 8.9 1 8.4 1.3-.8 2.1 1.8 1.4 4.5-.4 1.4-.2 2 .4 1.6.6-.4 1.1-.1 1 .6-.1 4.3.4 7.7 1.2 7.3 1.1-.7 2.3 2.2 1.4 3.6-.4.7-.1.8.7.3 1-.6 1.2-.3.7 1.4-.3 1.3.1 2.8 1.1 3.8 1 .9 1.6 1.8 1.5 2-.7.8-.2 4.4.5 3.9.5-.3.9.7.9 2.3 0 1.9 1.8 4.9 6.1 10.1 3.4 4 6.2 8.2 6.2 9.2 0 1.2.4 1.6 1.2 1.2.7-.4.8-.3.4.4-1.4 2.3 5.6 12.8 7.7 11.5.6-.3.7-.2.4.4-.8 1.3 4.1 8.5 5.3 7.8.6-.3.7.1.4 1-.5 1.1 1.7 3.9 7.2 9 4.3 4.1 7.9 8.1 8 8.9.4 3.1 7.8 10.5 10.9 11 .8.1 2.1.8 2.8 1.6.9 1.1.8 1.1-.8 0-1.9-1.4-1.9-1.4-.6.3 1.7 2.1 5.8 4.6 4.7 2.8-.5-.7-.1-.9.8-.5.9.3 1.3 1 1 1.5-.5.8 1 1.3 2.9 1 .5-.1.6.3.2.9-.3.5.5 1.4 2 2 2.7 1 4.6 4.5 3.7 6.9-.3.7 0 1.6.7 2 1.5 1 2.1 17.1.6 17.2-.5.1-1.9.2-3 .3-1.7.1-2 .8-2 5.1 0 3.6.4 4.9 1.3 4.7.8-.1 1.1.2.8.7-.6 1 2.1 4.2 5.8 7.1 1.4 1.1 1.7 1.1 1.2.2-.7-1.1-.4-1.1 1.3 0 1.1.7 2 1.7 1.8 2.3-.3 1.3 3.8 6.6 4.6 5.9.3-.3.4.3.3 1.3 0 .9.6 1.8 1.4 1.8.8 0 1.5.9 1.6 2 .1 1.7-.5 2-4 2-3.8 0-4.1.2-4.3 3-.2 1.7.5 3.9 1.5 5 2.2 2.7 11.8 9.2 10.7 7.4-.5-.8.1-.5 1.3.5 2.2 1.9 3.1 4.3 1.2 3.1-.6-.4-1 .8-1 2.7 0 2.7.9 4.3 4.5 7.8 2.5 2.4 4.5 5 4.5 5.7 0 .7.5 1.3 1.1 1.3.5 0 .7.5.4 1-.4.6-1 .8-1.5.5-.5-.3-1.9-.1-3 .5-2.5 1.3-2.7 6.7-.4 9.6.8 1 1.2 1.2.8.4-.4-.9-.3-1.2.2-.7s.9 1.6.9 2.5c0 .9.6 1.6 1.3 1.4 1.5-.3 1.6 1 0 2.6-1.5 1.5-3.2 1.6-2.3.2.3-.6-.3-1-1.4-1-3.8 0-5.1 1.1-5.1 4.5 0 2.7.9 4.1 4.6 7.4 2.6 2.2 5.1 3.8 5.5 3.5.5-.3.8 0 .7.8-.2.7.5 1.3 1.4 1.3.9 0 2 .4 2.5.9s.2.6-.6.1c-1-.6-1.2-.4-.7.4.5.7 1.4 1 2.2.7.8-.3 1.3 0 1.1.7-.1.7.6 1.2 1.5 1.2s2 .4 2.5.9.2.6-.7.2c-.8-.4-.6-.1.4.8 1 .8 2.2 1.3 2.6 1.1.4-.3 1.5.4 2.5 1.5 1.7 1.9 1.6 2-1 3.2-2.3 1-2.9 1-3.3 0-.4-1.2-6.8-1.7-9.6-.6-2.9 1.1-1.9 5.7 2.1 9.5 3.4 3.1 3.5 3.1 1.3.4l-2.5-3 2.8 2.5c4 3.4 5.3 6 3.6 7.1-.7.4-1.7.5-2.1.3-.4-.3-.8 2-.8 5 0 5.3.3 5.9 4.2 9.6 2.3 2.3 4.6 3.9 5.3 3.6.6-.2 2.2.5 3.6 1.5 1.3 1 3.3 1.9 4.4 1.9 1.1 0 2.7.5 3.5 1 1.3.9 1.3 1.1 0 2-.8.5-2.2.7-3 .4-3.1-1.3-6-1.6-6-.6 0 .6-.2 1.7-.6 2.5-.7 1.9 4.5 8 6.3 7.3.8-.3 1.2-.2.9.3-.3.5 1.4 1.5 3.9 2.3 2.4.8 4.2 1.1 3.8.6-.3-.6.4-.5 1.6.1 1.9 1.1 3.1 4.4 1.4 3.9-.5-.1-1.8.1-3 .6-1.7.5-2.3 1.5-2.3 3.5 0 3.2 2.3 5.7 4.1 4.5.7-.4.9-.3.5.4-.8 1.3 5.8 3.4 8.1 2.5 1.1-.4 1.4-.2.9.5-.6 1.1 2.7 1.7 8.1 1.5.7-.1 1 .3.7.8-.4.8 4.4 1.3 9.3 1.2.7-.1 1 .4.7.9-.3.5 0 .9.7.7 4.1-.5 5 .9 2.3 3.6-1.3 1.3-1.4 2.1-.6 4.1 1.1 2.2 2.7 2.8 7 2.7.6-.1 1.2.3 1.2.7 0 .5 4.8.9 10.6.8 5.8 0 10.7.2 11 .5.3.2-.7 1.8-2.1 3.5-1.4 1.6-2.5 4.2-2.5 5.7 0 1.4-.4 2.4-.9 2.1-.5-.3-1.2.1-1.5 1-.4 1-.2 1.3.7.9.6-.4.1.2-1.2 1.3-1.5 1.2-2.1 2.4-1.6 3.2.5.8.4 1.1-.2.7-1.4-.9-2.4 1.8-1.6 4 .4 1.1.3 1.4-.5.9-1.2-.7-1.7 1-1.3 4.8.1 1.1-.2 1.7-.5 1.3-1-.9-3.5 4.3-2.7 5.6.4.6.1.7-.7.2-1-.6-1.2-.3-.8 1.3.3 1.2.2 2.2-.2 2.4-.5.2-1 3.8-1.1 8-.2 4.2-.7 7.4-1.1 7.2-.4-.3-.8 3.6-.8 8.5 0 5.3.4 9.1 1 9.1.5 0 .9.8.8 1.7-.5 6.1.3 15.3 1.3 14.7.7-.4 1 .8.9 3.7-.3 6.4-.1 8.1.8 7.6.4-.3.8 1.8 1 4.6.2 2.9.8 5.4 1.3 5.8.6.3.9 1 .8 1.5-.4 2.2.2 4.5 1 4 .5-.3.8.2.7 1.2 0 .9.5 1.6 1.1 1.5.7-.2 1.2.5 1.1 1.5-.3 3.6.2 5.3 1.4 4.6.8-.5.9-.2.5.9-.3.9-.1 2.2.6 2.9.7.7 1.2 1.9 1.3 2.5.1.7.2 2.1.3 3.1 0 1 .8 2.7 1.7 3.8.8 1 1.2 1.2.8.4-.4-.9-.3-1.2.2-.7s1 1.3 1 1.8c.1.5.2 1.4.3 2 0 .5.6.7 1.3.3.7-.4.8-.3.4.5-.5.7.3 2.9 1.8 5.1 1.4 2.2 2.6 4.4 2.6 5 0 .5.4 1 1 1 .5 0 .7.6.4 1.3-.6 1.6 4.2 7.1 5.5 6.3 1.3-.8 5.3 4 5.5 6.6.2 2.7-1.2 5-2.6 4.2-1.1-.7-5.3 1.9-10 6.5-2.9 2.7-3.8 4.4-3.8 6.8 0 3.2.1 3.3 4.5 3.3 2.5 0 4.5-.5 4.5-1 0-.6 1.6-1 3.5-1 2.5 0 3.5.4 3.5 1.6 0 .8-.4 1.2-1 .9-.5-.3-.7 0-.5.7.7 1.8-10.4 12.7-13.5 13.3-3.6.7-9 6.4-9 9.6 0 1.5.7 2.9 1.6 3.3 2.6 1 7.6.7 6.9-.4-.4-.6.7-1 2.5-1 3.8 0 3.4 1-2.7 6.3-3.2 2.9-4.3 4.6-4.3 6.8 0 2.6.3 2.9 3.1 2.9 2.6 0 3.1.3 2.6 2-.3 1.3-.1 1.8.6 1.3.7-.4.5.4-.4 1.7-1 1.4-2.4 2.4-3.2 2.2-1.6-.3-5.1 4.4-4.3 5.7.3.5-.9 2.4-2.7 4.3-1.7 1.9-2.5 2.5-1.7 1.3.9-1.2.5-1.1-.9.5-1.3 1.4-5.2 6.5-8.7 11.5-5 7-6.4 9.8-6.4 12.6 0 3.9 1.8 6.3 4.1 5.4.8-.3 2.1-.1 2.9.5 1.3.8 1.2 1.1-.4 2.3-1.2.9-1.6 1.9-1.1 2.7.6.9.4 1.1-.5.5-1-.6-1.2-.4-.7.9.4 1 .3 1.5-.3 1.1-.6-.3-1.3.2-1.7 1.2-.4 1-1.8 3.3-3 5.2-1.3 1.9-2.1 4.1-1.9 4.8.3.7.1 1.3-.5 1.3s-1 1-.9 2.2c.4 4.2 0 5.9-1 5.3-.7-.5-1 1.9-.8 7.2l.3 7.8 3.4.3c1.8.2 3.9-.2 4.5-.9.8-.9.8-1-.3-.4-.9.5-1.2.4-.7-.3.4-.6 1.3-.9 2.1-.5.8.3 1.5 0 1.5-.6s.5-1.1 1-1.1c.6 0 .8 1.1.3 2.7-.4 1.6-.7 3.8-.6 5 0 1.3-.3 2.3-.8 2.3s-.9 2.2-.9 5c0 4.7.1 5 2.7 5 1.4 0 2.3-.3 2-.6-.6-.7 8.6-5.4 10.4-5.4.5 0 .9 2.2.9 5 0 2.9-.5 5-1.1 5-.5 0-.8.4-.5.9.9 1.4-.5 4.2-1.7 3.4-.5-.3-.7-.1-.4.5.9 1.4-.3 4.3-1.4 3.6-.8-.5-1.3 1.8-1.2 5.3.1.7-.3 1-.8.7-.5-.3-.9 1.3-.9 3.5v4.1h4.1c2.4 0 3.8-.4 3.4-1-.3-.6.1-1 .9-1 .9 0 1.6.6 1.6 1.2 0 2-3.6 6.9-4.4 6.1-.4-.4-.4.1 0 1.1.5 1.3.4 1.7-.3 1.3-.6-.4-1.4 0-1.7.9-.4.9-.2 1.3.5.8.8-.4.7 0 0 1.5-.7 1.1-1.6 2.1-2.1 2.1s-.6.7-.3 1.7c.4 1.1.3 1.4-.5.9-.9-.5-1.2 1.6-1.2 7.9 0 8.4.1 8.6 2.3 8.3 1.7-.2 2.2.2 2 1.7-.1 1.1-.4 3.7-.5 5.7-.2 2.1-.6 3.8-1 3.8-1.5 0-.8 9.8.8 11.4 1.7 1.7 5.9 2.2 4.9.6-.3-.5.3-1 1.4-1 1.9 0 2 .6 2 13.4 0 11.6.3 14 2 17.7 1.2 2.4 2.1 6 2.1 8.1 0 2.4.4 3.7 1 3.3.5-.3.9.2.8 1.2-.4 4.9.3 13.4 1.1 12.9.5-.3.9 2.2 1 5.6 0 3.4.5 6.4.9 6.7.5.3.9 1.5.9 2.6-.2 7.1.4 12.5 1.3 12 .9-.6 1.6 8.4 1.1 14.3-.1 1.3.2 2.9.7 3.5.5.7 1 4.3 1.1 8.1 0 3.9.5 7.2 1 7.5.4.3.9 3.7.9 7.5.1 3.8.5 7.2 1 7.5.5.3 1 2.8 1 5.5.1 2.7.7 5.3 1.3 5.7.8.4 1.1 3.9 1 10.3-.1 6.4.2 9.6.9 9.6.6 0 1 .8.9 1.7-.4 4 .2 8.4.9 7.9.5-.3 1 3.1 1.1 7.6 0 4.5.5 8.4.9 8.7.5.3.9 3.7 1.1 7.6.1 3.8.6 7.2 1.1 7.5.6.3 1.1 4.3 1.1 8.8.1 4.5.6 8.2 1 8.2.5 0 .8 2.9.8 6.5-.1 3.5.2 6.8.5 7.3s.8 3.5 1.1 6.7c.4 3.3 1.1 6.8 1.7 7.8.5 1.1.9 5.7.9 10.4-.1 4.6.3 8.2.8 7.9.4-.3.9 2.2 1 5.6.1 3.4.6 6.5 1.2 6.9.7.4 1.1 4.1 1 9.9-.1 6.5.2 9 .9 8.5.8-.5 1.1.3.9 2.1-.5 6.1.1 12.5 1.1 11.9 1-.6 1.6 7.4 1.1 13.9-.2 1.6.2 2.6.7 2.2.7-.4 1 2 1 6.4 0 3.9.5 7.7 1.1 8.4.6.7 1 4 1 7.3-.1 3.3.4 7 1.1 8.2.6 1.2 1.1 3.4 1 4.9-.4 6 0 10.3 1 9.7 1.1-.7 1.2.5 1 8.2-.1 2.9.3 5.3.8 5.3s1.2.9 1.5 2c.3 1.1.2 1.8-.1 1.6-.4-.2-.6 2.7-.4 6.5.2 4.1.8 6.7 1.3 6.3.6-.3.9.5.8 1.8-.5 5.6.2 12.9 1.1 12.3.9-.6 1.6 8.4 1.1 14.3-.1 1.5.2 2.1.8 1.7.7-.4 1.1.9 1.2 3.7 0 2.4.2 5.4.5 6.8.2 1.4.6 6.3 1 11 .3 4.7.9 8.7 1.3 9 .4.3.8 3.4 1 7 .1 3.6.6 6.7 1 7 .4.3.8 3.6 1 7.5.1 3.8.7 7.2 1.2 7.6.5.3.9 1.4.8 2.5-.4 4.4.2 8.5 1.1 7.9.9-.6 1.6 6.7 1.1 12.3-.1 1.5.2 2.1.9 1.7.7-.4 1 1.7.9 6.8-.1 4 .4 8.3 1 9.5.6 1.2 1.2 5.5 1.3 9.7 0 4.2.4 7.8.8 8 .4.3.8 3.9.9 8.2.1 4.2.5 7.9 1 8.3.5.3.9 1.2.9 2-.4 6.3.4 15 1.2 14.5.5-.3.9.2.8 1.2-.4 4.8.3 12.4 1.1 11.9.5-.3.9 0 .8.7-.2 6.2.5 14.7 1.1 14.3.5-.3 1 2.9 1 7.1.1 4.2.6 7.9 1.1 8.3.5.3.9 1.2.9 2-.3 4.7.3 11 1 10.6.5-.3.9 3.2 1.1 7.7.1 4.5.7 8.4 1.2 8.8.6.3 1 5.2 1 11.4 0 6 .3 11.3.8 11.9 1.2 1.6 2.2 4.8 1.3 4.2-.4-.2-.5 2-.4 5 .2 3 .8 5.4 1.3 5.4.4 0 .8 2.1.7 4.6 0 2.5.3 4.9.8 5.3.5.3 1.1 3.5 1.3 7.1.2 3.6.6 6.7 1 7 .7.6.8 1 1 9.1 0 3.9.5 5.8 1.2 5.4.6-.4.9.2.8 1.7-.5 5.3.2 13.9 1 13.4.5-.4.9 2.8.9 7.1.1 4.2.5 7.9 1 8.2.5.3 1 4.4 1.1 9 .1 4.7.5 8.9.9 9.5.5.6.9 4.2 1.1 8.1.2 3.8.6 7.2 1 7.5.4.3.8 2.9.9 5.9 0 3 .5 5.7.9 6 .5.3 1 3.1 1.1 6.1.2 3 .6 5.7 1 6 .4.3.8 2.5 1 5 .2 2.4.6 4.7 1 5 .4.3.9 3.4 1.1 7 .1 3.6.6 6.7 1 7 .4.3.8 3.6 1 7.5.1 3.8.6 7.2 1.1 7.5.4.3.8 4.3.8 8.9.1 4.6.5 8.7.9 9 .5.3 1 3.5 1.2 7.1.2 3.6.6 6.7 1 7 .3.3.8 3.2 1 6.5.2 3.3.7 6.8 1.2 7.7.5.9.9 4.6.9 8.3 0 3.6.4 6.4.8 6.1.4-.2.9 3 1.1 7.2.1 4.2.6 7.9 1 8.2.3.3.8 3.6 1 7.5.2 3.8.6 7.2 1 7.5.4.3.9 4.1 1 8.4.1 4.4.6 8.5 1.1 9.1.5.6.9 4.6.9 8.9 0 4.4.4 8.2 1 8.5.5.4 1 4.2 1 8.5 0 4.4.4 8.2.9 8.5.5.3 1 3.7 1.1 7.6.1 3.8.6 7.4 1.1 7.9.6.6 1 3.4 1 6.3s.4 5.3.8 5.3c.5 0 .9 2.2 1 5 0 2.7.6 5.8 1.1 6.9.6 1.1 1.1 4.5 1.1 7.5 0 3.1.4 5.6.8 5.6.5 0 1 4.8 1.1 10.7.1 5.9.6 11.2 1.1 11.8.4.5.9 5 .9 10 .1 4.9.5 9.1.9 9.5.4.3.8 2.5 1 4.9.1 2.4.7 5.2 1.2 6.2.6 1 1 3.4 1 5.4 0 2 .4 3.4.9 3.1.4-.3.3 1.5-.2 3.9-.6 2.5-.8 4.7-.6 4.8.2.2 2.3.2 4.6-.1 3.4-.3 4.2-.8 4.8-3 .4-1.6.1-2.8-.7-3.3-1-.7-1-1.2-.1-2.8.7-1.1 1.3-6.8 1.4-14.2.1-6.8.5-12.6 1-12.9.4-.3.8-4.6 1-9.5.2-5 .6-9.2 1-9.5.5-.3.9-9.2 1-19.7.1-11.3.5-19.3 1.1-19.5.5-.2 1-4.1 1-8.7s.3-9.4.8-10.6c.5-1.3 1-6.7 1.1-12.1.1-5.5.6-10.1 1-10.4.4-.3.8-5.5 1-11.5.1-6.1.6-11.2 1-11.5.4-.3 1-7 1.3-15 1.2-28.2 1.7-35.5 2.7-36.5.5-.5.9-6.8.9-14s.4-13.5.9-14c.5-.6 1.1-4.1 1.3-7.8.1-3.8.6-7.1 1-7.3.5-.3.8-5.7.8-12 0-6.4.4-12.3.9-13.3.6-.9 1.1-9.4 1.2-18.7.1-10 .6-17.2 1.2-17.5.5-.4.9-4 .8-8-.1-4.3.3-7.5.9-7.9.6-.4 1.3-2.7 1.4-5.2.2-2.5.6-5 .9-5.5.3-.5.7-7.6.8-15.8.1-8.3.5-15.2 1-15.5.4-.3.9-4 1-8.2.2-4.2.7-7.4 1.1-7.2.4.3.8-2.6.8-6.3 0-3.8.4-7.3.9-7.8.5-.6 1.1-6.2 1.2-12.5.1-6.3.6-11.7 1-12 .4-.3 1-3.9 1.3-7.9.4-4.1.9-9.1 1.2-11.2.4-2.2.2-3.9-.5-4.3-.7-.5-.8-1.3-.2-2.4.5-1 1-7.1 1.1-13.7.2-14.1.4-16.5 1.4-18.6.4-.8.2-2.8-.4-4.4-.8-2-.8-3 0-3.5.6-.4 1-5.1.9-12.5 0-6.8.3-12 .9-12.4.6-.3 1.1-3.8 1.3-7.6.2-3.9.6-7.5 1-8 .4-.6.9-7.3 1-15 .1-7.7.6-14.3 1.1-14.6.4-.3 1-3.5 1.1-7.2.2-3.7.6-7 1-7.3.4-.4.7-6.3.7-13.1 0-6.9.4-13.2.9-14.2.5-.9 1.1-6.3 1.2-11.9.1-5.6.6-10.2 1-10.2.6 0 1.2-16.9 1-27.9-.1-1.8.3-3.9.8-4.5.5-.6 1-4.7 1.2-9.1.2-4.4.6-8.2 1-8.5.5-.3.9-5.1 1-10.8.1-5.7.7-10.2 1.2-10.2.6 0 .8-3.3.5-8.1-.4-6.2-.2-8.2.9-8.6 1.3-.5 1.9-6.3.6-6.3-1.3 0-1.2-5.3.3-10.9.7-2.9 1.1-5.7.9-6.1-.3-.5 0-1 .5-1.2.6-.2 1.3-5.3 1.6-12.3.9-23.1 1.3-27.9 2.4-30.6.7-1.7 1.3-9.6 1.3-19.8.1-9.4.5-17.1.9-17.1.3 0 .7-4.1.7-9.2 0-5 .5-9.4 1-9.8.6-.3 1.1-7.9 1.2-17.3.1-9.2.5-16.4 1-16.1.5.3 1-2 1.1-5 .2-8 .2-8 1.6-8.9.8-.5 1-1.7.6-2.9-.3-1.1-.1-2.3.4-2.7.7-.4 1.2-7.1 1.3-17.9.1-9.4.5-17.2 1-17.2s.9-2.6.9-5.8c0-3.1.2-8.2.5-11.2s.7-10.9 1-17.5c.3-6.5 1-12.2 1.4-12.5.5-.3 1-3.9 1.2-8 .2-4.1.7-7.7 1.1-8 .4-.3.8-4.7.9-9.8.2-5 .6-9.2 1-9.2.5 0 .9-7.9 1.1-17.5.2-9.6-.1-17.5-.5-17.5-1 0 .2-4.3 1.5-5.1.5-.3.8-5.7.7-11.9-.1-7.6.3-11.6 1-11.8 1.3-.4 1.6-18.2.3-18.2-.5 0-.9-3.6-1-8 0-8.4.9-10.3 4.8-9.3 2.1.6 3.5-2.6 2.5-5.6-.4-1.4 0-2.3 1.3-3 1.1-.6 2.2-.8 2.5-.5.3.3 1.5.1 2.6-.6 1.5-.8 2.1-2 2.1-4.6 0-2.1-.4-3.3-1-2.9-.6.4-.7-.6-.3-2.6.5-2.5.3-3-.7-2.4-.9.5-1.1.4-.6-.4.4-.6 1.1-.9 1.6-.6 2 1.2 3.1-3.9 2.8-12.9-.3-9-.2-9.2 1.8-8.8 1.2.2 3.1-.1 4.3-.7 1.8-1 2.1-2.1 2.1-7.1 0-3.2-.4-6-.9-6.2-.5-.2-1.1-3-1.3-6.3-.1-3.3-.6-6.2-.9-6.5-1.3-.9-2.2-6-1.1-6 .9 0 4.6 4.7 4.7 6 .1 1.8 2 3 4.6 3 2.7 0 2.9-.2 2.9-4.1 0-2.4-.4-3.8-1-3.4-.5.3-1-.3-1-1.5s.5-1.8 1-1.5c1.3.8 1.3-3.8.1-5-1.1-1.2-2.1-10.6-1-10 .4.3 1.4.2 2.3-.1 2.2-.8 2.3-12.9.2-13.7-.9-.4-1.2-1.4-.9-2.8.5-1.6.3-2-.6-1.4-.9.5-1.2.2-.9-1.1.2-1.1 1.1-1.8 2.1-1.8 1.1.1 1.7-.5 1.7-1.8 0-2.8-3.1-11.8-4-11.8-.5 0-1.2-.9-1.5-2-.4-1.1-1-1.8-1.5-1.5-1.1.7-2.2-2.4-1.3-3.7.3-.6.2-.8-.4-.5-1.2.8-3.6-4-2.7-5.4.4-.6 1.1-.6 1.9.1.8.7 1.9.9 2.5.5 1.3-.8 1.3-8.2 0-9-.5-.3-1-3.1-1-6.1 0-3.4-.4-5.3-1-4.9-1.7 1-1.1-.7.8-2.2 1.1-1 1.2-1.2.2-.8-1 .4-.9.2.3-.8 1.9-1.6 2.3-4.7.6-4.7-.5 0-.7-.4-.4-1 .9-1.4-1.4-5.2-2.7-4.4-.6.4-.8.3-.5-.3.7-1.1-2.6-8.7-3.4-7.9-.2.2-.5-.7-.5-2-.2-1.8.5-2.8 2.2-3.4 3.8-1.5 3.2-6.1-1.4-11.8-4.9-6-6.1-8.7-6.4-14.2-.2-3.4-.7-4.5-2-4.5-.9 0-2-.4-2.5-.9s-.2-.6.7-.2c.8.4.4-.2-1-1.4s-1.9-1.9-1.3-1.5c.9.4 1.1.1.7-.9-.3-.9-1-1.4-1.4-1.1-.4.3-1.1-.2-1.4-1.1-.3-.8-.2-1.2.4-.9.6.3.7-.1.4-.9-.3-.9-1-1.6-1.5-1.6s-.9-.6-.9-1.4c0-1.1 1.2-1.4 4.8-1.3 4.6.2 4.7.2 5-3.2.3-2.4 0-3.1-.9-2.5-.8.4-1 .3-.5-.5.9-1.3-2.2-6.6-5.8-10-1.4-1.4-2.6-3.1-2.6-3.8 0-.8-.5-1.1-1.1-.7-.7.4-1 .1-.7-.7.2-.7-.3-2-1.2-2.9-1.3-1.2-1.3-1.3 0-.5.8.5.4-.3-.9-1.8-2.6-2.9-3.7-3.5-2.5-1.5.6 1 .4 1-.8 0-1-.8-1.5-2.4-1.3-4 .2-1.5.4-3.3.4-4 .1-.7.5-1 1.1-.7.5.3.7 0 .5-.7-.3-.8.7-2.5 2.2-3.8l2.8-2.5-2 2.5-2 2.5 2.3-1.9c1.5-1.3 2-2.6 1.6-3.9-.4-1.3-.2-1.7.6-1.2.7.4 1 .1.8-1.1-.2-1 .2-1.9.9-1.9 2 0 3.2-1.9 3.6-5.2.2-1.7 1.1-3.8 2-4.7.9-.9 1.3-2.4 1-3.3-.4-1.1-.3-1.4.5-.9.7.4 1.2.2 1.2-.4 0-.7 1.4-4.1 3.1-7.7 3.2-6.8 3.7-8.2 3.8-12.1.1-1.3.4-2.1.9-1.9.4.3.8-.9.8-2.6.1-1.7.6-3.3 1.3-3.5.6-.2 1.1-1.5 1.1-3 0-2.5.9-5.9 3.7-13.5.7-2.1 1.1-4.3.8-4.8-.4-.5-.2-.9.3-.9s.9-2.8.9-6.1c.1-3.4.5-6.4.9-6.8.5-.3 1.1-3.1 1.3-6.1.1-3 .7-5.7 1.2-5.8.5-.2.9-3.3.9-6.8 0-4.1-.4-6.3-1-5.9-1 .6-1.6-9.1-1.1-15.8.1-1.6-.3-3.5-.9-4.2-.7-.8-1-2.2-.6-3 .4-1.1.2-1.4-.6-.9-.8.5-.9.2-.5-1 .4-1 .3-1.5-.3-1.1-1.1.7-1.3-.5-1-4.4.1-1.3-.3-2.1-.8-1.7-1 .6-3.5-5.1-3.1-7 .4-2.5-.2-6.4-1-6-.5.3-1.1-.3-1.4-1.4-.3-1.1-.1-1.8.4-1.4.5.3.6-.2.3-1s-1.2-1.7-1.9-2c-.8-.3-1.1-1.3-.8-2.7.4-1.5.3-2-.5-1.5-.7.4-1 .2-.7-.6.6-1.5-2.8-7-4.1-6.9-1.5.2-1.4-7 .2-9.4 1.4-2.1 2-2.2 10.2-1.8 4.8.2 9.2 0 9.9-.4.7-.5 1.3-3.6 1.5-7 .1-3.4.6-6 1-5.7 1.2.7 8.9-6.8 8.4-8.2-.3-.7.3-1.8 1.2-2.6 1.5-1.2 1.6-1.1.3.4-.7 1-1.1 1.8-.7 1.8 1.4 0 5.6-8.2 5.6-11 0-1.6.4-3 .8-3 1.2 0 3.2-4.6 3.2-7.2 0-1.2.7-2.9 1.5-3.8.9-1 1.7-3.2 2-5 .3-2.3 1.7-4.6 4.7-7.4l4.3-4.1-4 4.5c-3.5 3.9-3.6 4.1-.7 1.5 1.9-1.7 4.9-5.3 6.8-8.1 3-4.5 3.4-5.9 3.4-11.7 0-6.5.1-6.7 5-12.3 2.7-3.1 4.7-6.1 4.3-6.7-.3-.6-.1-.7.5-.3 1.3.8 3.6-4 2.6-5.5-.3-.5 0-.8.8-.7.7.2 1.3-.6 1.3-1.7.1-1.1.6-1.9 1.3-1.7 1.5.3 3.5-4.5 2.5-6.1-.3-.7-.2-.9.2-.4 1.2 1 3.4-5.8 3.7-11.4.2-2.6.7-4.5 1.2-4.1.5.3.6-.3.2-1.4-.4-1-.4-1.5 0-1.2 1.5 1.5 4.4-1.3 4.4-4.2 0-1.7.4-3.8.9-4.8.5-.9 1.8-3.6 3-5.8 1.3-2.6 2.1-6 2.1-9.1 0-5.1 3.2-11.5 8-15.8 2.8-2.5 2.7-7-.2-7.2-1.1-.1-2.9.2-4 .8-1 .5-1.8.7-1.8.3 0-.8 6-8.5 8-10.2 1.3-1.2 1.3-1.3 0-.7-.8.4-.4-.3 1-1.6s2.1-2.2 1.5-1.9c-.6.3-.3-.2.7-1.1.9-.9 1.4-1.9 1.1-2.3-.4-.3-.1-.6.5-.6.8 0 1.2-1.8 1.2-4.9 0-4.6-.1-4.9-2.2-4.3-1.3.3-3.7 1.6-5.4 2.8-2.9 2.2-9.5 5.4-11.1 5.4-.5 0-.7-1.8-.5-4.1.4-3.4 1.1-4.5 4.5-7 2.4-1.7 4.9-2.8 6-2.5.9.2 3.7-.7 6.2-2 2.4-1.4 5-2.4 5.7-2.3 2.6.3 4.9-.1 4.5-.9-.3-.4.9-.8 2.6-.9 1.7-.1 3.3-.6 3.6-1 .3-.5 2.4-.9 4.6-1.1 2.1-.1 4.1-.6 4.5-1 .5-.7.9-.8 5.6-1.1 1.4 0 2.3-.5 2-1-.3-.5.1-1.2 1-1.5.9-.3 1.2-.2.8.5-.3.6.8.3 2.5-.5 1.7-.9 3.1-1.9 3.1-2.2 0-.3-.6-.2-1.2.2-.7.4-1 .3-.6-.1.5-.5 2-1 3.4-1.1 1.4-.2 3.3-1.1 4.1-2.1.8-1 1.1-1.2.8-.5-.6 1.1-.3 1.2 1.4.2 1.2-.6 1.9-1.5 1.6-2.1-.4-.5-.1-.8.6-.7.7.2 1.3-.4 1.4-1.2.1-.8.7-1.4 1.4-1.2 1.7.4 4.2-1.8 3.5-2.9-.3-.5-.2-.9.3-.8 1.3.3 4.3-1.2 3.9-2-.3-.4.4-1.3 1.6-2 1.6-1 1.9-1 1.3.1-.3.7.1.4 1-.7s2.2-1.9 2.9-1.7c1.6.3 29.9-28.5 29.1-29.8-.3-.5 0-1.2.7-1.7 1.3-.8 1.9-.9 3.9-1.2.6 0 .9-.8.5-1.6-.3-.9.3-2 1.5-2.8 3.1-1.8 10-16.4 9.3-19.3-.4-1.6-.1-2.6.9-3 .9-.3 1.3-1.2 1-2-.3-.8 0-1.4.7-1.4.8 0 1.1-1.6.8-5-.1-2.8.1-5 .6-5 .4 0 .6-.7.2-1.5-.3-.8-.1-1.5.5-1.5.7 0 1-1.4.7-3.4-.2-1.9-.1-3.3.3-3 .4.2 1-1.7 1.4-4.3.3-2.7 1.1-6.6 1.7-8.8.6-2.2 1.1-8.2 1-13.3 0-5.2.4-9.2 1-9.2 1.3 0 .4-40.3-1.1-46.5-.7-2.8-1.5-8.9-1.8-13.8-.3-4.8-.8-8.7-1.1-8.7-.4 0-.7-1.5-.8-3.3-.1-5.5-1.4-10.8-2.5-10.1-.6.3-.9 0-.8-.7.6-2.8-1.2-9-2.3-8.3-.7.4-.8.3-.4-.5 1.3-2-8-23.5-9.7-22.4-.5.3-.7.2-.4-.4.3-.5-.7-3.5-2.4-6.8-1.6-3.2-2.9-6.4-2.9-7.2 0-.8-.5-1.1-1.2-.7-.7.4-.8.3-.4-.4.9-1.4-4.7-10.5-5.9-9.5-.4.5-.5.3-.2-.4 1-1.6-.3-4.4-1.6-3.6-.5.3-.7.1-.4-.4.4-.6-.2-2.2-1.4-3.4-1.1-1.3-1.7-1.8-1.3-1 .4.9.3 1.2-.4.7-.6-.3-1-1.4-.9-2.4.1-2.3-8.1-14.4-9.3-13.7-.6.3-.7 0-.4-.8.8-2.3-19.6-22.9-23.1-23.3-1.6-.1-3.8-1.5-5-3-1.5-1.9-2.7-2.5-3.9-2.1-.9.4-1.5.3-1.2-.2.3-.5-.1-1.2-1-1.5-1-.4-1.3-.2-.7.7.4.6-.4.4-1.7-.5-1.4-.9-2.4-2.2-2.2-2.8.1-.6-.1-.9-.6-.6-1.2.7-5.2-2.2-5.2-3.8 0-1.5 2.3-3.7 4.2-4 2.7-.4 5.8-2.7 5.2-3.8-.4-.7-.3-.8.4-.4 1.3.8 7.3-2.4 6.7-3.5-.3-.4.2-1 1.1-1.3 1-.4 1.3-.2.8.6-.5.7-.3.8.7.3 4.2-2.5 6.8-4.9 6.2-5.8-.3-.6-.2-.7.4-.4 1.2.8 6.5-2.7 5.6-3.7-.4-.4-.1-.4.8-.1 1.9.7 4.9-1.5 5.3-4 .2-1.1.9-2 1.7-2 .8-.1 1.3-.6 1.1-1.3-.1-.7.4-1.1 1-1 .7.2 1.2-.3 1-1-.1-.6.4-1.1 1-1 .7.2 1.2-.3 1-1-.1-.6.4-1.2 1.1-1.2 1.4 0 7.4-9.8 6.9-11.3-.1-.4.4-.6 1-.5.7.2 1.2-.5 1.2-1.4-.1-1 .2-1.6.6-1.3.5.3 1.2-.5 1.6-1.7.4-1.3 2-4.2 3.5-6.5 1.6-2.3 2.9-5 2.9-6s.9-3.3 2-5.1c1.1-1.8 1.8-3.7 1.5-4.2-.3-.4 0-1 .6-1.2.6-.2 1.2-1.5 1.2-3 .1-1.4.5-2.4.8-2.2.9.5 2-2.6 1.3-3.7-.3-.5 0-.9.7-.9.6 0 .9-.8.6-2-.3-1.1-.2-2 .3-2 .8 0 2.4-5.4 2.3-7.7 0-.7.4-1.1.9-1 1.1.2 3.9-9.3 3.1-10.5-.2-.5.1-.8.8-.8.6 0 .9-.8.6-2-.3-1.1-.1-2 .4-2 .4 0 .5-.7.2-1.7-.5-1.2-.3-1.4.7-.8 1 .6 1.2.3.8-1.3-.4-1.2-.2-2.2.3-2.2.4 0 .6-.7.3-1.5-.4-.8-.1-1.5.4-1.5.7 0 .8-1.4.5-3.7-.5-2.8-.3-3.4.7-2.8 1 .6 1.2.4.7-.8-.4-1-.2-1.7.4-1.7.7 0 .9-1 .5-2.6-.4-1.4-.3-2.3.2-2 1 .6 3.5-9.1 2.6-10.5-.3-.5 0-.9.6-.9.8 0 .9-1 .5-3-.4-1.7-.2-3.6.3-4.3.6-.7 1.2-5.6 1.5-11 .2-5.4.7-10 1.1-10.4 1-1 .7-12.3-.4-12.3-1.4 0-1.2-10.4.2-13.6.9-1.9 1-2.8.2-3.1-.6-.2-.9-1.5-.6-3 .3-1.4.1-2.3-.4-2-.5.3-.8-2.3-.6-5.9.3-4.8-.1-7.5-1.6-10.7-1.1-2.3-2.3-5.9-2.6-8-.4-2.1-1.1-3.5-1.6-3.2-.4.3-.6-.5-.2-1.7.3-1.3.1-1.9-.5-1.5-.7.5-.9 0-.6-1.2.3-1.1-.6-4.4-2-7.3-1.4-2.9-3.3-7.2-4.2-9.5-1-2.3-2.2-4-2.6-3.7-.5.3-.6-.3-.2-1.2.5-1.2.3-1.5-.6-.9-1 .5-1.1.2-.6-1.4.8-2.7-2.4-6.7-17-21.4-8.1-8.1-12.5-11.7-17-13.9-3.3-1.6-7.1-3.5-8.5-4.3-1.4-.8-3.2-1.2-4-.9-.8.3-1.1.2-.7-.2 1-1-5.3-4.6-7-4-.8.3-1.1.2-.8-.3.9-1.6-5.7-5.9-11-7.1-2.8-.7-8.8-3-13.5-5.3-4.7-2.2-10.1-4.1-12-4.1-1.9-.1-3.7-.3-4-.6-1.7-1.7-5.5-3-8.9-3-2.2 0-4.3-.5-4.6-1-.3-.6-1.5-1-2.6-1-1 0-3.8-.9-6.2-1.9-5.9-2.7-15.9-3.5-40.2-3.5-22.7.1-38.4 1.1-40 2.5-.5.5-2.4.9-4.1.9-1.8 0-3.6.4-3.9 1-.3.5-1.7 1-3.1 1-1.4 0-2.3.4-1.9.9.3.5-.9.9-2.7.9-4.5-.1-28.4 8.5-28 10.1.1.7-.2 1-.7.6-1.4-.8-8.4 2.2-7.7 3.4.3.5-.2.7-1.2.4-4-1-20.9 16-19.9 19.9.3.9-.2 1.9-1.2 2.3-1.1.4-4-1.9-10.1-8.3-12.2-12.9-13.7-13.6-29.1-14-14.2-.4-15.7 0-23.9 6.9-4 3.3-4.8 4.7-5.8 9.7-.7 3.2-1.2 10-1.2 15 0 8.3.3 9.9 3 15 4.9 9.5 12.3 19.8 17.3 24.1 3.4 2.9 5.7 7.2 5.7 10.6 0 1.5.4 2.4 1 2 .6-.4 1 4 1 12.4 0 8.1-.4 13.1-1 13.1s-1 4.3-1 10.9c0 6-.5 12.2-1.1 13.8-1 2.5-2.4 16.2-4.9 47.8-2.2 27.1-2.2 26.7-3.9 25.9-3.7-1.5-11.4-1.6-16.4-.1-2.8.9-8 2.4-11.4 3.3-3.4 1-5.9 2.2-5.6 2.7.3.5-.8.7-2.3.5-1.9-.2-3-1-3.2-2.2-.4-2.1 3.7-11.8 4.8-11.1.3.2 1.4-.9 2.4-2.6.9-1.6 1.4-2.9 1-2.9-.4 0 .1-.7 1.2-1.6 1-.8 1.3-1.3.7-.9-.9.4-1.1.1-.7-.9.3-.9.9-1.4 1.4-1.1 1.1.7 6.3-13.1 5.5-14.6-.5-.7-.4-1 .3-.5 1.8 1.1 3-5.2 3.6-18.7.5-9.4.3-12.7-.5-12.1-.8.5-1-3.1-.8-12.9.2-7.4.1-13.3-.2-13.1-.3.2-.4-.8-.1-2.3.4-2 .2-2.4-.8-1.8-1 .6-1.2.1-.7-2.3.7-3.2-3.5-18.6-5.4-19.7-.5-.4-.9-1.8-.9-3.3 0-4.6-4.4-15.7-5.8-14.8-.4.2-.8-.6-.8-1.8-.4-6.2-21.4-35.3-30-41.7-5.5-4.1-20.4-11.4-25.2-12.5-3.3-.7-11.5-3.9-16.2-6.3-4.9-2.5-13.9-4.4-18.8-3.9-2.3.2-4.2.1-4.2-.2 0-1-8.1-1.3-28.5-1.3-19.3 0-28.5.7-28.5 2.3 0 .5-1 .6-2.2.2-1.3-.3-1.9-.1-1.5.5.4.6-.3.8-1.9.5-2.5-.5-17.3 2.7-25.4 5.5-2.5.8-5.8 1.9-7.5 2.3-12.8 3.6-32 13.7-38 20-1.6 1.8-4.3 3.9-6 4.7-3 1.6-15.1 12.5-31.3 28.4-10.4 10.2-15.7 16.3-15.7 18 0 .6-.8 1.3-1.7 1.5-2.3.3-6.9 5.8-12.3 14.3-.5.9-1.9 3-3.1 4.6-3.4 5-3.9 5.9-2.3 5 .8-.4.4.3-.8 1.6-1.8 1.9-2.5 2.1-3.5 1.1-.7-.7-1.4-1.7-1.4-2.3-.1-.5-.2-1.4-.3-2 0-.5-.7-.7-1.3-.3-.7.4-1 .4-.6-.1 1.1-1.1-1.1-4.7-2.4-3.9-.6.4-.8.3-.5-.3.4-.6 0-2.4-.8-3.9-.8-1.6-1.5-3.7-1.5-4.7 0-1.1-.4-1.5-1.2-1.1-.8.5-.9.2-.5-.9.3-.9-.5-4-1.8-6.9-1.4-2.9-2.5-6.9-2.5-8.8 0-1.9-.9-5.2-2-7.3-1.8-3.3-2.1-5.7-2.1-17.3-.1-7.4-.4-13.2-.8-12.9-.5.2-.8-.8-.8-2.3 0-1.5-.5-4.5-1.1-6.7-1.9-7.7-3.2-16.2-3.2-21.8 0-5.6-1.5-10.7-3.2-10.7-.5 0-.7-.8-.4-1.8.8-2.4-1.8-12.2-4.4-16.4-1.1-1.8-2-5-2-7.1 0-4.5-2.3-10.3-5.2-13.4-2.2-2.3-3.5-4.4-10.2-15.8-1.9-3.4-6.1-8.6-9.3-11.7-3.2-3.1-6.9-6.7-8.3-8.1-7.9-8-28.9-25.8-31.3-26.6-1.9-.6-11.6-7.1-17.1-11.4-5.5-4.3-11.3-7-12.9-6-.6.3-.7.1-.3-.5.4-.6-.6-1.8-2.3-2.7-3.9-2-24.7-2.2-25.4-.3-.3 1-.9 1-2.6 0-2.2-1.3-7.3-1.6-8.4-.5zM1714 365.8c0-.3.9-.4 2-.1 1.1.3 2 .9 2 1.3 0 .5 2.1.8 4.6.7 2.5 0 4.9.5 5.3 1.1.4.7 2 1.3 3.7 1.4 1.6.1 3.1.6 3.4 1 .3.4 2.4.9 4.7 1 2.3.2 3.9.6 3.7.9-.2.4.5.9 1.6 1.2 1.1.3 1.8.1 1.4-.4-.3-.5.2-.6 1-.3.9.3 1.6 1 1.6 1.4 0 .4.6.8 1.3.7 3.6-.1 5.7.4 5.2 1.3-.3.5 0 .7.8.4.8-.3 2 .3 2.8 1.2.9 1.2 1 1.5.2 1-.7-.4-1.3-.5-1.3-.2s1 1 2.1 1.7c1.6.8 2 .8 1.4-.1-.5-.8-.1-.8 1.3.1 1.2.7 1.8 1.7 1.5 2.3-.3.5-.1.6.5.3 1.3-.9 4.4.2 3.7 1.3-.3.4.2 1.1 1.1 1.4 1 .4 1.3.2.9-.7-.4-.6.2-.1 1.3 1.2 1.1 1.4 2.8 2.6 3.8 2.7 2 .3 4.6 3.3 3.9 4.4-.2.4 1.2 2.2 3.3 4.1l3.7 3.4-3.5-4-3.5-4 3.7 3.4c2.1 1.9 3.5 3.8 3.2 4.3-.3.4 1.6 2.9 4.2 5.6 2.6 2.6 4.3 4.1 3.9 3.3-.5-.9-.4-1.2.3-.7.6.4.9 1.3.6 2.1-.3.8.5 2.5 1.8 3.7 3.4 3.3 5.8 7.4 5.8 9.8 0 1.2.4 1.9.8 1.6.4-.2.9 1.8 1 4.6.1 3.4.8 5.6 2 6.5.9.8 1.1 1.2.5.8-.9-.4-1.1-.1-.7.9.3.9.9 1.4 1.4 1.1.4-.2.8 5.3.9 12.3.1 6.9.5 12.9.9 13.2 1.1.8 1.4 8.3.3 8.9-.5.3-1.1 4.1-1.2 8.3-.2 4.2-.7 7.4-1.2 7.1-.5-.3-.8.3-.7 1.3.4 3.6 0 5.5-1 4.9-.6-.3-1 .4-1 1.7 0 2.1-11.5 26.3-13.9 29.2-2.3 2.7-9.9 18.5-9.3 19.2.4.4.2.4-.5 0-1.2-.7-6.6 6.1-5.8 7.4.2.4-.8 1.8-2.3 3.1l-2.7 2.4 2.5-3 2.5-3-3.3 2.9c-1.7 1.7-3.1 3.7-3 4.5.2.9-.3 1.6-1 1.6-1.5 0-16.5 15.4-16.6 17-.1.5-1 1-2.1 1s-2 .7-2 1.5-.9 1.5-2 1.5-1.9.6-1.7 1.3c.1.8-.2 1.1-.7.8-1.2-.8-4.2.4-3.6 1.4.3.4-.4 1-1.5 1.3-1.1.3-1.8.1-1.4-.4.6-1.1-2.9.1-3.6 1.3-.3.4-2.7.9-5.3 1-2.6.2-4.7.6-4.7 1s-.8.7-1.7.6c-3.4-.3-5.4.2-4.8 1.2.3.6-11.1.9-31 .9-19.8 0-31.3-.3-31-.9.6-1-2.9-1.5-6.9-1-1.1.1-1.5-.3-1.2-.9.7-1.1-3.2-1.7-8.2-1.2-1.3.1-2.1-.2-1.8-.7.7-1.2-2.2-2.4-3.6-1.5-.7.3-.8.1-.4-.5.4-.8-.1-1.3-1.3-1.4-1.2 0-2.7-.1-3.3-.2-.7-.1-1.6-.5-1.9-.9-.5-.7-3.2-1.3-7.2-1.6-.5-.1-.5-.6-.1-1.3.5-.8.2-.9-1-.5-.9.4-1.5.3-1.2-.2.7-1-2.2-2.4-3.4-1.6-.4.3-1.4-.3-2.1-1.3-1.2-1.5-1.2-1.6.1-.7.9.5.7.2-.3-.7-1.1-1-2-2.9-2.1-4.2 0-1.3-.4-2.2-.8-1.9-.5.2-.9-.4-.9-1.4-.3-4.3-.5-4.8-1.9-4.5-.8.2-1.2 0-.8-.4 1-.9-3.1-6.6-4.3-5.9-.5.4-.6 0-.3-.8.4-1.2-2.3-4.6-3.3-4-.1.2-.3.1-.3-.2.1-2.1-3.5-6.6-5.8-7.1-1.5-.4-4.4-1.8-6.4-3.2-2-1.3-4.2-2.1-4.7-1.7-.6.3-1.1.2-1.1-.3 0-.6-.7-1.3-1.6-1.6-1-.4-1.3-.2-.8.7.5.6-.8 0-2.7-1.4-2.7-2.1-3.4-3.4-3.4-6 0-1.9.3-3.9.8-4.6.5-.7.7-1.8.4-2.5-.2-.7.1-2.7.9-4.5.7-1.8 1.2-4.6 1.2-6.4-.1-1.7.4-3.4 1-3.8.7-.4 1.3-3.2 1.4-6.2.1-2.9.5-5.6.9-5.9.4-.3.8-2.5 1-5 .2-2.5.7-4.7 1.1-5 .4-.3.8-2.6 1-5.2.2-2.5.6-4.4 1.1-4.1.7.4 1.2-3.6.7-6.6-.1-.8.3-1.7.9-2 .6-.4 1.2-3 1.3-5.8.1-2.8.6-4.9 1-4.7.4.3.7-.3.6-1.3-.3-4.3.3-8.4 1.2-7.8.9.6 1.5-3.5 1.2-7.8-.1-1 .3-1.5.8-1.2.9.6 1.5-3.7 1.1-7.3-.1-.6.3-1.2.9-1.2.6 0 .9-.4.6-.9-.8-1.2.4-4.2 1.4-3.6.4.3 1-.8 1.3-2.3.3-1.5 1.8-4 3.2-5.6 1.4-1.6 2.5-3.5 2.5-4.1 0-.7.9-2.4 2.1-3.9 1.1-1.4 1.7-3.1 1.3-3.7-.4-.7-.3-.9.3-.6.6.4 1.4 0 1.7-.9.4-.9.2-1.3-.5-.8-3.1 1.9 1.9-4 10.3-12.1 5.1-5 7.3-6.7 4.8-3.9-3.5 3.9-3.1 3.6 1.5-1 3.2-3.4 5.6-5.5 5.1-4.8-.7 1.1-.4 1.1 1.2.1 1.2-.7 1.9-1.7 1.6-2.1-.3-.4.1-.5.8-.3.8.3 2.3-.3 3.3-1.3 2.2-2 5.9-3.7 5.1-2.3-.4.5.3.7 1.4.4 1.1-.3 1.8-.9 1.5-1.3-.3-.4.4-1 1.5-1.3 1.1-.3 1.8-.1 1.4.4-.3.5.2.6 1 .3.9-.3 1.3-1 1-1.5-.6-1 .7-1.2 4.5-.9 1.4.1 2.1-.2 1.7-.9-.4-.7 0-1 1.1-.9 3.2.2 5.4-.2 4.9-1-.3-.4 1.1-.9 3.1-.9 2-.1 3.9-.6 4.3-1.3.4-.6 1.1-1 1.6-.9 2.5.4 6.5-.2 6-1-.3-.5 0-.9.7-.8 4.7.1 8.7-.4 8.2-1.2-.8-1.4 2.7-1.6 18.3-1.1 7.8.3 14.2.2 14.2-.2zm-339.4 31.3c.3.6 1.5.9 2.5.6 1.1-.3 2.5 0 3.2.6.6.7 2.1 1.3 3.1 1.5 1 .2 2.5 1 3.3 1.8 1.7 1.6 2.7 1.9 1.8.4-.3-.6.1-.7.9-.4.9.3 1.4 1 1.1 1.4-.3.4.2 1.1 1.1 1.4.8.3 1.3.2 1-.3-.4-.5.3-.7 1.4-.4 1.1.3 1.7.9 1.4 1.4-.5.8 1.8 1.4 3.9 1 .5-.1.6.3.3.8-.4.5.8 2 2.6 3.2 1.7 1.3 2.8 1.8 2.4 1.1-.6-.9-.2-1 1.8-.1 1.4.7 2.3 1.7 1.9 2.2-.4.7 0 .8 1.2.4 1.3-.6 3.9 1.4 10.5 7.8 4.8 4.8 8.7 9.4 8.6 10.3 0 .9.5 1.6 1.2 1.4.8-.1 1.1.2.7.7-.6 1 2.1 7.1 3.1 7.1.3 0 .2-.5-.1-1-.3-.6-.4-1-.1-1 .3 0 1 1 1.7 2.1.7 1.5.8 1.9 0 1.5-.7-.5-.9-.1-.5.8.3.9 1 1.3 1.6 1 .5-.3.9 0 .7.7-.3 2.9.1 5 1 4.4 1.6-.9 2.4 6.1 1.8 14.9-.6 9.1-.9 10.8-2 11.7-.4.3-.8 3.6-.8 7.2-.1 3.7-.4 6.5-.9 6.2-.4-.3-1.1.2-1.4 1.1-.4 1-.2 1.3.7.9.6-.4.4 0-.5.8-1 .8-1.5 1.7-1.1 2 .3.4.2.7-.4.7-.6 0-.9.9-.5 2.2.3 1.4.2 1.9-.6 1.4-.7-.4-1.2-.1-1.2.9 0 .9-.7 3-1.6 4.7-.9 1.8-1.1 2.7-.4 2.3 1.9-1.2-.9 3.7-3.4 5.8-1.1 1-1.4 1.6-.6 1.2.8-.4.6.1-.5 1s-1.9 2.1-1.7 2.7c.5 1.7-11.1 12.9-12.6 12.3-.7-.2-1 0-.7.5.3.6 0 1.1-.7 1.1-.7.1-1.7.2-2.3.4-.5.1-2 .3-3.3.3-1.3.1-2 .6-1.7 1.2.5.9-1.6 1.4-5.2 1.3-.7-.1-1.3.2-1.3.6 0 .4-2.1.8-4.7.9-2.6.1-4.9.6-5.3 1.2-.3.5-3.4 1-6.8 1.2-3.4.1-6.2.5-6.2.9s-6.3.7-14 .8c-8.8.1-14-.3-14-.9 0-.5-2.2-1-4.9-1-3.2 0-6.2-.7-8.4-2-1.8-1.1-5.2-2.1-7.5-2.2-2.3-.1-3.9-.5-3.5-1 .3-.6-1-.8-3-.7-2 .2-4-.1-4.4-.5-.5-.5-.1-.6.7-.2.8.4.6 0-.4-.8-1.1-.9-2.8-1.4-3.8-1-1 .3-1.8.2-1.8-.3 0-.4-1.7-.9-3.7-1-2-.1-3.9-.5-4.2-1-.3-.4-1.3-.8-2.1-.8s-1.4-.6-1.3-1.3c.3-1.1-2.7-1.7-7-1.4-1 .1-1.5-.3-1.2-.8.6-.9-1-1.4-4.2-1.3-.7.1-1-.3-.7-.8.5-.8-1.8-1.4-4-1-.4.1-1.5-.6-2.3-1.6-.8-1-1.2-1.2-.8-.6.4.9.1 1.1-.9.7-.9-.3-1.4-1-1.1-1.4.3-.4-.2-1.1-1.1-1.4-.8-.3-1.2-.2-.9.4.3.6-.1.7-.9.4-.9-.3-1.4-1-1.1-1.4.3-.4-.2-1.1-1.1-1.4-.8-.3-1.2-.2-.9.4.3.6-.1.7-.9.4-.9-.3-1.3-1-1-1.5.3-.5-.3-1-1.3-1.1-1 0-2.3-.2-3-.2-.7-.1-2-1-2.8-2.1-.9-1.1-1.4-1.3-1-.5.4 1 .2.9-.8-.2-.8-1-1.6-1.5-1.9-1.2-.9.8-12.2-5.3-14.7-8-1.7-1.8-2.2-3.2-1.7-5 .3-1.4 1.2-2.5 1.9-2.3.6.1 1.2-.7 1.2-1.8.1-1.1.6-1.9 1.2-1.8 1.7.4 5.5-4.8 4.8-6.4-.3-.9 0-1.1.7-.7.7.5.9.2.5-.9-.3-.9.1-2.1 1.1-2.9 1.6-1.2 1.6-1.1.2.6-.9 1.2-1 1.7-.2 1.2 1.9-1.1 4.4-6.5 3.6-7.9-.4-.7-.3-.9.1-.4 1.1.9 4.6-4.3 3.8-5.6-.3-.6-.2-.7.4-.4 1 .6 4.9-2.8 5.5-4.8.2-.5 1.1-.8 2.2-.7 1.1.2 1.6-.1 1.1-.7-.3-.6 0-1.4.9-1.7.8-.3 1.7-1.2 2-2 .3-.9.1-1.2-.4-.9-1.8 1.1-1-.1 1.7-2.6 1.4-1.3 2.2-1.7 1.8-.9-.5.8.7.3 2.6-1.1 1.9-1.5 3.5-3.6 3.5-4.9.1-1.2 1-2.9 2-3.8 1.7-1.6 1.7-1.6.3.3-1.3 1.8-1.3 1.9.3.6 1-.7 1.6-1.6 1.4-2-.6-.9.3-2.2 2.8-4.1 1.4-1.1 1.8-1.1 1.2-.2-.7 1.1-.4 1.2 1 .4 2.5-1.3 12.9-12.4 12.6-13.5-.1-.4.1-.6.5-.6 1.9.3 3.4-.2 2.9-.9-.2-.4.4-1.4 1.6-2.1 1.6-1 1.9-1 1.3.1-.4.7.4 0 1.8-1.7 1.4-1.6 3.3-3 4.3-3 1.1 0 1.8-.6 1.6-1.3-.1-.8.2-1.1.7-.8.5.4 1.6-.1 2.5-.9.8-.9 1.8-1.6 2.1-1.5 2.6.1 3.5-.2 3-1-.4-.6-.3-1 .2-.9 2.2.4 4.3-.2 3.8-1.1-.6-1 2-1.5 5.8-1.2 1.1.1 1.5-.2 1.1-.9-.4-.7-.1-1 .7-.7 1.8.7 5.1-1 4.4-2.3-.4-.5-.3-.9.2-1 3.3-.3 6.8-.9 8.2-1.5 2.8-1.2 4.5-1.5 8.6-1.5 2.2 0 5.6-.4 7.5-.8 5.1-1.3 10.8-1.3 11.6 0zm-156.2 169c2-.3 2.6 0 2.1 1-.4.6 0 .9 1.1.7 1.1-.2 1.8.2 1.7.9-.2.7 1.2 2.2 2.9 3.4 1.9 1.4 2.9 1.7 2.4.8-.5-.9-.3-.9.6.2.7.9 1.9 1.4 2.7 1.1.8-.3 1.1 0 .7.7-.4.6-.1 1.1.6 1.1.8 0 2.9 1.1 4.8 2.5s4 2.3 4.8 2c.8-.3 1 0 .6.7-.5.8-.2.9 1 .5 1.1-.5 1.5-.3 1 .5s-.2.9 1 .5c1-.4 1.5-.3 1.1.3-.6 1 1.5 1.4 4.4 1.1.7-.2 1 .2.6.8-.3.7.1 1 1.2.9 3.5-.3 5.4.2 4.8 1.2-.5.9 2.1 1.4 6.3 1.3.6-.1 1.2.3 1.2.7 0 .4.7 1.1 1.6 1.4.8.3 1.3.2 1-.3-.4-.5.3-.7 1.4-.4 1.1.3 2 .8 2 1.2 0 .4 2.8.8 6.2.9 3.4.2 6.5.7 6.9 1.3.3.6 1.2 1 2 .9 2.9-.5 4.6.1 6.7 2 1.2 1.1 2.4 2 2.7 2 2.9-.1 3.5.1 2.9 1.2-.4.6-.3.8.3.5 1.8-1.1 16.5 2.4 22.1 5.2 4.8 2.4 34.5 3.7 59 2.7 1.2-.1 2.2-.5 2.2-1s1.3-.6 2.8-.3c1.6.3 4.1 0 5.6-.9 1.6-.8 3.9-1.4 5.2-1.4 1.3 0 2.4-.4 2.4-.9 0-.6 2.9-1 6.5-1 4.4 0 7-.5 8-1.4.8-.9 2.4-1.3 3.5-1 1.2.3 2 0 2-.7s.7-1 1.5-.6c.8.3 1.5.1 1.5-.5s.5-.7 1-.4c.6.3 1 .1 1-.4 0-.6.3-1 .8-1 1.9.3 4.5-.2 3.9-.7-.7-.7 4.6-5.4 6-5.4.6 0 1.8-.9 2.8-2 1-1.1 2.4-2 3.1-2 .7 0 2.1-1.1 3.1-2.4 2-2.5 8.2-6.1 9-5.2.9.9-1.9 12.6-2.8 12-.5-.3-.9 2.7-.9 6.5 0 4.3.4 7.1 1.1 7.1.6 0 .9 2.7.8 7.1-.1 4.9.2 7.3 1.1 7.9.7.4 1 1.5.7 2.4-.8 2.1.2 4.8 1.6 3.9.5-.3.7-.1.4.5-1 1.5.3 4.3 1.6 3.5.5-.3.7-.1.3.5-.9 1.4 1.2 6.5 2.4 5.7.6-.4.7.1.3 1.1-.3 1-.2 1.5.3 1.2.5-.4 1 .5 1 1.9.1 1.3 1 3.1 2 3.9 1.1.9 1.3 1.2.5.9-.9-.5-.8.1.4 1.9 1.6 2.4 3.4 3.9 2 1.6-.3-.6-.4-1-.1-1 .3 0 1.2 1.3 2 2.9 1.3 2.5 1.3 3.1.2 4.1-.8.6-2.3 1.2-3.5 1.3-1.1 0-1.8.4-1.5.8.4.7-2.1 2.1-4.1 2.3-2.1.2-5.5 2.7-5 3.7.4.5.1.8-.6.7-.7-.2-1.3.3-1.4 1.1 0 .8-.8 1.5-1.8 1.7-1 .1-3.5 1.7-5.6 3.6-2 1.8-5.4 4.6-7.4 6.2-1.9 1.7-3.3 3.4-3 3.9.3.6.1.7-.5.3-1.3-.8-10.4 7.2-9.6 8.5.2.5-1.3 2.8-3.4 5.1-2.2 2.4-5.3 6.5-6.9 9.2l-3 4.8-.6-10.8c-.3-6-.6-13.6-.7-16.9-.1-6.5-1.2-10.8-4.1-17-1-2.2-1.9-4.7-1.9-5.6 0-.9-.7-1.9-1.5-2.3-.8-.3-1.2-1.2-.9-2.1.8-2-17.4-20.8-19.4-20-.7.2-1 .1-.7-.5.3-.5-.4-1.4-1.6-2-1.5-.8-1.9-.8-1.5-.1.5.7.1.9-.8.5-.9-.3-1.3-1-1-1.5.5-.8-1.2-1.3-4.3-1.2-.7.1-1.1-.3-.8-.7.7-1.1-2.4-2.2-3.7-1.3-.7.3-.8.1-.4-.5.4-.7.1-1.2-.7-1.2-.8 0-2.8-.7-4.3-1.5-1.6-.8-4.7-1.5-6.9-1.4-2.2 0-5.6-.4-7.5-1.1-1.9-.6-7.5-1.5-12.5-2.1-4.9-.5-11.2-1.2-13.9-1.6-3.6-.4-4.7-.3-4.2.6.5.8-.5 1-3.8.8-5-.5-9.8.2-9.2 1.2.2.3-1.8.7-4.5.9-3.3.2-6.5 1.3-10.3 3.6-3.1 1.8-5.3 3.6-5 3.9.3.3-.1.5-.8.4-3.3-.1-4.9.4-4.3 1.4.4.6.1 1-.6.8-3.1-.4-4.9.2-7.1 2.3-1.6 1.6-1.7 1.8-.3.8 2-1.5 2-1.5.1.7-1 1.3-2.2 2-2.7 1.7-1.1-.6-8.9 6.5-8.6 7.9.1.7-.5 1.1-1.3 1-.9-.2-3.8 2.1-6.5 5l-5 5.2 4.5-4 4.5-4-4.9 5.2c-4 4.3-5.3 5-6.7 4.2-2.2-1.1-4.1-4.4-3.2-5.3.3-.3.1-.6-.6-.6-.8 0-1.1-.7-.7-1.5.3-.8.1-1.5-.4-1.5s-1.4-1-2.1-2.1c-.7-1.5-.8-1.9 0-1.5.7.5.9.1.5-.8-.3-.9-1-1.6-1.5-1.6-.4 0-.6-.6-.3-1.4.3-.8-.3-1.9-1.5-2.5-1.1-.6-1.8-1.7-1.5-2.4.4-1.1-2.1-5.1-6.6-10.5-.6-.7-.9-1.6-.5-2.1.3-.5 0-1.5-.7-2.3-.7-.7-1.3-1.9-1.4-2.6-.1-.6-.2-2.4-.2-3.8-.1-1.5-.6-2.3-1.3-1.9-.6.4-1 .1-.8-.6.4-3.2-.2-7-1-6.5-.4.3-.9-2-1-5.1-.1-4-.6-6-1.8-7-1.2-1-1.3-1.2-.3-.8 1 .4.9.2-.2-.8-2.1-1.7-2.6-12.7-.7-12.7.8 0 1-2.3.7-7-.2-3.8-.1-6.4.3-5.9.3.6.9 1 1.3 1zm291 10.5c2 .8 2 4.9.1 12.9-.8 3.3-1.5 9.9-1.5 14.6 0 8.6-2.4 22.3-4.3 24.6-1.5 2-4.6 1.5-7.1-1.2-6.3-6.8-7.4-26-2.1-36.7 2.5-4.8 10.9-14.8 12.6-14.8.4 0 1.4.3 2.3.6zm92 68.3c.4.5 4.6 1 9.4 1.1 10.6.2 13.5.5 14.8 1.2.5.3 4.7.6 9.4.7 4.6.1 8.7.5 9 .9.3.4 3.7.8 7.5.9 6.7.3 14.5 2.6 14.5 4.5 0 .5-2.7 2.6-6.1 4.8-4.8 3.1-6.7 3.8-9 3.3-1.9-.3-2.9-.1-2.9.6s-.4 1-.8.7c-1.4-.8-8.3 1.4-7.7 2.4.4.6-.1.7-1.1.3-1.1-.4-1.5-.2-1.1.4.4.6.1 1.1-.6 1-4.5-.1-7.7.4-7.2 1.3.6 1-1.5 1.4-4.4 1.1-.7-.2-1 .2-.6.8.6 1.1-.6 1.5-3.9 1.1-1-.1-1.5.3-1.2.8.3.5-.3 1.2-1.4 1.5-1.1.3-1.8.1-1.4-.4.3-.5-.2-.6-1-.3-.9.3-1.6 1-1.6 1.4 0 .4-.6.8-1.2.7-3.2-.1-4.9.4-4.4 1.2.3.5-.1 1.2-1 1.5-.8.3-1.2.2-.9-.3.3-.5-.8-.3-2.5.5-1.7.9-2.7 2-2.4 2.6.4.6.2.8-.4.5-1.5-1-4.3.3-3.5 1.6.4.6.1.7-.7.2-.8-.5-1.8-.1-2.6 1-.9 1.2-2.6 1.8-5.4 1.8-2.2 0-4 .3-4 .7 0 .4-1.3.7-3 .8-1.6 0-4.2.7-5.7 1.4-2.7 1.3-2.8 1.7-3.1 9.6-.2 5.5.1 8.2.8 8.2.6 0 1 .8.8 1.8-.4 2.7 3.9 9.3 5.9 9 1.2-.2 1.8.4 1.8 1.7 0 1.6.9 2.1 4 2.6 2.2.4 5.5 1 7.4 1.4 2.3.6 3.2.5 2.8-.2-.8-1.3 2-2.6 3.5-1.6.6.3.8.2.5-.4-.7-1.1 7.7-3.5 12.8-3.6 2.6-.1 4.3.7 6.5 2.8 1.7 1.6 2.8 3.5 2.5 4.3-.2.7 0 1 .5.7.6-.3 1-.3 1.1.2.3 4.4 1.1 6.9 2.9 9.8 1.7 2.8 2.1 4.8 1.9 10.7-.1 4-.5 7.5-1 7.8-.4.3-.9 3.7-1 7.7-.2 3.9-.6 7-1 6.7-1-.6-2 2.6-1.2 3.8.3.7.1.8-.5.4-1.1-.7-1.7 1.1-1.3 4.1.1.7-.6 2.4-1.4 3.7-.9 1.4-1.3 3.1-.9 3.7.4.7.3.9-.4.5-.6-.3-1.6.3-2.2 1.5-.9 1.7-.9 2 0 1.4.7-.4.5.4-.5 1.8-1.9 2.9-6.5 6.3-8.1 5.9-.6-.1-1.9.8-3 2-1.9 2.2-1.9 2.3.1.8 1.9-1.4 1.9-1.4.6.3-.8 1-2.2 1.6-3.3 1.4-1-.3-1.8-.1-1.8.5 0 .5-.5.6-1 .3-.6-.4-1-.3-.9.2.4 2.1-.3 3.3-2.2 4.4-1.7.8-2 .8-1.4-.1.4-.7-.4-.4-1.9.5-2.5 1.7-3.8 3.4-1.4 1.9.6-.4.8-.3.5.4-.4.5-1.7.8-2.9.4-1.3-.3-1.9-.1-1.5.5.4.6.1 1.1-.6 1-3.2-.1-4.8.4-4.2 1.3.3.5.3 1-.2 1.1-10.4.6-41.4.2-42.3-.7-.7-.7-1.1-9.2-1-25.8 0-16.3-.3-24.5-1-24.1-.6.4-1-1-1-3.5 0-2.6.4-3.9 1-3.5.7.5 1-3.9.9-13.3-.1-8.1.3-14.7.9-15.8.6-1.1 1.1-5.3 1.1-9.4 0-4.4.5-7.6 1.1-8 .7-.4 1.2-3 1.2-5.9-.1-2.9.4-5.1 1-5.1.5 0 .8-.7.4-1.5-.7-2 .3-4.7 1.6-3.9.6.4.9-.6.8-2.2-.3-4.8 0-6.5 1-5.9 1 .6 1.4-1.5 1.1-4.4-.2-.7.2-1 .8-.6.7.4 1.2-.7 1.3-2.9.2-5.8.2-6 1.5-7.4.7-.7 1-1.9.7-2.7-.4-.8-.2-1.5.2-1.5.5 0 1-1.9 1.2-4.2.5-7.6 6.2-14.1 12.2-14.1 1.6 0 3-.4 3-.9 0-1.1 28.7-1 29.4.1zm80.1 11.7c3.6.9 6.5 2 6.5 2.5s.8.8 1.8.6c.9-.1 1.8.2 1.9.7.3 1.5 5.7 4.6 7.1 4.1.7-.3 1 0 .7.5-.5.9 1.6 1.5 3.8 1.1.5-.1.5.4.1 1-.5.9-.2 1 .9.6 1-.4 1.6-.2 1.4.6-.1.7.6 1.2 1.5 1.2s2 .4 2.5.9.2.6-.7.2c-.8-.4-.6 0 .5.8 1.1.9 2.5 1.4 3.2 1.2.7-.3 1.8.4 2.4 1.5.6 1.2 1.7 1.8 2.5 1.5.7-.3 1.8.3 2.3 1.2.6.9 1.1 1.3 1.1.8 0-.6.7-.1 1.6 1 .8 1 1.2 1.3.9.6-.6-1.1-.3-1.2 1.4-.2 1.2.6 1.9 1.6 1.5 2.1-.3.6 0 1 .7.8 2.6-.3 4 .1 3.5 1-.7 1.1 1.8 3.3 3.5 2.9.7-.2 1.3.4 1.4 1.2 0 .8.9 1.5 2 1.5 1.1.1 1.9.6 1.8 1.2-.2.7 1.2 2.2 2.9 3.4 1.7 1.3 2.8 1.8 2.4 1.1-.5-.8-.2-1 .8-.6.9.3 1.4.9 1.3 1.4-.3 1.1 7.3 7.1 8.3 6.5.4-.2 2 1 3.6 2.8l2.9 3.2-3.5-3-3.5-3 2.9 3.2c1.5 1.7 3.4 2.9 4.1 2.7.7-.3 1.6 0 2.1.7.5.8.3 1-.6.4-.9-.5-1.1-.4-.6.4.4.6 1.2.9 1.8.5 1-.7 6.3 3.9 8 7 .8 1.4.7 1.7-.4 1.1-.7-.4.2.5 2 2 3.2 2.7 6.6 7.5 4.2 6-2.4-1.5 1 3.5 3.5 5.1 1.4.9 2.3 2 2 2.4-.3.4.3 1.6 1.3 2.7.9 1 1.3 1.2.7.3-.9-1.3-.8-1.3.8-.1.9.8 1.5 1.6 1.3 1.9-1 .9 1.5 4.3 2.6 3.6.6-.4.8-.3.5.4-1 1.5.3 4.3 1.6 3.5.6-.4.7-.1.2.7-.5.8.1 2 1.6 3.2 1.3 1.1 1.8 1.7 1.2 1.3-.9-.4-1.1-.1-.7.9.3.9 1 1.3 1.5 1 1-.6 1.2.6.9 5-.1 1.5.2 2.6.7 2.3.5-.3.9.2 1 1.1.1 2.3 2.8 9.3 3.4 8.8.2-.2.5.7.6 2.1 0 1.4.5 2.8 1 3.2.8.6.9.9 1.2 5.7 0 1.4.5 2.2 1.1 1.9.5-.3.9.2.8 1.2-.4 5.3.3 13.4 1.2 12.8.7-.4 1 7.8 1 24s-.3 24.4-1 24c-.9-.5-1.5 3.9-1.3 9.2.1.7-.3 1-.8.7-.7-.4-1.4 5.8-1.2 11.3.1.7-.3 1-.8.7-.8-.5-1.4 3.4-1.1 7.6 0 .8-.4 1.8-1 2.1-.5.4-1 2.2-1.1 4.2 0 2-.5 3.4-.9 3.1-.7-.5-1.2 2.6-1.1 6.3.1.7-.3 1.1-.7.8-1.4-.8-8.3 8.3-7.4 9.7.4.7.3 1-.1.5-1-.9-9.7 7.2-8.9 8.4.2.4-.1 1.1-.7 1.5-.8.5-1 .2-.5-.7.4-.8.2-.7-.6.2-1.3 1.6-5.6 3.5-7 3.1-.5-.1-.8.3-.8.9 0 .5-.4.8-.8.5-1.1-.7-3.7 1.1-3.7 2.6 0 .7-.8 1.2-1.8 1-.9-.2-1.7.2-1.7.8 0 .6-1 1-2.2.8-1.5-.2-2.2.2-2 1 .4 2.3-1.6 4.8-6.8 8-2.8 1.8-4.8 2.7-4.4 2.1.3-.6-.3-.5-1.4.2-1.2.7-1.9 1.6-1.6 2 .2.4-.2.7-.9.6-3.3-.1-4.8.4-4.1 1.4.4.7 0 .9-1.3.5-1.2-.4-2.8.1-4.3 1.4-2.5 2.2-3.5 2.6-2.5 1 .3-.6-.1-.7-.9-.4-.9.3-1.3 1-1 1.5.3.5-.3.8-1.3.7-4.1-.3-8.4.3-7.9 1.1.3.5 0 .9-.7.8-5.3-.2-9.7.4-9.2 1.3.6 1-2.3 1.4-7.7 1-1.6-.1-2.8.3-2.8.9 0 .7-3 1.1-8 1.1-4.4 0-8-.4-8-.8 0-.5-3.9-1-8.7-1.1-11.5-.4-12.6-.5-14.2-1.5-.7-.5-3.5-.8-6.2-.7-2.7 0-4.9-.4-4.9-.9 0-.6-1.1-1-2.5-1s-4.8-1.2-7.6-2.6c-2.8-1.4-5.3-2.3-5.6-2-.3.3-1.2-.2-2-1s-2-1.1-2.6-.7c-.7.3-.9.3-.5-.2 1.7-1.8-10.4-8.4-14.1-7.6-.7.1-1-.2-.7-.7.3-.5-1.3-1.9-3.6-3.2-2.3-1.3-3.8-1.8-3.4-1.1.6.8.1.8-1.8 0-1.4-.7-2.3-1.6-2-2 .3-.5.2-.9-.3-.9-.4 0-3.4-2.3-6.6-5-3.2-2.8-6.2-4.8-6.6-4.6-1.1.7-12.4-11-12.7-13-.3-2.1-4.5-6.5-5.5-5.8-.5.3-.6-.1-.3-.9s-.3-2.1-1.4-2.8c-1.9-1.4-2.2-1.9-2.2-4 0-.5-.5-.7-1.2-.3-.8.5-.9.2-.5-.9.4-1 .2-1.6-.6-1.4-.7.1-1.1-.6-1-1.7 0-1-1.1-2.5-2.8-3.5-1.6-.9-2.7-2.2-2.4-2.9.3-.7 0-1-.5-.7-.6.4-1-.7-1-2.4 0-3 3-5.8 4.9-4.6.5.3 1.1.1 1.3-.5.2-.6 2.2-1.1 4.5-1.3 2.4-.1 4.3-.5 4.3-.8 0-.4.6-.7 1.3-.6 3.9.1 5.8-.4 5.1-1.5-.4-.6-.3-.8.4-.5 1.5 1 4.3-.3 3.5-1.6-.3-.5-.1-.7.5-.3.6.3 1.7 0 2.5-.8s1.7-1.3 2-1c.8.8 6.7-2.8 6.2-3.7-.3-.4.2-1 1.1-1.3 1-.4 1.3-.2.8.7-.4.6.3.2 1.5-1s2.8-2 3.6-1.7c.8.4 1.5.1 1.5-.6 0-.6.4-.8 1-.5.5.3 2.7-.6 4.7-2 2.1-1.4 4.3-2.5 4.9-2.5.7 0 1.4-.7 1.8-1.5.3-.9 1.2-1.2 2.2-.8 1.1.4 1.5.2 1.1-.4-.7-1.2 2-2.6 3.2-1.8.5.2 1.9-.8 3.2-2.3l2.4-2.7-3 2.5c-1.6 1.4-2.3 1.7-1.6.7 1.8-2.2 7.8-6.6 6.7-4.8-.7 1-.4 1.1 1.3.2 1.1-.7 2.1-1.4 2.1-1.7 0-.3-.4-.2-1 .1-2.4 1.5-.7-.4 1.8-2.1 2.6-1.7 2.7-1.7 1.2.2-1.4 1.8-1.4 1.8.3.5.9-.7 1.7-1.8 1.7-2.3 0-1.3 6.6-7.1 8.4-7.4 3.7-.5 10.7-8 9-9.6-.2-.3 1.5-2.3 4-4.6 2.4-2.2 4.1-4.3 3.8-4.6-.3-.3-.1-.6.5-.6s1.4-.7 1.7-1.6c.3-.8.2-1.2-.4-.9-1.8 1.1-1.1-.4 1.3-2.6 1.2-1.2 1.6-1.9 1-1.5-.9.5-1.1.2-.7-.8.3-.9 1-1.3 1.5-1 .9.5 1.3-2.3.9-5.9-.1-1 .7-2.5 1.7-3.4 1-.8 1.2-1.2.6-.8-1.7.8-1.6 0 .2-1.8.9-.9 1.6-3.8 1.7-7 .1-3.1.6-5.3 1-5.1.4.3.8-9.4.8-21.5 0-14-.4-22.1-1-22.3-.6-.2-1.1-2.1-1.2-4.3 0-2.2-.5-4.3-1.1-4.6-.5-.4-1-2.2-1.2-4-.2-1.9-.4-3.4-.5-3.4-.1 0-.4-.9-.6-2-.1-1.1-.6-2.9-.9-4-.9-2.9 3.3-6.5 8-6.9 2.3-.1 4.3-1 5.1-2.1 1.5-2.1 1.9-7.6.6-9.1-.5-.5-1.5-2.9-2.2-5.4-.8-2.5-1.7-4.7-2.1-5-1-.8-4.9-15.2-4.3-16.2.7-1 .4-1.1 7.9.8zM1331 679.1c0 .6 1.6 1 3.8.9 6.1-.3 7.4-.1 6.6 1.2-.4.7-.3.8.4.4 2.2-1.3 11.8 4.9 14.1 9.1 1.3 2.5 1.5 15.7.2 14.9-.5-.3-1.2.1-1.5 1-.4 1-.2 1.3.7.9.6-.4.1.2-1.2 1.3-1.4 1.1-2.6 2.7-2.7 3.7-.4 2.6-4.4 6.6-8.7 8.5-3.1 1.4-5.9 1.7-15.2 1.4-10.5-.4-11.8-.7-18-3.8-3.6-1.9-8.1-4.5-9.8-5.8-4.9-3.7-6.2-4.4-5.2-2.7.7 1.2.6 1.2-1.1 0-4.6-3.5-9.4-8.6-9.4-10.2 0-2.2 7.8-9.2 9.2-8.3.6.4.8.3.5-.3-.7-1.1 2-3.9 2.9-3 .3.2 1.7-.6 3-1.8 1.5-1.4 3.2-2.1 4.1-1.8 1.1.4 1.4.2.9-.5-.5-.8-.1-1 1-.5 1 .3 1.5.2 1.2-.3-.4-.5.8-1 2.5-1.1 1.7-.1 3.3-.7 3.6-1.2.4-.5 1.3-.9 2.1-.9 4.4.3 8.1-.3 7.5-1.2-.4-.6 1.2-1 3.9-1 2.6 0 4.6.5 4.6 1.1zm165.9 25.5c1.1 1 .2 7.5-1.2 8.8-.9.9-1.2 2.5-.9 4.2.3 1.9.1 2.5-.7 2-1-.6-1.6 5.2-1.4 12.1.1.7-.2 1.3-.6 1.3-.4 0-.7 2.8-.7 6.2.1 8.9-.7 18.2-1.6 18.8-.4.3-.9 2.4-1 4.7-.2 2.3-.7 3.9-1.1 3.6-.5-.3-.8.8-.7 2.3.4 5.5 0 7.5-1.1 6.8-.9-.5-1 .6-.7 4l.6 4.6h-3.5c-1.9 0-3.2-.4-2.9-.9.3-.5-.1-1.2-1-1.5-.8-.3-1.2-.2-.9.4.3.6-.1.7-.9.4-.9-.3-1.3-1-1-1.5.5-.8-1-1.3-2.9-1-.5.1-.6-.3-.2-.8.3-.6-.4-1.5-1.5-2.1-1.1-.6-2-.8-2-.4 0 1.1-4-2.8-5.2-5-.7-1.4-.7-1.7.2-1.1.9.6.9.3.1-1.1-1.3-2.3-5.6-7.5-4.5-5.5.4.9.3 1.2-.4.8-.5-.4-.8-1.6-.5-2.6.3-1 0-2.2-.6-2.5-1.3-.8-1.5-20.6-.3-20.6.5 0 .9-1.4.9-3.1 0-1.7.5-3.4 1.3-3.9.7-.4 1.3-1.9 1.3-3.4 0-1.4.3-2.3.7-2.1.4.3 1.1-.2 1.4-1.1.4-.9.2-1.3-.5-.8-.8.4-.8 0 0-1.4.6-1.2 1.7-2.4 2.4-2.8.7-.5.6 0-.3 1.2-1.4 1.8-1.4 1.8.2.5 1-.7 1.5-1.8 1.2-2.3-.9-1.4 7.6-9 9.3-8.4.8.3 1.2.2.9-.2-.6-1 4.5-4.2 10.4-6.3 4-1.5 8.6-1.6 9.9-.3zm-93.9 38c0 .8-.5 4.7-1.2 8.5-.7 4.5-.8 7.3-.2 7.7.6.4 1.1 2.7 1.2 5.1 0 2.4.5 4.7.9 5 .8.6.9 1 1.2 6.2 0 1.6.4 2.8.9 2.6.4-.3.8 1.4 1 3.6.1 2.3.7 4.3 1.2 4.5.6.2 1 1.3 1 2.3 0 2.8 1.9 6.1 3 5.4.6-.3.7.1.4.9-.3.9 0 1.8.7 2.1.8.3 1.5 2 1.6 3.7.1 1.7 1 3.9 1.9 4.7 1.4 1.3 1.6 1.4.9.1-.5-.9-.4-1.2.1-.7s1 1.3 1 1.8c.1.5.2 1.4.3 2 0 .5.6.7 1.3.3.8-.5.9-.2.5 1-.5 1.2.6 3 3.6 6 3.3 3.3 3.6 3.4 1.2.6l-3-3.5 3.7 3.4c2 1.8 3.4 3.9 3.2 4.6-.6 1.6 4.4 5.7 5.9 4.8.6-.3.7-.1.3.5-.3.6.3 1.6 1.4 2.2 1.1.6 2 .7 2 .3 0-.4.6.1 1.3 1.2.9 1.1 1.9 1.5 2.7 1 .8-.5 1.1-.4.7.2-.8 1.3 2 2.6 3.5 1.6.6-.3.8-.1.5.4-.9 1.4 1.6 2.3 4.4 1.6 1.6-.5 2-.3 1.4.6-.5.9-.1 1.2 1.1 1.1 4.1-.5 6.5 0 5.8 1.1-.4.7 0 .9 1.4.5 1.2-.4 2.6-.1 3.5.9.9.8 2.8 1.6 4.4 1.7 3.9.2 6.5 2.6 5.7 5.2-.4 1.2-.7 3.3-.6 4.9 0 1.5-.3 2.5-.8 2.2-1.1-.7-2.2 2.4-1.3 3.7.3.7.1.8-.5.4-1.1-.6-1.7 1.3-1.3 3.7.1.5-.3.6-.8.3-1.3-.8-2.1 1.8-1.4 4.5.5 1.6.3 2-.6 1.4-.9-.5-1.2-.1-1.1 1.1.4 3.3 0 4.5-1.1 3.9-.6-.4-1-.1-.8.6.4 3.2-.1 5-1.3 4.3-.7-.5-.8-.3-.3.6.5.8-.1 2-1.6 3.2-1.3 1.1-1.8 1.7-1.1 1.3 1.1-.6 1.2-.3.3 1.4-.7 1.1-1.4 2.1-1.7 2.1-.3 0-.2-.5.1-1 .3-.6.4-1 .1-1-1.1 0-3.7 6.1-3 7.2.4.6.3.8-.4.5-1.1-.7-7.5 8.1-6.7 9.3.6 1-14.3 16.2-15.3 15.6-.5-.3-1.8.4-2.8 1.7l-1.9 2.2 2.5-2 2.5-2-1.9 2.2c-1 1.3-2.2 2.1-2.6 1.8-1.2-.7-5.1 2.6-4.4 3.8.4.7.4.9-.1.5-1.1-1-4.7 1.1-4 2.2.3.6 0 .7-.8.4-.8-.3-1.8 0-2.3.7-.5.8-.3 1 .6.4.8-.5 1.1-.4.6.3-.4.6-1.3.9-2.1.5-.8-.3-1.5 0-1.5.7 0 .6-.4.8-1 .5-1.1-.7-7.1 2.5-6.5 3.5.2.4-.9.7-2.5.8-1.7 0-3.7.8-4.6 1.7-.9.9-2.3 1.4-3 1.1-.8-.3-1.4-.2-1.4.2s-2.1.9-4.7 1c-2.6.1-4.9.5-5.2.9-.3.5-2.1.9-4 1-1.9.1-3.7.7-4 1.2-.4.5-1.3.9-2.1.9-4.1-.3-7.1.3-6.5 1.2.4.6-3.8 1-11.9 1-7.5 0-12.6-.4-12.6-1 0-.5-1.6-.9-3.6-.8-2 .1-3.9-.4-4.3-1-.4-.7-3.6-1.3-7.4-1.4-3.6-.1-6.4-.4-6.2-.7.1-.3-.8-.7-2.2-.8-1.4 0-2.8-.5-3.2-1.1-.3-.5-1.9-1-3.5-1-1.5 0-3.2-.5-3.6-1.2-.4-.6-1.9-1.3-3.3-1.3-1.4-.1-2.3-.5-2.1-.9.3-.4-.9-1.4-2.6-2.3-1.6-.8-3-1.2-3-.8 0 .4-.7-.2-1.6-1.3-.8-1-1.2-1.3-.9-.5.5.9-.1.8-1.9-.4-1.4-1-2.6-2.1-2.6-2.5 0-.4-.7-1.1-1.6-1.4-.9-.4-1.3-.2-.8.5.4.8 0 .8-1.4 0-1.2-.6-2.4-1.6-2.8-2.3-.5-.7-.3-.8.6-.3.9.5 1.1.4.6-.4-.4-.6-1.1-.9-1.6-.6-1.2.7-5.1-2.7-5.4-4.8-.1-1-.5-1.6-.8-1.5-1.1.5-5.7-4.5-5.1-5.5.3-.6.1-.7-.4-.4-1.2.8-3.6-1.7-3.9-4-.3-2.1-6.5-8.4-7.6-7.7-.5.3-.8.2-.7-.3.3-2-.2-3.3-1.3-3.1-.7.2-1.2-.5-1.2-1.4.1-1-.2-1.6-.6-1.3-1.1.7-2.2-2.4-1.3-3.7.3-.6.2-.8-.4-.5-.6.4-1.5-.5-2.2-1.9-.8-1.8-.8-2.3 0-1.8.8.4.8 0 0-1.5-.7-1.1-1.4-2.1-1.7-2.1-.3 0-.2.6.2 1.2.5.9.4 1-.4.3-1.8-1.8-5.3-8.7-4-8 .7.4.4-.1-.7-1-2.2-1.7-2.2-1.8-2.4-8.8 0-2.7-.5-4.6-.9-4.3-.4.2-.9-2.8-1.1-6.7-.1-4-.7-7.5-1.4-7.9-.6-.4-1-3.8-1-8.5.1-23.3.3-26.4 1.5-25.7.7.4.8.3.4-.4-.9-1.5.4-6.3 1.5-5.6.9.5 1.4-2.3 1.1-5.9-.1-1 .2-1.6.6-1.3.5.3.9-.9.9-2.5 0-1.7.5-3.4 1.2-3.8.7-.5 1.2-1.4 1.1-2.2-.4-2.7 0-4 1-3.4 1.1.7 1.3-.5 1-4.3-.1-1.2.4-2.2 1-2.2s1-.8.7-1.8c-.4-1.9 1.9-7.2 3.2-7.2.5 0 1.2-.7 1.5-1.6.4-1 .2-1.3-.6-.8-.7.4-.3-.8.8-2.7 2.8-4.7 8.1-5 8.8-.5.3 1.9 7 8.5 8.9 8.7.6.1 1.8.1 2.6 0 .7-.2 1 .2.6.8-.6 1 1 1.5 4.2 1.4.7-.1 1.1.2.9.6-.3.4.4 1.3 1.6 2 1.1.7 1.7.8 1.4.2-.4-.7-.1-.8.8-.5.9.3 1.3 1.1.9 1.7-.4.6-.1.7.7.2.7-.4 1.5-.2 2 .4.4.7 1.8 1.3 3.1 1.4 1.3 0 2.6.4 2.9.8.7.8 10.1 1.8 9.5 1-.2-.4.9-.5 2.5-.3 1.7.2 2.7.8 2.4 1.3-.3.5 6.9.9 16.5.9 11.8 0 17.1-.3 17.1-1.1 0-.6.7-.9 1.5-.5.8.3 1.5.1 1.5-.4s1-1.4 2.1-2.1c1.5-.7 1.9-.8 1.5 0-.5.7-.1.9.8.5.9-.3 1.3-1.1.9-1.7-.4-.7.5-.8 2.6-.4 1.8.4 3 .3 2.7-.2-.3-.5.2-.8 1.1-.7 1 0 1.8-.6 1.8-1.4 0-.8.7-1.5 1.5-1.5 2.9-.1 6-1.6 5.4-2.7-.4-.6-.2-.8.3-.5 1.5.9 6.5-3.2 5.6-4.6-.3-.7-.3-.9.2-.5.4.4 1.9.1 3.4-.7 3.3-1.7 13.2-11.7 13.4-13.6.2-.8 1.7-3.5 3.5-6.2 3.3-4.6 6.2-6.2 6.2-3.1zM1509.5 935c-.3.6.1.7.9.4.9-.3 1.6-.2 1.6.3 0 1.3 6.9 4.5 8.1 3.7.5-.3.8 0 .7.7-.2.6 1 1.5 2.6 2 1.5.4 3.6 1.4 4.5 2.2.9.8 2.7 2 4 2.7 1.9 1 2.2.9 1.6-.1-.5-.6-.4-1 .1-.8.5.3 2.1 1.1 3.7 1.9 2 1 2.7 2.1 2.7 4.2 0 1.5-.4 2.8-.9 2.8s-.6 2-.3 4.5c.3 3.2.1 4.5-.8 4.5-.8 0-1.1 1-.8 2.9.2 1.7.1 2.8-.3 2.5-.5-.3-.6 2.5-.2 6 .3 4 .2 7.1-.5 7.8-.6.8-.8 4.8-.4 10.8.4 5.2.6 12.5.6 16.2-.1 3.7.2 6.5.6 6.3.4-.2.5.7.2 2.2-.3 1.7-.1 2.4.6 1.9.6-.4.8.2.4 1.6-.4 1.5-.2 1.9.7 1.3 1-.5 1.1-.2.6 1.4-.4 1.3-.2 2.1.5 2.1s.9.8.5 2.1c-.5 1.6-.4 1.9.5 1.4 1-.6 1.1-.1.6 1.9-.4 1.8-.3 2.5.4 2.1.6-.3 1 .3 1 1.5s-.4 1.9-.9 1.6c-.5-.3-.8.2-.7 1.2.1 1.3-.5 1.6-2.4 1.4-1.4-.1-2.6-.7-2.8-1.2-.5-1.3-3.2-1.3-3.2.1 0 .5-.4.8-.9.5-1.1-.7-4.4 12.1-3.5 13.6.4.7.2.8-.4.4-1.2-.7-1.6.4-1.3 3.6.2 2-1.4 3.1-4.7 3.2-2.1.1-2.8 1-4.3 5.5-1 2.9-2.3 5.9-2.8 6.5-.5.6-1.2 2.5-1.6 4.3-.6 2.8-1.1 3.2-4.3 3.5-3.4.3-3.7.6-4 3.5-.2 1.8 0 3.3.5 3.3.4 0 .9 1.1.9 2.5.1 1.3.9 3.2 1.8 4 1.1 1.1 1.4 2.5 1 4.2-.4 1.6-.2 2.8.7 3.4 1.6 1 1 1.7-1.9 2.2-3.2.5-3.6 1.2-3.3 7 .2 4-.2 5.7-1.4 6.7-2.8 2.3-4.5-1.2-4.5-9.2 0-6.4-.1-6.8-2.9-8.2-1.6-.9-3-1.3-3.3-1.1-.2.2-.5-.6-.6-1.8-.2-3.5-4.1-22.8-4.8-23.8-.3-.5-2.3-.9-4.5-.9-2.4 0-3.8.4-3.4 1 1.1 1.7-2.2 1.1-3.6-.7-1.2-1.5-1.2-1.6.1-.8s1.3.7.1-1.1c-3.4-4.5-6.5-7.3-7.4-6.7-.6.3-.7.1-.3-.5.4-.7.2-1.2-.3-1.2-.6 0-1.1-.7-1.1-1.5s.5-1.5 1.1-1.5c.6 0 .8-.7.5-1.6-.3-.8-.2-1.3.3-1 1.2.8 2.2-2 1.4-4.1-.4-.9-.2-1.4.3-1.1.5.4.9-6 .9-15.7 0-9-.2-16.2-.5-16-.3.2-.4-6.4-.2-14.6.1-8.2-.1-14.9-.5-14.9-.5 0-.9-2-1-4.4-.1-2.4-.9-6.1-1.7-8.1-2.6-6.3-2.1-9 2.2-11.7 2-1.3 4.4-2.3 5.2-2.3.8-.1 1.4-.6 1.3-1.3-.2-.7 0-1.1.5-1.1 2 .3 3.3-.2 2.7-1.1-.4-.6-.3-1 .2-.9 2.1.4 3.4-.2 2.7-1.3-.4-.6-.3-.8.4-.4 1.3.8 13-9.3 19.7-17 2.7-3.2 4.3-5.4 3.6-4.9-1 .5-1.2.4-.7-.3.4-.7 1.6-1.2 2.7-1.2s1.7.4 1.4 1zm56.9 40.2c-.4.7-.3.8.5.4.6-.4 2.3 0 3.7.9 1.3.9 2.9 1.3 3.3 1 1.4-.8 4.2.6 3.4 1.8-.4.6-.1.7.7.2.8-.5 2 .1 3.2 1.6 1.1 1.3 1.7 1.8 1.3 1.2-.4-.9-.1-1.1.9-.7.9.3 1.4 1 1.1 1.4-.3.4.2 1.1 1.1 1.4.8.3 1.2.2.9-.4-.3-.6.1-.7.9-.4.9.3 1.4 1 1.1 1.4-.3.4.2 1.1 1.1 1.4.8.3 1.2.2.9-.4-.3-.6.1-.7.9-.4.9.3 1.4 1 1.1 1.4-.3.4.2 1.1 1.1 1.4.8.3 1.2.2.9-.4-.3-.6.1-.7.9-.4.9.3 1.3 1 1 1.5-.3.5.3 1 1.3 1 1 .1 2.5.3 3.3.4.8.1 2.1.3 2.8.4.7 0 1.1.5.8 1-.4.5.3.7 1.4.4 1.1-.3 2 0 2 .6s.9 1.1 2 1.1c1 0 2.9 1 4.1 2.2 1.2 1.3 1.8 1.6 1.4.8-.5-.9 0-.8 1.1.4 1.2 1.2 1.5 2 .7 2.3-.6.2-2.1 1.3-3.4 2.4-3 2.6-5.4 2.4-6.7-.6-1.6-3.6-4-3.1-8.9 1.7l-4.2 4.1-1.3-2.9c-1.5-3.3-2.6-4.4-5-4.4-2.3 0-8 5-7.4 6.6.3.7-.2 1.8-1 2.4-.8.7-1.4 1.6-1.4 2 0 .5-1.2 2.7-2.7 4.9-2.3 3.6-2.8 3.9-3.6 2.4-.5-1-2.3-3-4-4.5-2.5-2.3-3.1-3.6-3.4-7.5-.1-2.7-.4-6.4-.7-8.3-.8-6.8-1-21.6-.2-22.8.4-.7 1.4-1.2 2.2-1.2.9 0 1.2.5.8 1.2zm-122.7 20.1c1.2 19.7 1.3 38.8.2 38.2-.7-.5-.9-.1-.5 1.1.7 2.5-2.5 6.7-4.6 5.9-.8-.3-3-2.7-4.9-5.2-1.8-2.6-2.7-4.3-1.9-3.8.8.5.4-.6-.9-2.3-1.8-2.7-2.9-3.2-6.1-3.2-2.8 0-4.3.6-5.4 2.1-1.5 2.2-4.1 1.7-3.2-.7.3-.7 0-1.6-.6-2-.7-.4-.8-.3-.4.4s.5 1.2.2 1.2-1-1-1.7-2.1c-.9-1.7-.8-2 .3-1.4.7.4.2-.3-1.2-1.6s-2.1-2.2-1.5-1.9c.6.3 0-.5-1.3-1.6-1.5-1.4-2.2-2.7-1.7-3.4.5-.8.4-1.1-.3-.6-.6.3-1.4-.3-1.7-1.5-.9-2.7 1.3-5 5-5.5 1.5-.1 3.3-.8 3.9-1.5.8-.9.8-1-.3-.4-1 .5-1.2.4-.7-.4.4-.6 1.1-.9 1.6-.6 1.3.8 7.1-3 6.2-4-.4-.5-.2-.5.5-.2 1.4.9 4.5-.2 3.8-1.3-.7-1.1 2.4-2.2 3.7-1.3.7.3.8.1.4-.5-.8-1.3 3-3.6 4.4-2.7.6.4.9.2.8-.4-.4-1.6 5.5-5 6.7-4 .5.5 1.1 2.9 1.2 5.2zm251.7-4.7c1.2 3.1.6 7-1.7 10.4-3.5 5.2-6.3 11.5-9.5 21.5-2.7 8.3-3.3 9.3-7.7 12.4-3.4 2.5-4.9 3.1-5.4 2.2-1.8-2.9 4.2-22.8 9-30 1.9-3 2.9-5.7 2.9-8.2 0-3.4.4-4 3.5-5.4 1.9-.9 3.9-2.3 4.6-3.1 1.5-1.9 3.5-1.8 4.3.2zm28.5 6c-.7 1.5-2 2.9-2.9 3.2-1.5.6-6.9 6.2-14.1 14.7-5.4 6.4-6.3 6.8-5.6 1.9l.5-3.9-2.3 4.9c-1.5 3-3.5 5.6-5.2 6.4-1.5.8-3.8 2.4-5 3.5-2.1 1.9-2.3 1.9-2.9.2-.5-1.1 0-3.1.9-4.7.9-1.7 1.7-3.5 1.7-4.2 0-2.4 5.8-14.1 7.6-15.6 1.1-.9 2.8-1.5 3.9-1.5 1.7 0 1.9.6 1.7 3.2-.4 3.8.5 5.6 2.1 4.6.7-.4 1.8-.8 2.5-.9 3-.5 4.2-1.4 4.2-3.2 0-2.6 12-13.6 13.3-12.3.7.7.6 1.9-.4 3.7zm-101 8.6c-.7 9.8 1.2 11.4 5.8 4.6 1.5-2.3 3.3-4.3 3.9-4.5 1.8-.6 2.4 8.7.7 11.3-.8 1.2-3.9 9.3-6.9 18.1-5.2 14.9-5.5 16.4-5.8 26.7l-.3 11-3.8 3.3c-6.5 5.6-7.4 4.5-5.5-7.3.5-3.3 1.2-11.4 1.5-18 .5-14.3 1.4-24.6 2-25.3.3-.2-.1-1.1-.7-1.9-1.5-1.8-1.1-8.8.8-12.3 1.8-3.6 6.3-8.9 7.5-8.9.6 0 .9 1.5.8 3.2zm54.1-1.9c0 .8-1.3 3.4-3 5.8-1.6 2.4-3 5.3-3 6.4 0 1.1-.8 4.2-1.9 7-1 2.7-2.4 8.4-3.1 12.5-1 5.5-2 8.2-3.8 10.2-1.4 1.6-3 2.8-3.5 2.8s-2.3 1-4 2.2c-3.8 2.7-7.6 4.8-8.8 4.8-2 0-.7-8.6 2.7-17.2 2-5.1 4.6-11.8 5.7-14.8 1.2-3 2.5-5.9 2.9-6.5.4-.5.8-1.6.8-2.4 0-.8 1.7-3 3.9-5 3.4-3.2 4.2-3.5 6.6-2.6 2.5.9 3 .7 4.8-1.8 2.3-2.9 3.7-3.5 3.7-1.4zm-23.5 11.6c-1.3 2.5-3.9 7.7-5.9 11.6-1.9 3.8-3.6 7.7-3.6 8.6 0 .9-1 3.8-2.1 6.4-1.7 3.8-2 6.1-1.7 11l.5 6.2-6.2 4.6c-6.7 4.9-10 6-9.1 2.9.2-.9.7-5.3 1.1-9.7.4-4.8 2.1-12.4 4.2-19 2-6.1 4.1-12.9 4.7-15.3 1-3.5 2.7-5.6 9.6-11.6l8.4-7.3 1.3 3.5c1 3.1.9 4-1.2 8.1zm69.5-6.9c0 6.3 3.4 7.1 11.8 2.8 6.1-3.1 3.8 4.7-3.3 10.9-7.6 6.7-12.7 9.3-17.3 8.8-8.5-.8-10.1-2.2-5.7-5.1 1.4-.9 2.5-2.4 2.5-3.3.1-1.9 4.4-7.1 6-7.1.5 0 1 .7 1 1.5s-.9 1.5-2 1.5c-1.3 0-2 .7-2 2 0 2.6 1.1 2.5 4.4-.5 2.3-2.1 2.5-2.8 1.6-4.6-.9-1.6-.8-2.6.5-4.6.9-1.4 1.5-3.4 1.2-4.4-.3-1-.1-1.9.4-1.9s.9 1.8.9 4zm-390.2 1.7c1.1 1 3.7 5.1 5.8 9.1 5.4 10.6 9.4 12.1 9.4 3.6 0-4.9 2.7-14.4 4.1-14.4 1.2 0 8.1 4.1 10.7 6.3 1.2 1.1 2.2 2.8 2.2 3.8 0 5.7 2.9 6.4 6 1.4 1.2-1.9 3.9-4.8 6-6.5l3.9-3.1 5 7.7c2.8 4.1 5.6 9.1 6.3 11 .6 1.8 1.8 3.6 2.5 3.9 2.2.8 7-3.4 7.7-6.6.3-1.6.9-2.9 1.3-2.9 2.4.1 11.3 20 11.3 25 0 2.5 1.3 3.2 4.5 2.4 2.7-.7 5.5-4.9 5.5-8.4 0-5.2 6.3.9 9.1 8.7 1.2 3.6 3.3 4.2 6.5 1.8 2.8-2.1 3.8-1.9 5.7 1.8 1.3 2.4 1.7 4.4 1.2 6.9-.9 4.5 1.1 6 3.5 2.8 2-2.6 4-1.9 4 1.3 0 1.3 1.4 3.7 3 5.6 3 3.2 3.1 3.3 5.6 1.6 3.3-2.1 3.9-1.5 1.6 1.6-1.6 2-3.6 7.9-2.7 7.9.2 0 1.6-.7 3.1-1.5 4.3-2.2 4.9-1.9 6.1 2.8.9 3.1 2 4.7 3.8 5.5 1.5.7 3 1 3.5.7 1.4-.8 2.3 1.6 1.1 2.8-1.2 1.2.3 3.7 2.4 3.7 1.8 0 2.5 2.4 2.5 8.6 0 6.4 1.3 9.4 4 9.4 2.8 0 3.9 2.9 4.5 12.1.3 4.5.8 8.6 1.1 9.1.4.6 2.1.7 3.9.4 2.8-.6 3.5-.3 4 1.5.8 2.5-.1 9.4-2 16.1-1.5 5.1-.9 6.4 2.5 5.3 1.8-.6 2-.2 2 4.8 0 3-.7 7.1-1.5 9-2 4.8-1.9 9.3.1 10.1 1.3.5 1.5 1.5.9 5.4-.4 2.6-1.1 5.2-1.7 5.9-.5.7-1.4 2.8-1.8 4.8-1.1 4.7 1.5 8.4 4.7 6.7 4.3-2.4 5.4 2.3 2.8 13.1-.8 3.4-1.7 8.3-2 10.9-.8 6.5-2.7 7.8-5.3 3.6-1.1-1.8-2.2-4.5-2.6-6.1-.3-1.5-1.1-2.7-1.6-2.7-.6 0-2.1-2.4-3.4-5.4-1.3-2.9-2.9-5.6-3.5-6-.6-.4-2.4-2.7-4.1-5.1-2.5-3.7-2.9-4.8-2-6.5.9-1.6.8-2-.5-2-.8 0-1.5.4-1.5.8 0 .5-.6 1.7-1.4 2.7-1.4 1.9-1.6 1.8-5.5-2.5-2.2-2.5-4-5.5-4.1-6.8 0-1.4-.6-2.2-1.8-2.2-1.8 0-10.2-11.8-10.2-14.3 0-.8.9-2.4 2-3.7 1.1-1.3 2-3.5 2-4.9 0-1.4 1.1-4.9 2.3-7.6 1.3-2.8 3.2-7.5 4.2-10.5.9-3 2.4-6 3.2-6.7 1-.8 1.3-2.1 1-3.5-.4-1.2-.1-2.8.6-3.6 1.3-1.7 2.4-34.3 1.1-32.9-.4.4-.8 2.2-.9 4-.8 14-3.3 28.4-5.9 33.2-1.1 2.2-2.1 4.7-2.2 5.5-.2 3.9-1.7 10.8-2.9 13.5-.7 1.6-1.9 5.2-2.7 8-1.8 6.6-4.4 7.1-8.5 1.8-5.6-7.4-5.8-8.4-2.9-14.5 1.4-2.9 2.7-6.3 2.9-7.3 1.3-6.1 2.1-8.6 2.8-9.1.5-.3.9-1.4.9-2.5s.6-4.1 1.4-6.7c2.1-7.2 7-40.8 6.2-42.9-.7-1.7-.8-1.7-2.2.1-.8 1.1-1.4 2.9-1.4 4 0 1.2-.6 5-1.4 8.6-.8 3.6-2.2 10.8-3 16-2.3 14.8-6.2 32.2-8 35.5-.8 1.6-1.8 3.9-2.1 5l-.6 2-1.5-2c-.8-1.1-3.6-4.4-6.2-7.4-6.2-7.2-6.6-7.9-5.3-10.5 1.7-3.2 5.1-15.3 6.4-22.8.7-3.6 1.5-7 2-7.4.4-.4.7-2 .7-3.6 0-1.5.4-3.6.9-4.6.5-.9 1.4-2.8 2-4.2.6-1.4 1.5-3.2 2-4 .8-1.3 2.3-7.8 3.3-14 .2-.8-.1-1.6-.6-1.8-.5-.2-1.7 2.2-2.7 5.1-1.9 5.7-5.8 12.6-7.1 12.7-.5 0-.8-1.9-.9-4.3-.2-11.3-1.9-30.1-2.7-29.3-1.2 1.3-1.5 7.1-1.3 31.1l.3 25-3.2 9.7c-1.7 5.4-3.5 9.8-4 9.8-1.3 0-11-11.2-11-12.7 0-.7 1.6-5.9 3.5-11.5 3.8-11.2 4.4-16.2 2-17.2-1-.3-1.5-1.9-1.5-4.5 0-5-4.8-29.3-6.1-30.5-.5-.6-.9-1.8-.9-2.8 0-1.1-.5-1.5-1.4-1.2-1.1.4-1.3 2-.9 6.7.2 3.4.7 6.9 1 7.7.6 1.6.6 1.7 1.7 14 .4 4.7 1.2 9.6 1.7 11 1.1 2.8-2 20.3-4 22.3-.8.8-2 .1-4.6-2.7-1.9-2.1-3.5-4.1-3.5-4.5 0-.3-2-2.2-4.5-4.1-5.1-4-5.3-5.1-3.3-18.4 1.1-7.8 1-8.3-1.5-13.6-1.4-3-3-8.9-3.6-13-2.2-16.5-3.3-22.2-4.7-25.5-2.2-5.4-3.2-4.2-2.2 2.7 1.9 14 3.8 33.3 4.4 45.2.6 11 .5 12.6-.8 12.6-1.9 0-13.4-9.5-14.3-11.8-.4-1-.6-7.7-.5-15 .1-12.2-.7-17.5-3.1-22.3-.4-.9-1.1-3.4-1.4-5.5-.9-5.2-3.5-13.4-5.1-15.9-.7-1.1-1.7-3.9-2.3-6.1-1.3-5-3.7-7.5-4.7-5-.3.9-.2 2.9.4 4.4 2.5 6.5 10.2 40.2 10.5 45.7.2 4.6-.4 10.1-1.2 11.4-.8 1.2-1.6 1-4.8-1.2-2.1-1.4-5.8-4.4-8.2-6.6-3.8-3.4-4.3-4.2-3.7-6.7 1.6-6.8 2.2-12.4 2.2-19.9-.1-6.4-.4-8-1.6-8-1.5 0-2 1.7-3.9 14.5-1.6 10.3-2.7 11.8-5.5 7.8-1.2-1.6-1.6-4.7-1.6-11.5 0-6.1-.6-10.7-1.6-13.5-4-10.5-5.9-13.4-7-10.5-.3.9.1 2.8.9 4.4.8 1.5 2.3 7.3 3.2 12.8.9 5.5 1.9 11.2 2.2 12.7.3 1.8.1 2.8-.7 2.8-1.5 0-16.4-11.6-20.9-16.4-1.9-1.9-4.9-4-6.7-4.6-2.5-.9-3.3-1.8-3.7-4.3-.3-1.8-.9-4.4-1.2-6-.7-2.6-.6-2.7 2.9-2.7 2.7 0 4.4.7 6.4 2.7 1.5 1.5 3.3 2.6 4 2.5.7-.2 2.2.4 3.4 1.3 3.1 2.1 4.3 1.9 6.3-1.2 1.3-2 1.7-4.4 1.6-9-.2-5.6 0-6.3 1.7-6.3 1.1 0 2.9.8 4 1.7zm270.2 4.4c0 1.1 1.2 3 2.6 4.2 2.2 1.9 2.7 3.4 3.1 9 .4 4.4.2 7.1-.6 8.1-1.3 1.6-1.6 4.5-2.6 31.2l-.7 18.2-4.9 4.8c-2.7 2.6-5.1 4.6-5.3 4.3-.5-.5-.7-24.2-.2-33.9.2-3.6.4-10.6.4-15.5 0-5 .1-10.4.1-12.2.1-1.8 1-5.5 2.1-8.3 1.1-2.8 2-5.7 2-6.5 0-.7.4-2.6 1-4 1.1-2.9 3-2.5 3 .6zm-324.7 12.1c.4.9 1.1.7 2.5-1l2-2.2 4.6 2c2.6 1.1 5.7 3 6.9 4.2 1.2 1.3 3.1 2.2 4.2 2 1.2-.1 3.4 1 5.3 2.8 1.8 1.6 3.7 3 4.2 3 .4 0 1 .7 1.4 1.5.9 2.4-1.3 1.7-5.6-1.7-2.2-1.7-5.4-3.3-7.2-3.4-6.9-.5-14.6-3.4-23.1-8.7-1.1-.6-2.2-1.3-2.4-1.4-.2-.2.2-1 1-1.9 1.2-1.5 1.5-1.4 3.5.9 1.2 1.4 2.4 3.2 2.7 3.9zm290.2 2.3c2.5 5.9 8.5 7.3 8.5 1.9 0-4.4 2.1-2.2 5.2 5.6 2.7 6.7 3.2 9.4 4.3 26.2.7 10.2 1.6 19.2 2.1 19.9.4.8.9 3.4 1 5.9.2 2.5.5 5.8.8 7.5.4 2.3-.1 3.8-2.4 6.4l-2.8 3.3-3.3-2.2c-3.4-2.5-6.3-8.1-7.5-14.5-.3-2.2-1-4.7-1.5-5.6-1-2-2.8-12.8-3.4-21.3-.3-3.6-1-7.7-1.5-9.1-.6-1.5-.8-3.1-.5-3.6.3-.5-.5-2.8-1.9-5.2-2.9-4.8-3.5-11.7-1.4-16.2 1.5-3.4 2.6-3.2 4.3 1zm-290.8 2.6c7.2 3.3 15.2 8.6 19.7 13.1 1.7 1.5 3.5 2.8 4.2 2.8.6 0 3 2 5.3 4.5s4.4 4.4 4.7 4.4c.3-.1 1.9.8 3.5 2 2.3 1.7 2.8 2.8 2.6 5.4-.2 2.8.1 3.2 2.2 2.9 2.8-.3 7.1 2.3 7.1 4.2 0 2.6-7 4.1-19 4.1-9.6 0-11.5.3-11.5 1.5 0 1 1.3 1.7 4 2 2.7.4 3.9 1 3.7 1.9-.2 1 .3 1.2 2 .7 1.3-.4 5.2-1.1 8.8-1.5 3.6-.5 9.1-1.6 12.3-2.5 6.3-1.9 5.5-2.2 14.5 5.1 3.4 2.9 2.2 3.8-6.2 4.8-3.3.3-6.5 1-7.1 1.4-2.2 1.6-11.6 3.1-20.9 3.4l-9.8.2-5.9-6.3c-3.2-3.4-5.9-6.6-5.9-7 0-.4 1-1.2 2.3-1.7 1.6-.7 2.1-1.8 2-3.8-.1-1.5.2-2.7.8-2.7 1.6 0 1-1.5-1.3-2.9-1.9-1.2-2.3-1.1-3.4.4-1.2 1.7-1.4 1.7-2 .2-.3-1-1.4-1.7-2.4-1.7s-2.1-.7-2.4-1.6c-.9-2.4-.7-3.4.7-3.4.7 0 2.4-.8 3.7-1.7 2-1.5 4.3-1.7 12.5-1.5 8.7.2 9.8.1 8.3-1.1-1-.8-5.9-2-11-2.7-10.1-1.4-14.8-4.1-14.8-8.6 0-1.6-1.4-3-5.2-5.2-6.1-3.5-12.3-9.6-11.3-11.1 1.2-2.1 8.5-1.1 15.2 2zm436.8 4.5c3.9.3 9.4.2 12.3-.4 4.7-.8 5.2-.8 5.2.9 0 2.4-6.7 9.9-8.9 9.9-.9 0-2.7.7-3.9 1.6-1.8 1.2-2.9 1.3-5.5.5-10.2-3.4-13.1-4.1-16-4.2-4.4-.1-8-1.2-8.4-2.6-.3-.7 1.5-2.6 3.9-4.3 3.9-2.9 4.8-3.1 9.3-2.6 2.8.4 8.2.9 12 1.2zm-160.7 4.1c.6 1.6 1.3 4 1.6 5.5.4 1.7 1.8 3.4 3.7 4.3 1.8 1 2.9 2.2 2.5 3-1.3 3.5 5 39.2 8.2 46 .8 1.6 3.4 5 5.8 7.5l4.4 4.6-6.9 9.1c-3.7 5-7.8 10.8-9.1 12.8l-2.3 3.7-1.8-2.3c-.9-1.3-2-3.9-2.2-5.9-.5-3.6-3.5-16.8-5.7-25-.7-2.5-1.4-6.3-1.6-8.5-.2-2.2-1.3-9.6-2.6-16.5-2.8-15.8-3-28.8-.5-35 3.2-7.7 4.6-8.4 6.5-3.3zm135.7 6.9c2.2.8 5.8 1.8 8 2.3 2.2.5 7.7 1.9 12.3 3 7.5 2 8.4 2 11.2.6 5.3-2.7 7.9-1.5 6 2.7-.7 1.4-4.4 4-9.6 6.7l-8.5 4.5-7.2-1.2c-10.8-1.8-18-3.3-19.9-4.3-1-.5-3.2-.9-5-.9-1.8 0-4.4-.9-5.8-2l-2.5-1.9 2.5-2.6c3.7-4 10.2-8.3 12.5-8.4 1.1 0 3.8.7 6 1.5zm-363.5 9.1c3 2.1 7.1 5.4 9 7.3 3.7 3.7 8.6 7.6 15.4 12.4 2.3 1.5 5.9 4.6 8 6.8 2.1 2.2 4.4 4.1 5.1 4.2 1.4.2 10.8 7 15 10.8 1.7 1.5 6.9 6 11.6 10 4.7 4 10.7 9.8 13.4 12.8 2.6 3 7.1 7.8 9.9 10.5 2.8 2.8 6.3 6.6 7.7 8.5 1.5 1.9 3.7 4.6 5 6 3.6 3.7 12.1 14.9 17.6 23 2 3 4.3 6.1 5 6.8 2.4 2.4 8.6 12.3 8 12.8-.3.3-1.6-.7-3-2.3-1.4-1.5-5.2-6-8.6-9.8-3.4-3.9-10-12.2-14.7-18.5-4.7-6.3-10.5-14-12.9-17.1-6.6-8.4-29.4-31.2-34.7-34.7-2.5-1.8-4.8-3.5-5-4-.1-.4-2.8-2.5-5.8-4.6-3-2.2-6.9-5.2-8.6-6.8-1.7-1.6-4.5-3.6-6.2-4.6-7.1-3.8-15.1-10.3-26.6-21.5-6.6-6.4-11.6-11.7-11.1-11.7s3.5 1.7 6.5 3.7zm212.6 3.6c1.7 2.6 2.2 5 2.3 11.1.1 4.3.5 9.6 1.1 11.9 1.1 5 2.5 17.6 2.1 19.6-.1.8.2 2.4.8 3.5 1.6 3.1 7 20.2 8.2 25.6.6 2.6 1.9 5.7 3 6.8 2.2 2.5 2.3 2.7.7 4.4-.7.7-3 3.5-5.1 6.1-4.2 5.2-5.4 5.2-8.2-.3-1.9-3.6-7.6-20.6-8.5-25.5-.5-2.2-1.6-7.6-2.6-12-.9-4.4-1.9-11.6-2.1-15.9-.4-6.8-.2-8.3 1.6-10.7 1.8-2.4 2.1-4.3 2.1-12.2 0-9.6.7-15.7 1.9-15.7.3 0 1.6 1.5 2.7 3.3zm127.4 2.2c2.3 1.9 12.2 5.3 20.5 7 4.1.9 9.1 2.2 11.1 3.1 2 .8 4.4 1.2 5.3.8 3.8-1.5 14.1-2.8 14.1-1.7 0 2-3.8 12.3-5.4 14.8-1 1.5-3.1 3.1-4.7 3.7-1.6.5-2.9 1.4-2.9 1.9 0 1.3-7.8 3.1-10.3 2.3-2.2-.6-3.6-1.2-13.2-5.2-2.7-1.2-6.1-2.4-7.5-2.8-4.9-1.3-18.7-8.6-22.6-12-3.7-3.3-3.8-3.4-2-4.9 1.1-.8 3.2-2.6 4.8-4 1.5-1.4 3.2-2.5 3.7-2.5s1.4-.7 2.1-1.5c1.4-1.6 4.4-1.2 7 1zm-141.4 14.7c1.4 2.6 1.7 5.8 1.6 15.8-.2 12.2 1.1 22.3 4.5 35.5.8 3.3 1.9 7.8 2.3 10.1.5 2.2 2.1 6.3 3.6 9s3.6 6.6 4.6 8.6l2 3.8-2.9 4.6c-3.5 5.6-8.2 11.4-9.4 11.4-.5 0-1.8-3.3-2.9-7.3-1.2-3.9-3-10.1-4-13.7-1-3.6-2.8-9.9-4-14-1.2-4.1-2.5-8.5-3-9.7-.5-1.2-1.2-4.5-1.6-7.4-.6-4.7-.5-5.3 1.7-7 2.2-1.6 2.3-2 1.1-5.3-.7-2-1.6-6.6-1.9-10.4-.6-6.8-.5-6.9 2.6-9.1 2.8-2 3.1-2.7 2.5-5.7-.6-3.2.2-12.4 1.1-12.4.3 0 1.2 1.5 2.1 3.2zm121.5 1.7c4.7 4.1 28 17.9 31.4 18.6 1.1.2 6.3 1.1 11.5 2.1 5.2.9 10.3 2.3 11.2 3.2 1.6 1.3 1.5 1.7-1.4 5.3-3.2 4-5.2 5.1-10.2 5.3-2.3.1-3.2.8-3.9 3.1-.7 1.9-.7 3 0 3.2.6.2 1.9 1 2.9 1.7 1.5 1.2 1.6 1.6.5 3-.9 1.1-1.1 3-.6 6.2.6 4.3.4 4.9-2.6 8-1.8 1.9-4.1 3.4-5.1 3.4-1.1 0-3.8.9-6 2-5.7 2.7-9.3 2.5-15.7-1-3-1.7-5.8-3-6.2-3-.4 0-3.1-1.6-6.1-3.5-2.9-1.9-6.2-3.8-7.3-4.1-1.1-.4-3.1-1.5-4.4-2.5-1.3-1.1-3.4-1.9-4.6-1.9-1.2 0-2.8-.7-3.5-1.5-.7-.8-1.7-1.5-2.3-1.5-.6 0-4.1-2-7.8-4.5s-7.1-4.5-7.5-4.5c-1.6 0-5.4-4.4-5.4-6.2 0-2.3 8.9-10.8 11.3-10.8.9 0 4 1.6 6.8 3.5s5.6 3.5 6.2 3.5c.6 0 1.8.6 2.6 1.4.9.8 4.5 2.3 8.1 3.4 10.1 3.2 13.1 4.3 18.8 6.9 4.4 2 6.9 2.4 15.3 2.4 5.5.1 10.2-.1 10.4-.3.2-.2.1-1.5-.2-3.1-.5-2.6-.7-2.7-7.4-2.7-3.7 0-7.1-.5-7.4-1-.3-.6-1.7-1-3-1-2.2 0-19-6.1-22.5-8.1-.8-.5-3.1-1.7-5-2.7-1.9-.9-3.7-2-3.8-2.5-.5-.9-7.4-3.9-7.9-3.3-.2.2.8 1.3 2.3 2.5 2.9 2.3 2.8 3.9-.3 2.2-1-.5-3.3-1.6-5-2.3-4.4-1.7-4.3-4.6.2-7.6 1.8-1.3 6.5-5.3 10.2-8.8 3.7-3.5 7.3-6.4 7.9-6.4.6 0 3.1 1.7 5.5 3.9zm-293.1 11.6c.7.9 5.1 4.1 9.7 7.2 8.8 6 11 7.9 9.9 9-.4.4-5 1.5-10.4 2.4-5.3 1-12.2 2.7-15.2 3.8-3 1.1-7.5 2-10 2-4.8 0-14.7-1.9-16.7-3.2-.6-.4-4.7-1-9-1.3-11-.7-14.9-2.1-17.3-5.9-3-4.9-2.6-6.5 1.5-6.6 4.1-.2 11.7-.7 20-1.3 3.3-.3 7.7-.7 9.8-.8 2.1-.2 4.1-.9 4.6-1.6.4-.7 1.5-1 2.3-.7.9.4 1.9.1 2.3-.5.6-.9.9-.9 1.4-.1.5.8 2.5.4 6.7-1.4 7-2.9 8.7-3 10.4-1zm29.4 22.6c1.4 1.1 2.6 2.6 2.6 3.2 0 .6 1.2 2.3 2.6 3.8 2.4 2.6 2.5 2.8.8 3.7-1.1.5-4.2 1.2-7.1 1.6-2.8.4-6.8 1.3-8.8 2.2-4.4 1.8-18.9 4.5-27 5-9.9.5-19.8 1.4-23.3 2-1.8.4-3.8.2-4.5-.4-.6-.5-3.1-1.6-5.5-2.3-2.3-.7-4.7-1.8-5.3-2.6-.6-.7-1.9-1.3-2.8-1.3-.9-.1-3.1-1.4-4.9-2.9-3-2.6-3.2-3-1.7-3.9 1.4-.7 1.5-1.3.6-3-1.9-3.6-1.3-4.2 4.7-4.2 3.8 0 8 .8 12 2.4 8.5 3.3 20.5 5.9 24.5 5.3 6.2-1 11.2-2.4 13.2-3.5 1.1-.6 4.5-1.8 7.5-2.6s7.8-2.2 10.5-3c7-2 8.9-1.9 11.9.5zm221.4 6.4c10.9 8.1 13.1 9.4 20.7 13 4.4 2.1 9.3 4.8 10.8 6.1 1.6 1.3 3.3 2.4 3.7 2.4.5 0 2.9 1.3 5.2 3 4.1 2.8 14 5.6 15.9 4.4.5-.2 1.7 0 2.7.5 1 .5 4 1.1 6.6 1.2 2.6.2 5.5.8 6.4 1.5 1.6 1.1 1.5 1.4-.2 3.3-2.8 3-15.3 9.1-18.9 9.1-4.1 0-10.5-2-14.7-4.5-1.9-1.2-6.2-3.2-9.5-4.4-3.3-1.2-6.7-3.1-7.5-4.2-.9-1.1-2.7-2.1-4-2.3-1.4-.2-4.5-1.3-7-2.4-2.5-1.2-5.3-2.2-6.3-2.2-2 0-13-11.1-15.3-15.4-1.4-2.6-1.4-3 .4-5 1.1-1.1 2.2-3.3 2.6-4.9.8-3.6 2.7-3.4 8.4.8zm-91.3 8.7c.4 3.5 1.3 8.5 2.1 11.3.9 2.7 2.6 8.8 4 13.5 1.4 4.6 2.9 8.9 3.3 9.5.5.5 1.2 2.8 1.5 5 .4 2.2 1.6 6 2.7 8.4 1.1 2.6 1.6 4.8 1 5.5-.4.6-1.5 3.1-2.3 5.6-1.9 5.7-8.2 17.3-9.6 17.8-.6.2-1.4-1.4-1.8-3.5-.4-2.1-1.3-5.3-2.1-7.1-1.6-3.9-.3-7.2 2.7-7.2 2.4 0 2.4-.3.4-4.2-1.4-2.6-1.4-3.7-.4-6.8 1.1-3.4 1-4-.9-5.9-2.3-2.3-2.7-4.7-1-7.1.8-1.3 1.2-1.2 2.6.7 1.5 2.2 4.3 3.2 4.3 1.5 0-.4-1.9-5.9-4.1-12.2-4.9-13.7-7.1-31-3.9-31 .4 0 1.1 2.8 1.5 6.2zm-109.1 5.2c2.5 2.9 4.6 5.8 4.6 6.4 0 2-4.4 4.2-10.6 5.2-3.2.6-7 1.5-8.4 2-1.4.5-4.7 1.1-7.5 1.3-9.1.8-19.9 2.9-27 5.2-6 2-8.5 2.3-17.5 2-15.1-.6-20-1.3-26.1-3.8-6.3-2.6-13.4-7.7-12.2-8.8 1-1 15.4-3 16.5-2.3.5.3 1.5 0 2.3-.6.8-.7 3.1-1.1 5.2-1 8.1.4 11 .3 16.3-.4 13.1-1.7 20.3-1.7 22.1 0 1.6 1.4 2.5 1.5 7.1.5 13.4-3 20.1-5.4 24.1-8.7 1.6-1.3 3.7-2.4 4.7-2.4s3.9 2.4 6.4 5.4zm185.8-.7c1 .9 1.8 2.1 1.8 2.7 0 3.2 13 14.1 19.7 16.7 1.3.5 2.3 1.3 2.3 1.9 0 .5 1.8 1.3 4 1.6 2.2.4 4 1 4 1.4 0 .4 1.6 1.1 3.6 1.5 3.4.6 10.7 4.1 18.4 8.8 2.8 1.7 5.2 2.2 11.5 2.3 4.4.1 8.7.4 9.6.8.8.4 2.8.2 4.3-.4 1.5-.5 2.9-1 3.2-1 1.2 0 .1 2.6-2.3 5.5-1.6 1.8-3.7 4.5-4.9 6-3.6 4.7-14.1 5.4-23.1 1.5-5.6-2.3-13.7-4-16.3-3.3-4 1.1-25.8-5.7-36.5-11.3-3.8-2-8.7-4.6-10.8-5.6-3.7-2-7.7-6.5-7.7-8.7 0-1.2 7.4-11.6 9.6-13.6.6-.6 2.1-2.7 3.3-4.8 2.5-4.1 3.6-4.5 6.3-2zm-173.9 15c6.2 5.9 5.6 6.4-16.3 13.5-5.2 1.7-11.9 3.4-14.9 4-2.9.5-6.1 1.3-7.1 1.8-4.1 2.2-26.2 5.1-33.1 4.3-4.6-.5-9.4 1-8.4 2.7.3.5 2 1.1 3.8 1.5 7.2 1.4 11.7 3 11.7 4.2 0 1.8 2.7 1.6 3.4-.2.3-.9 1.2-1.2 2.2-.8.9.3 1.9 0 2.4-.6.4-.7 1.3-1.3 2.1-1.4.8-.2 1.9-.6 2.6-1 2.1-1.3 12.4-1.9 13.7-.8 1.7 1.4 7.6-1.4 7.6-3.6 0-1.2.3-1.3 1.4-.4 1.5 1.2 8.1.6 10.1-.9.6-.4 2.9-1.1 5.2-1.5 3-.5 4.3-1.2 4.8-2.8.4-1.4.8-1.7 1.2-1 1.4 3.6 11.1-.6 9.7-4.2-.4-.9.3-1.9 1.9-2.6 2.8-1.3 4.7.3 10.5 8.3 3.4 4.9 4 6.7 2 6.9-.7 0 .1.5 1.8 1 3.5 1 8.7 7.1 8.2 9.6-.2.9-2.5 2.5-5.3 3.6-2.7 1-5.9 2.3-7 2.8-1.1.4-4.7 1.6-8 2.4-3.3.9-7.4 2.3-9.2 3.1-1.7.8-3.8 1.4-4.6 1.4-.8 0-3.4.7-5.8 1.6-7.3 2.6-38.6 6.3-48.4 5.6-3.4-.2-16.3-2.6-20.2-3.8-2.8-.8-1.1-3.4 3-4.5 5-1.5 4.9-1.5 19.7-2.5 6.3-.4 11.8-1.1 12.1-1.7.4-.6 1.3-.6 2.5.1 1.8.9 15.9-.7 24.4-2.8 5.9-1.4 13.4-3.1 16.5-3.7 1.7-.3 3.7-1.1 4.5-1.8.8-.7 2.7-1.5 4.2-1.9 2.8-.6 8.8-5.2 8.8-6.6 0-.5-1.7-.2-3.7.7-2.1.8-5.6 1.7-7.8 1.9-2.2.2-5.8 1-8 1.8-14.9 5.3-21.5 6.7-32.6 7-10.3.3-24 2-27.9 3.4-3 1.1-6.6.9-11.8-.5-2.9-.8-6-1.2-6.9-.9-1.8.7-10.3-3.1-10.3-4.5s4.6-2.9 9-2.9c4.2 0 6.1-1.9 5.3-5.1-.3-1.1-.6-1.9-.8-1.9-.1 0-2.7-.4-5.6-1-5.2-.9-7.8-1.9-22.1-8.4-7.2-3.3-8.8-5.6-3.9-5.6 1.7 0 3.2-.4 3.5-.9.7-1 13.4-.2 15.8 1 .9.5 8.2 1.2 16.2 1.5 13.4.5 14.8.4 19.3-1.6 5.9-2.7 17.4-4.4 18.5-2.8 1 1.7 19.2-4 29.8-9.3 3-1.4 5.7-2.7 6-2.8.3 0 2.3 1.5 4.3 3.6zm155.8 15.7c4.7 4.7 9 6.8 37.4 18.3 3.9 1.6 8.6 2.6 13.5 2.8 13.1.7 30 4.8 30 7.4 0 .5-2.2 1.7-4.8 2.5-5.2 1.8-10.4 1.3-12.3-1-.9-1.1-2.7-1.3-7.5-.8-4.6.5-6.8.3-7.9-.6-1-.8-5.1-1.5-10.6-1.7-5.5-.1-10.1-.9-11.9-1.8-1.6-.8-3.8-1.5-5-1.5-1.2 0-3.5-.7-5.2-1.6-1.7-.9-5.8-2-9-2.4-10.4-1.5-22.8-5.7-22.8-7.7 0-1.6 5.2-9.3 7.9-11.7 1.2-1.1 2.1-2.5 2.1-3.3 0-2.2 1.5-1.5 6.1 3.1zm-9.1 22.6c3 1.5 6.9 3.1 8.7 3.4 1.7.4 3.7 1.4 4.3 2.2.7.7 1.6 1.1 2.1.8.6-.3 2.6.4 4.7 1.6 2 1.3 6 2.5 8.7 2.7 2.8.3 5.7.9 6.6 1.3.8.5 2.7.7 4.2.6 1.5-.2 3.2.3 3.8 1 .6.7 3.5 2.5 6.5 3.8 4.4 2 5.4 2.9 5.4 5 0 1.4.5 2.8 1 3.1 1.8 1.1 1.2 5.5-.7 5.5-1 0-2.6.7-3.6 1.4-1.7 1.3-2.8 1.2-10.7-1-1.4-.3-2.9-1.2-3.5-1.8-2.5-2.9-7-5.6-9.3-5.6-2.2 0-2.4.3-1.8 3.1.3 1.7.6 3.9.6 4.9 0 1 .9 2 1.9 2.3 2.5.6 5.7 6.5 4.2 8-.5.5-3.3 1-6 1.1-2.8.1-5.1.4-5.1.8 0 1.5-1.9.8-2.4-1-.7-2.2-11.9-7.3-17.1-7.8-4.6-.4-22.7-1.3-29.6-1.3-2.5-.1-5.3-.7-6.2-1.4-1.6-1.1-1.5-1.6 1.4-7 1.7-3.2 3.7-6.1 4.4-6.3.7-.3 3.2.6 5.6 1.9 11.5 6.4 33.6 10.5 39.8 7.3 3.8-2 4-3.6.5-3.6-1.4 0-3.3-.4-4.2-.9-.9-.5-3.9-1.1-6.7-1.4-2.7-.3-8.4-1.5-12.5-2.7-4.1-1.1-9.3-2.3-11.4-2.5-4.2-.5-7.6-2.9-7.6-5.4 0-1.5 2.7-5.9 9.3-14.8l3.8-5.1 2.7 2.5c1.5 1.4 5.2 3.8 8.2 5.3zm-111.6 4.9c2 2.1 2.6 3.5 2.1 5-.5 1.6-.3 2 1 1.5 2.4-1 6.5 3.4 6.5 6.9 0 1.6-1 4.3-2.2 6-3.1 4.7-12.8 14.5-16.8 17.3-1.9 1.3-5.5 3.7-7.9 5.5-3.9 2.7-5 3-8.8 2.4-4.7-.7-5.2-1.7-3.2-7.2.7-2.1 2.8-4.2 6.8-6.7 6.5-4 14.1-10.9 14.1-12.9 0-.7 1.8-3 3.9-5.1 3.2-3.1 3.8-4.3 3.2-6-1.2-3.2-3.2-2.5-6.4 2.2s-12.7 14.2-19.2 19.1c-2.2 1.6-5.5 4.2-7.2 5.6-2.1 1.7-3.9 2.4-5.1 2.1-1-.4-3.3.1-5.1 1-2.5 1.2-3.5 1.3-4.6.4-1-.9-2.7-.9-6.1-.2-6.8 1.5-10-.3-5.3-2.9 1.2-.6 3.8-2.8 5.8-4.8 4.6-4.6 10.2-8.9 14.9-11.4 2-1 5-3.5 6.5-5.3 1.6-1.9 3.4-3.4 4.1-3.4.7 0 4.4-1.6 8.1-3.6 12.4-6.6 16-8.3 17.1-8.4.5 0 2.3 1.3 3.8 2.9zm-45.5 16.8c-1.8 2.1-4.1 4.4-5.2 5.2-2.8 2-17.2 3.8-28.7 3.7-8.2-.1-9.5-.3-9.8-1.9-.2-1 .3-1.7 1.3-1.7.9 0 2.8-1.2 4.3-2.8 2.6-2.6 3.1-2.7 14.7-2.9 6.6-.1 14.3-.9 17-1.6 2.8-.8 6.1-1.5 7.4-1.6 2.2-.1 2.2 0-1 3.6zm62.1 4.3c.6 1.1 3 4.3 5.3 7 8.2 9.6 10.7 13.2 10.7 15.5 0 1.3.8 2.6 1.7 2.9 1.2.5 1.4.9.5 1.8-.9.9-1.5.9-2.4 0-.7-.7-2.1-1.2-3.2-1.2-2.5 0-5.6-2.8-5.6-5.2 0-2.2-1.3-2.3-3-.3-.7.8-2 1.5-3 1.5-.9 0-3.9 1.2-6.6 2.6-4 2.2-6.3 2.7-12.6 2.8h-7.8c0-2.2 4.4-8.2 10.6-14.7 4.4-4.5 8.7-9.7 9.5-11.5 1.6-3.6 4.3-4.2 5.9-1.2zm76 13.6c5.2.1 9.7.2 10 .3 1.5.7 5.3 1.1 11.8 1.5 8.4.5 9.7 1.1 5.6 2.6-1.6.6-4.7 1.9-6.9 2.9-8.4 3.9-17 5.4-30.7 5.5-7 .1-9.1-.2-10.5-1.6-1.6-1.7-1.6-2.1.1-7.4l1.8-5.6 4.6.8c2.6.5 9 .9 14.2 1zm70.6.6c.5.7.2.9-.7.4-.8-.4-.5-.1.5.8 1 .8 1.9 2.9 2 4.6.1 1.6.4 3 .7 3 .4 0 1 .7 1.3 1.6.3.8.2 1.2-.4.9-.6-.3-.7.1-.4.9.3.9 1 1.3 1.6 1 .5-.3.8.2.7 1.2-.1 1.1.3 3.7.9 5.9.7 2.2 1.2 5.3 1.2 6.8 0 1.6.4 2.6.8 2.3.5-.3 1 1.8 1.1 4.6.1 2.9.6 5.5 1.1 5.8 1.7 1 1.5 51-.1 51-.5 0-.9 1-.8 2.2.4 4.3-.1 6.9-1.1 6.3-1-.6-1.4 1.3-1 4.9.1 1-.3 2.2-.9 2.6-.7.3-1.3 2-1.4 3.7-.1 1.7-.6 2.9-1.1 2.5-.5-.3-.6.2-.3 1.2.5 1.1.3 1.5-.5 1s-.9-.2-.5 1c.4 1 .3 1.5-.3 1.1-.9-.5-1.5 1.6-1.1 3.8.1.5-.3.6-.8.3-1.2-.8-2.2 2-1.4 4.1.4 1.1.3 1.4-.5.9-.7-.4-1.2-.2-1.2.4 0 .7-.9 2.5-2.1 4.1-1.1 1.6-1.7 3.4-1.3 4 .5.8.3.9-.6.4-1-.6-1.2-.4-.7.9.5 1.1.3 1.5-.5 1-.7-.5-.9 0-.6 1.4.4 1.2.1 2.5-.4 2.9-.7.4-.8.1-.3-.7.6-.9.4-1.1-.4-.6-.7.5-1 1.4-.7 2.1.3.8-1.5 3.2-4 5.5-3.6 3.3-4.8 3.9-6.3 3.1-1-.6-2.2-.7-2.6-.3-.5.4-.5.2-.2-.4.8-1.3-2-4-3-3.1-1.5 1.6-3.1-1.6-2.6-5.1.4-2.9 0-4.1-1.6-5.6-1.2-1.1-2.1-2.7-2.1-3.8 0-1.7-1.9-2.3-6.2-2-1 .1-1.8-.3-1.8-.8 0-.6-.8-1-1.8-1s-3.1-1.4-4.8-3.1c-3.6-4-17.1-14-19-14.3-1.6-.3-11.6-9.7-10.9-10.4.9-.9-2.4-5.8-5.2-7.6-1.5-1-5-4.6-7.8-8.1-2.7-3.4-5.3-6.1-5.6-5.9-.3.2-.7-5.6-.8-12.9-.1-7.3-.6-15.7-1.1-18.7-.6-3-1.1-6.9-1.2-8.5-.1-1.7-.6-3.3-1.1-3.6-1.1-.7-1.2-16.2-.2-17.9.8-1.3 7.2-1.3 7.7-.1.2.6 4.2 1.1 9 1.2 4.8.2 8.5.6 8.2 1-.2.4 1.7 1 4.4 1.3 2.6.2 6.4.8 8.5 1.2 2.5.4 3.7.2 3.7-.5s.6-1.1 1.3-1c3 .4 4.8-.2 4.1-1.3-.4-.6-.3-.9.2-.5 1.5.9 7.9-.9 7.7-2.1-.2-.6.4-.9 1.1-.6 1.5.6 5.5-1.5 9.1-4.8 1.9-1.6 2.3-1.6 4.9-.3 1.7.9 5.6 1.5 9.8 1.5 6 0 7.2-.3 9.4-2.5 1.7-1.7 2.3-3.2 1.9-4.5-.9-3 2.2-7 5.6-7 1.5 0 3.1.5 3.5 1.2zm-202.9 10.8c1 0 1.3.8 1.1 2.7-.3 2.8-.2 2.8 6.2 3.3 3.6.3 8.2 1.3 10.2 2.3 3.1 1.4 6.9 1.7 23.8 1.7 11.2 0 20-.4 20-.9s3.2-.8 7-.8c3.9.1 7-.2 7-.6 0-.5.6-.7 1.3-.4.6.2 1.1 1 .9 1.6-.1.7.2 1 .7.6 1.2-.7 5.4 3.2 4.6 4.4-.2.5.3 1.5 1.3 2.2 1.6 1.3 1.6 1.3.2-.5-.8-1.1-1-1.7-.4-1.3 2.9 1.7 6.8 9 6.6 12.3-.2 1.9.2 3.4.7 3.4.5 0 .9 6.6.9 16 0 9.8-.3 16-.9 16-.6 0-.7.5-.4 1 .3.6-.3 2.2-1.4 3.6-2.1 2.7-8.5 6.7-9.3 5.8-.3-.2-1.1.4-1.9 1.3-1.3 1.7-1.3 1.7.6.3s1.9-1.4.6.2c-.7 1-1.7 1.5-2.2 1.2-1.1-.6-7.5 4.5-7.2 5.7.1.4-.4 1-1.3 1.3-.9.4-1.2.2-.8-.5.4-.7 0-.7-1.5.1-1.2.6-1.8 1.6-1.5 2.2.4.7.3.8-.5.4-.6-.4-2.4.2-4 1.3-1.6 1.2-3.4 2.1-4.1 2.1-.6 0-.8.5-.5 1.1.4.6.1 1-.6.8-2.8-.3-5 .1-4.5 1 .3.5-.3 1.1-1.4 1.4-1.1.3-1.8.1-1.4-.4.3-.5-.2-.6-1-.3-.9.3-1.3 1.1-.9 1.7.4.6 0 .8-1 .4-.9-.3-2.2-.1-2.9.6-.7.7-2 1.3-2.8 1.4-.8.1-4 1.1-7 2.2-3 1.2-6.2 2.1-7.2 2.1-2 0-3.2 3.2-2.3 6 .6 2 2 2.5 6.3 2.1 1.2-.1 2.2.3 2.2.9 0 .6 2.4 1 5.5 1 3 0 5.5-.4 5.5-.8 0-1.1 9.9-3.6 10.7-2.8 1 .9-.6 2.2-6.7 5.2-3 1.5-6.8 2.7-8.3 2.6-1.6-.1-2.6.1-2.3.6.3.5-.9.9-2.6 1-1.7 0-3.4.6-3.9 1.3-.4.7-2.5 1.2-4.9 1.1-2.2-.1-3.9.1-3.7.6.3.4-.9.8-2.6.9-3.1.2-4.7 1.6-4.7 4.2 0 .8.7 1.1 2 .8 1-.3 2.1 0 2.2.5.2.5 2.5 1 5.1 1 2.6.1 5 .5 5.3 1 .7 1.1-2.7 3.8-3.8 3.2-.5-.3-.8 0-.8.6s-.4.9-.9.6c-1.4-.9-4.2.5-3.4 1.7.3.5.1.7-.5.4-1.3-.9-4.4.2-3.7 1.3.3.4-.7 1.1-2.1 1.4-2.9.8-5.8-1-5-3 .3-.7 0-1.6-.6-2-.7-.4-.8-.3-.4.4s.5 1.2.2 1.2c-1 0-3.5-5.8-2.8-6.5.4-.5.2-.5-.4-.2-.6.4-1.6-.5-2.3-1.9-.8-1.8-.8-2.3 0-1.8.8.4.8 0 0-1.5-1.2-2.2-2.7-3-1.6-.9.4.7 0 .4-.9-.6-.8-1-1.3-2.3-1-2.7.7-1.2-1.5-5.1-2.5-4.4-.5.2-.8-.3-.7-1.3 0-.9-.5-1.6-1.1-1.5-.7.2-1.4-.3-1.4-1-.1-.6-.2-1.7-.4-2.2-.1-.6-.3-1.6-.3-2.3-.1-.8-.7-1-1.4-.6s-1 .3-.5-.1c.4-.5-.1-1.7-1-2.8-1-1.1-1.2-1.7-.6-1.3.9.5 1.1.2.7-.8-.3-.9-1-1.6-1.4-1.6-.4 0-.8-.6-.7-1.3.1-3.7-.4-6.8-1.1-6.3-.4.2-.9-1.6-1-4.2-.1-2.5-.6-4.8-1.1-5.2-.6-.3-.9-2-.9-3.9.1-1.8-.5-3.6-1.1-4.1-1-.5-1.3-4.1-1.2-13 .1-6.8.4-12.7.7-13.1.2-.4.7-3.8 1-7.6.3-3.7 1-7.1 1.6-7.4.6-.4.8-1.1.4-1.7-.8-1.3.3-4.3 1.4-3.7.4.3 1-.4 1.3-1.5.3-1.1.1-1.8-.3-1.5-.4.3-.6-.4-.3-1.5s1-2 1.5-2 .6-.9.3-2c-.4-1.1-.2-2 .4-2 .6 0 1-.3.9-.8-.4-1.4 1.4-7.2 2-6.8.4.2.8-.7.8-2.1.2-3 3.3-6.6 5.2-5.8.7.3 2 .5 2.9.5zm89.6 77.3c.3.8.1 2-.4 2.8-.5.8-.9 2.7-.9 4.2s-.7 4.4-1.5 6.4c-1 2.4-1.2 4-.5 4.8.6.7.6 2.2 0 4.1-.5 1.6-1.3 4.4-1.7 6.3-.5 1.9-1.5 3.8-2.3 4.2-2.6 1.5-7.5 3.2-8.6 3.1-.6-.1-3.9.7-7.4 1.8-3.5 1.1-8.1 2.3-10.2 2.6-2.1.4-4.3 1.3-4.9 2-1.4 1.7-5.3 1.9-4.3.3.3-.6 2.3-1.8 4.3-2.7 2.6-1.1 3.1-1.7 1.9-2-3.3-.7-1.6-2.6 6.3-7.1 7.2-4.1 10.9-7 8.9-7.1-.9 0-2.4.6-3.5 1.3-6.3 4.3-7.8 2.3-2.5-3.2 2.2-2.3 4-4.6 4-5.1 0-.6.8-1 1.8-1s3.2-1.2 4.9-2.8c1.7-1.5 4.7-4 6.7-5.7 2-1.6 3.6-3.5 3.6-4.1 0-1.1 3.7-4.2 5.1-4.3.4-.1.9.5 1.2 1.2zm37 23.1c5.4 4.4 5.5 5.9.1 2.7-2-1.2-4.1-2.1-4.7-1.9-1.6.2-10.1-2.4-16.6-5.3l-5.4-2.3.7-6.7c1-11.4.8-11.4 11.5-.2 5.3 5.4 11.7 11.6 14.4 13.7zm-18.3 1.9c1.9.8 5.5 2.3 8 3.5 2.5 1.2 5.3 2.2 6.2 2.2 3.2 0 9.3 3.4 14.6 8.2 3 2.7 8.6 6.7 12.5 9 4 2.3 9.9 6.5 13.2 9.3 3.3 2.8 6.7 5.5 7.5 5.8 5.9 2.7 19.5 13.5 30.4 24.2 2.9 2.7 7.7 7 10.7 9.4 6.2 4.8 9.6 9 6.2 7.6-1-.4-3.4-1.3-5.3-2s-6.3-3.9-9.9-7.1c-3.5-3.3-6.9-6.1-7.5-6.4-.7-.3-1.9-1.1-2.7-1.8-2.6-2.3-9-6.2-10.1-6.2-.6 0-2.6-1.8-4.5-4s-4.1-4-4.8-4c-.7 0-3.1-1.5-5.4-3.4-2.2-1.9-5.8-4.4-7.8-5.7-2.1-1.2-6.3-3.8-9.3-5.7-9.6-6.2-12.4-7.9-17.5-10.7-9.2-5.1-10-5.5-12-5.5-1.2 0-2.5-.4-3-.9-1.2-1.1-13.2-5.8-16-6.3-1.5-.2-2.1-1.2-2.3-4.2-.2-2.1-.1-4.4.2-5.2.7-1.7 4-1.8 8.6-.1zm-5.2 14.5c.9.5 3.2 1.6 5 2.5 1.9.9 3.9 1.7 4.6 1.7.7 0 2.1.9 3.1 2s2.6 2 3.5 2c2.3 0 8 2.9 8 4.1 0 .5.7.9 1.5.9s2.3.4 3.3.9c.9.5 4.6 2.4 8.2 4.1 3.6 1.8 7.9 4.5 9.5 5.9 1.7 1.4 4.6 3.4 6.5 4.4 1.9 1 5.5 3.5 7.9 5.7 2.5 2.2 4.8 4 5.3 4 .4 0 3.7 2 7.4 4.5 3.6 2.5 7.2 4.5 8.1 4.5.8 0 2.7 1.2 4.2 2.7 1.4 1.6 4 4 5.6 5.4 1.7 1.4 4.4 4.1 6.1 6 1.7 1.9 4.4 4.6 6.1 6 3.2 2.8 9.7 13.7 10.8 18.2l.7 2.6-4.8-1.6c-2.8-.9-6.9-3.5-9.6-5.9-2.6-2.4-5.5-4.4-6.4-4.4-1.5 0-5-2.3-9.7-6.5-1-.9-3.5-2.5-5.6-3.6-2.1-1-4.9-3.1-6.2-4.5-1.3-1.5-5.5-4.7-9.4-7.3-9.3-6.1-10.4-6.8-14.5-8.7-1.9-.8-6.7-3.1-10.5-5-3.9-1.9-7.7-3.4-8.4-3.4-.8 0-2.2-.6-3-1.3-1.4-1.2-3.3-2-13.1-5.9-1.4-.6-3.3-1.4-4.2-1.9-1-.5-2.5-.9-3.4-.9-.9 0-4.1-.7-7.1-1.6l-5.6-1.6.7-6.1c.8-7.8 2.7-18.7 3.2-18.7.2 0 1.2.4 2.2.8zm-20.4 10.3c-.5 12.2-1.5 14-8.4 15.7-3 .7-7.5 1.5-10 1.8-5.5.5-11.5 2.1-15.5 4-1.6.8-5.3 2.1-8.1 2.9-4.8 1.4-20.6 9.2-24.9 12.3-1.9 1.3-1.9 1.4.5.7 1.4-.5 4-1.6 5.9-2.6 1.9-1 3.8-1.6 4.3-1.3 1.1.7-2 4.4-3.8 4.4-.6 0-3.5 2.2-6.4 5-2.9 2.7-5.5 5-5.9 5-.9 0-8.1 7.6-8.1 8.5 0 .6 2.7-1.4 8.8-6.5 1.3-1.1 3.2-2 4.2-2s2.2-.5 2.6-1.1c.3-.6 2-.9 3.6-.7 2.5.4 3.1 0 4.3-2.9.8-1.8 2.1-3.3 2.9-3.3.8 0 3-1.4 4.8-3 1.8-1.7 4.3-3 5.6-3 1.3 0 3.2-1 4.3-2.3 1.6-1.9 1.8-1.9 1.9-.5 0 1.7 3 2.7 3 1 0-.8 8.3-5.1 13.9-7.3 1.9-.7 6.6-1.3 10.5-1.3l7.1-.1-.2 5c-.2 7.1-1.8 16.8-3.4 20.4-1.6 3.6-5.1 5.7-9 5.3-1.6-.2-2.9.1-2.9.6s-1.3.9-3 .9c-3.2 0-5.3 1.3-3.2 2 2.2.8 1.3 2.1-1.8 2.5-1.6.3-3 .1-3-.3s-1.3-.7-3-.7c-3 .1-3.9 1.1-2 2.3 1.5.9 1.2 2.5-.5 2.5-.9 0-1.8-.6-2.1-1.4-.3-.8-1.2-1.2-2-.9-1.9.7-1.8 2.3.1 2.3 1.3 0 1.3.3.3 2-.7 1.1-2 2-2.9 2-2.4 0-4.1 2.4-3.2 4.6.6 1.7.5 1.8-1.1.4-1.6-1.3-2-1.2-3 .2-.6.8-2 1.7-3.1 1.9-1.1.3-2 1.1-2 1.9 0 .8-.9 1.6-2 1.9-1.1.2-3.6 1.6-5.5 3-1.9 1.5-6 4.4-9 6.4s-8 5.6-11 8.2c-3 2.5-7 5.8-8.8 7.3-1.8 1.5-4.9 4.5-7 6.6-2 2.2-4.8 4.9-6.1 6-1.4 1.2-3.5 3.1-4.7 4.2-2.1 2-6.3 3.2-12.4 3.7-1.4.1-2.8.6-3.2 1.1-.4.6-.9.8-1.3.5-.6-.7 7.6-13.9 8.7-13.9.3 0 .4.9.1 2-.8 2.9 1.8 2.5 4.1-.7 1.5-2 1.7-3 .8-4.4-1.5-2.4-.5-4.8 2.5-6 1.5-.5 2.6-2 2.9-3.9.5-2.1 1.2-3 2.5-3 1.2 0 1.9-.7 1.9-1.9 0-2.6 3.4-6.6 7-8.1 3.1-1.3 3.6-3.1 2.3-7.8-.5-2.1-1-2.3-3.6-1.8-1.7.3-3.9 1.4-4.9 2.3-1 .9-2.1 1.3-2.5.9-.4-.4.1-1.5 1.3-2.4 1.1-.9 2.5-2.9 3.1-4.4.8-1.7 2.2-2.8 4.2-3.3 3.8-.8 5.4-2.8 5.5-6.8.2-4.3-1.6-6.2-4.3-4.5-1.1.7-2.3.9-2.6.6-.9-.9 3.4-5 4.5-4.3.5.3 1.2-.7 1.6-2.2.4-1.5 1.3-4 2-5.4 1.8-3.6-.1-8.9-3.2-8.9-1.1 0-2.4-.3-2.7-.7-.8-.7 3.1-5.3 4.5-5.3.5 0 2.1-.9 3.6-2s3.7-2.1 5-2.3c1.2-.2 2.8-.9 3.4-1.5.7-.7 2-1.2 2.9-1.2.9 0 2.2-.7 2.9-1.5.7-.8 2.2-1.5 3.4-1.5 2.3 0 4.6-4.4 4.6-8.8 0-2.8 3.7-4.4 10.5-4.6 3-.1 7.2-1.3 10.5-2.8 8.8-4.2 17.1-7.9 22.5-10 5.9-2.3 18.7-5.8 19.6-5.2.4.2.5 4.5.3 9.5zm30.5 24c6.4 2.8 14.5 6.6 18.1 8.4 3.6 1.8 7.9 3.6 9.7 3.9 1.7.4 3.7 1.4 4.4 2.2.6.8 2.2 1.4 3.5 1.4 1.2 0 2.5.4 2.8.9.5.8 4.1 3 15.7 9.7 1.1.6 2.5 1.8 3.2 2.6 3.1 3.8 24.3 18.8 26.5 18.8.5 0 1.5.7 2.2 1.5 1.6 2 16.4 10.5 18.2 10.5 2 0 7.8 7.4 7.8 9.9 0 1.3-.7 2.1-1.7 2.1-.9 0-2.4.7-3.4 1.6-1.6 1.5-2 1.4-4-.5-1.3-1.2-2.6-2.1-3.1-2.1-.4 0-2.5-1.5-4.5-3.4-3.6-3.1-12.8-8.6-14.6-8.6-.4 0-1.8-1-3-2.3-1.2-1.2-5.1-4.6-8.7-7.5-3.6-2.9-8.1-6.6-10-8.3-4.3-3.5-10.1-6.6-14.3-7.4-1.8-.3-5.9-1.6-9.2-2.9-14.6-5.6-23.5-8.6-25.6-8.6-.8 0-2.2-.9-3.2-2-1.9-2.2-4.3-2.6-4.9-.8-.3.8-1.4.7-3.8-.5-2.3-1.2-3.7-1.4-4.4-.7-1.6 1.6-4.1 1.2-6-.9-1-1.1-2.4-1.7-3.2-1.4-2.4.9-3.5-4.1-2.4-11.5.5-3.7 1-7 1-7.4 0-.6 2-1.4 4.4-1.7.4 0 6 2.2 12.5 5zm-9.9 24c.8.4 4.9 1.3 9 1.9 8.1 1.2 23.3 5.4 26.5 7.4 1.1.7 4.3 1.8 7 2.5 7.7 2 11.9 3.4 13.4 4.5.7.6 2 1.1 2.8 1.2.8.2 2.5 1.2 3.7 2.3 1.2 1.2 2.6 2.1 3 2.1.4 0 2.9 1.9 5.4 4.1 2.6 2.3 5.8 4.6 7.2 5.2 1.4.6 4.2 2.6 6.3 4.4 2 1.8 4.3 3.3 5.1 3.3.7 0 1.9.7 2.6 1.5.7.8 1.9 1.5 2.7 1.5.7 0 1.9.4 2.6 1 5.9 4.8 7.7 6 9.1 6 .9 0 1.6.4 1.6 1 0 .5.4 1 1 1 .5 0 3.6 1.9 6.9 4.1 4.5 3.1 7.2 6 10.6 11.4 2.5 4 4.5 7.8 4.5 8.4 0 1.3-2.4 1.4-4.8.2-.9-.6-2.9-1.2-4.3-1.5-1.4-.3-3.7-1.6-5-2.9-1.3-1.4-4.4-3.5-6.9-4.7-2.5-1.3-5.8-3.3-7.5-4.5-1.6-1.2-4.6-2.8-6.5-3.5-1.9-.8-4.8-2.4-6.5-3.6-1.6-1.2-4.5-2.5-6.2-2.9-1.8-.3-3.6-1.2-4-1.8-.8-1.3-5-3.4-11.8-6.2-2.2-.8-5.8-2.5-7.9-3.7-2.2-1.1-7.3-2.9-11.5-4-15-3.8-18.5-5-21.1-7.2-.8-.6-4-2-7-3-3-1.1-6.2-2.5-7.1-3.2-.9-.8-1.8-1.2-2.1-.9-.3.3-3.2-.2-6.4-1.1-3.2-.9-7.9-2.2-10.4-2.9l-4.5-1.2.3-8.4c.1-5.2.7-8.6 1.5-9.1 1.2-.8 6-.1 8.7 1.3zm-16.9 3.1c.1 2.4.2 5.9.1 7.8-.6 24.1-.1 43 1.4 52.9.4 2.5.2 3.2-.8 2.8-.7-.2-1.2-.9-1.1-1.4.1-.6-.5-5.4-1.3-10.9-.8-5.4-1.5-12.8-1.5-16.4 0-3.6 0-11.2-.1-17-.1-11.3.3-20 .9-21.3 1.1-2 2.3-.2 2.4 3.5zm-9.6 14.7c-.4 3.6-1.4 8.1-2.2 9.9-2 4.2-9 10.2-12 10.2-1.3 0-2.3.4-2.3 1 0 .5-1.3 1-2.9 1-1.6 0-3.1.6-3.5 1.5-.3.8-1.2 1.5-2.1 1.5-.8 0-3.7 1.4-6.5 3.1-2.8 1.7-5.6 2.9-6.3 2.6-.8-.3-1.9.4-2.5 1.4-.7 1-1.8 1.9-2.5 1.9s-1.8.9-2.5 2c-.7 1.2-1.7 1.8-2.3 1.4-.6-.3-1.9.3-3 1.5s-2.6 2.1-3.3 2.1c-.8 0-1.9.6-2.6 1.4-.6.8-2.3 1.6-3.8 1.8-1.6.2-3.1 1.2-3.8 2.7-1.4 2.8-10.1 10.8-12.6 11.7-1 .3-1.8.9-1.8 1.5 0 .5-1.9 2.1-4.2 3.5-4.9 3.1-21.1 19.7-26.6 27.4-3.4 4.6-4 5.1-6.9 4.6-2-.3-3.6.1-4.4 1-.6.8-2 1.2-3 .9-.9-.3-2-.1-2.4.5-.9 1.5-2.5 1.2-2.5-.5 0-.8.9-3 2-5s2-4.2 2-5c0-4.6 10.7-18.6 15.7-20.5 1.3-.6 2.6-2.2 3.1-4.2.6-2.6 1.4-3.4 3.5-3.6 1.5-.2 2.7-.7 2.7-1.1 0-.5.9-1.1 2-1.4 1.3-.3 2 0 2 .9 0 1.2.4 1.2 2 .4 1.6-.9 1.8-1.5 1-3.1-.9-1.6-.6-2.2 2.5-4 1.9-1.2 3.5-2.5 3.5-3.1 0-1.2 5.5-6.8 6.7-6.8.5 0 3.5-2.5 6.7-5.5 3.1-3 6.1-5.5 6.6-5.5s3.6-2.2 6.8-4.9c3.2-2.7 8.1-5.7 10.8-6.6 2.7-.9 5.6-2.3 6.4-3 .9-.8 2.4-1.8 3.5-2.2 1.1-.4 6.3-3.4 11.7-6.6 5.3-3.1 10.3-5.7 11.1-5.7.9 0 1.9-.5 2.2-1.1.4-.5 1.7-1.5 2.8-2 1.2-.5 4-2 6.2-3.3 2.2-1.2 4.4-2.1 4.8-1.8.5.2.5 3.4.2 7.1zm24 5.5c2.2.8 6.9 2.8 10.5 4.5 3.6 1.7 7 3.1 7.5 3.1 2.2 0 12.7 4.9 14.9 6.9 1.2 1.1 3 2.1 3.8 2.1 1.4 0 12 5.1 17.6 8.5 6.6 4 14.9 9.9 21.7 15.5 4.9 4 12.5 8.9 19.5 12.4 6.3 3.2 12.6 6.8 14 8 1.4 1.2 3.9 2.9 5.6 3.8 1.7.9 4.9 3.4 7.3 5.6 3.4 3.1 4.1 4.3 3.6 6.3-.4 1.7.4 4.1 3 8.4 6 9.9 6 9.9 3.5 8.3-1.3-.7-3-1.8-3.9-2.3-1-.6-3.5-2.7-5.6-4.7-2.2-2-5.1-4-6.5-4.3-3.6-.9-12.1-5.3-14.5-7.5-4.1-3.7-15.7-10-18.6-10-1.2 0-4.2-2-6.8-4.5-9.5-9.2-16.9-14.6-22.3-16.4-2.1-.7-3.8-1.6-3.8-2 0-.3-1.2-1.2-2.7-1.9-1.6-.6-4.1-2-5.8-3.1-1.6-1.1-5.5-2.7-8.5-3.6-3-.9-7.1-2.5-9-3.5-1.9-1-4.6-2.1-6-2.5-1.4-.4-6.6-2.7-11.6-5.1-5-2.4-9.8-4.4-10.6-4.4-.9 0-2-.6-2.6-1.3-1.5-1.8-2.5-10.1-1.8-14.2.8-4 1.9-4.2 8.1-2.1zm-24.6 17.4c.9 1.7 1.4 5.7 2.8 20.8l.6 7.1-6.4 2.1c-10 3.2-27.6 13.5-33.4 19.5-5.7 5.9-13.8 12.7-15.1 12.7-.5 0-1.5.9-2.2 2-.7 1.2-2.3 2.5-3.5 3.1-1.2.5-4 2-6.2 3.4-2.2 1.3-4.7 2.7-5.5 3.1-.8.4-2.9 1.8-4.6 3.1-1.9 1.4-3.8 2.1-4.8 1.7-1.2-.5-1.7-.2-1.6.7.5 3.3.1 4.2-1.4 3-1.2-1-1.8-.7-3.3 1.6-2.3 3.7-3.2 4.3-6.9 4.3-2.2 0-3.6.8-5.2 3-1.2 1.6-2.2 3.4-2.2 3.9 0 1.1-3.2 3.1-4.9 3.1-.6 0-1.1-.6-1.1-1.4 0-.7-1.3-1.9-3-2.6-4-1.7-5.7-3.7-4.2-5.2 1.6-1.6 1.5-2.8-.3-2.8-.8 0-1.5-.4-1.5-.8 0-.5.7-.9 1.5-.9s1.5.4 1.5.9c0 .4.9.8 2 .8 1.4 0 2-.7 2.1-2.3 0-1.2.3-3.6.5-5.2.5-2.8.4-2.9-.9-1.1-1.4 1.9-1.5 1.9-2.6-.2-1.5-2.7-1.4-3.5.3-2.9 1.7.7 3.6-1.1 3.6-3.5 0-1 .6-2.1 1.4-2.4.7-.3 4.4-3.4 8.2-6.9 3.8-3.6 7.4-6.5 8-6.5.5 0 2.6-1.2 4.5-2.6 1.9-1.4 4.9-3.2 6.7-4.1 1.7-.8 3.2-2.1 3.2-2.9 0-.7 1.1-2.1 2.4-2.9 1.6-1.1 2.2-2.2 1.9-3.5-.4-1.5 0-2 1.4-2 1.1 0 2.5-1 3-2.3 1.2-2.6 16-13 17.3-12.2.4.3 1.1-.2 1.4-1.1.3-.9 1.3-1.4 2-1.1 1 .4 1.6-.2 1.8-1.6.2-1.4 1.1-2.3 2.7-2.5 1.3-.2 4.3-1.5 6.7-2.8 2.3-1.3 5-2.4 5.8-2.4.8 0 2.7-1 4.3-2.3 4-3.2 7-4.7 9.2-4.7 1 0 2.1-.7 2.4-1.4.3-.8 2.2-1.8 4.2-2.2 1.9-.3 3.8-1 4.1-1.5.8-1.4 2.3-1 3.3.9zm29.6 9.9c3.9 1.9 7.7 4.1 8.5 4.8.8.6 2.3 1.5 3.3 1.8.9.4 1.7 1.1 1.7 1.7 0 .6 1 .8 2.3.5 1.5-.4 2.8-.1 3.6.9.8.9 2.2 1.6 3.2 1.6 1.1 0 2.7.4 3.7.9.9.5 6.1 3 11.5 5.5 5.4 2.6 10 5.3 10.4 6.1.3.8 1.1 1.5 1.7 1.5 1 0 7.6 4.9 13.9 10.5.9.8 2.1 1.5 2.6 1.5s3.1 2 5.9 4.5c2.7 2.5 5.4 4.5 5.9 4.5s3.2 2.1 5.9 4.8c2.7 2.6 6.7 6 8.9 7.5 2.2 1.4 5.7 4.3 7.8 6.2 2.1 1.9 4.1 3.5 4.4 3.5.9 0 11.4 8.9 17 14.6 3.1 3.1 5.1 5.9 4.8 6.7-.3.7.8 3.9 2.5 7.1 1.8 3.6 3 7.3 3 9.7 0 3.5-.3 3.9-2.4 3.9-1.8 0-3.1-1.1-4.9-4.3-2.6-4.4-13.9-15.2-20.7-19.7-2-1.4-5.7-3.8-8.1-5.4-2.4-1.6-6-4.6-8.1-6.8-2-2.1-4.4-3.8-5.2-3.8-.9 0-3.4-1.7-5.7-3.7-2.3-2-4.7-3.8-5.4-3.9-.7-.1-3.9-2-7.2-4.1-3.2-2.2-6.4-3.8-7-3.6-.7.3-2.3-.7-3.6-2.1-1.4-1.4-2.7-2.6-3.1-2.6-.4 0-2.4-1.3-4.4-2.9-2-1.6-5.5-3.5-7.7-4.2-2.2-.7-5.2-2.6-6.7-4.1-1.5-1.5-3.6-2.8-4.7-2.8-2.4 0-7.4-2.9-15.4-8.7-6-4.4-10.9-6.3-16.3-6.3-5.5 0-6.4-1.5-7.5-12.8-.6-5.7-.8-11-.5-11.8.7-1.9 3-1.3 12.1 3.3zm72.7 1.8c1.6 1.4 3.7 2.5 4.7 2.5.9 0 2.1.4 2.7.9.5.5 4.1 2.6 7.9 4.6 3.9 2.1 7.6 4.2 8.2 4.8.7.5 3.9 2.2 7 3.8 3.2 1.6 8 4.7 10.7 6.8 2.7 2.1 6.1 4.1 7.5 4.4 3 .6 8.1 7.8 8.1 11.4 0 2.8-1 2.9-4.3.3-1.4-1.1-3.5-2-4.6-2-1.2 0-3.6-1.5-5.4-3.3-1.7-1.8-5.8-5-8.9-7.1-3.1-2.1-6.7-4.9-7.9-6.2-1.2-1.3-3.3-2.4-4.6-2.4-1.3 0-2.3-.4-2.3-.9 0-1.2-4.7-6.1-5.9-6.1-.6 0-1.4.6-1.8 1.4-.6 1.1-1.6.7-4.8-2-2.2-1.9-3.2-3.2-2.2-2.8 1.3.5 1.7.1 1.7-1.5 0-2-1.8-2.7-5.7-2.2-.6.1-1.4-.3-1.8-.8-.3-.6-1.2-.8-2-.5-2 .8-3-2.2-1.5-4.1 1.6-1.9 1.7-1.9 5.2 1zm-88.2 30.3c.1 6.4.5 13.7 1.1 16.2.6 2.5 1.2 5.8 1.4 7.5 1 7.7 3.6 26.7 4.5 32.8.5 3.7 1 8 1 9.5 0 1.6.7 3.7 1.5 4.8 2.1 2.7 1.9 6.1-.4 6.7-1.6.4-1.8 0-1.5-1.9.2-1.3-.4-5-1.5-8.1-1.1-3.3-2.4-11.5-3-18.8-.6-7.2-1.8-18.4-2.7-25-2.9-21.5-3.9-33.6-3.1-35.1 1.8-3.3 2.7.3 2.7 11.4zm-9.2.9c1.8 12.4 2 16.2 1.5 18.4-.6 2-1 2.1-7.5 1.5-4.3-.5-8.2-.3-10.3.4-1.8.6-4.4 1.3-5.7 1.4-3.4.5-6.8 1.7-6.8 2.5 0 .4-1.7 1.5-3.9 2.4-2.1 1-5.4 3.1-7.2 4.8-1.9 1.7-5.1 4.6-7.2 6.5-3.6 3.3-9.6 6.4-12.3 6.4-2.9 0-8.4 4.5-8.4 6.7 0 1.3.5 2.3 1 2.3.6 0 1-.7 1-1.5 0-1.1.7-1.4 2.5-.9 1.9.5 2.5.2 2.5-1.1 0-1.4.3-1.5 1.4-.6 1.1.9 1.9.9 3.5-.1 1.2-.7 2.1-1.6 2.1-2 0-.5.6-.8 1.4-.8.7 0 4.3-2 8-4.4 3.6-2.5 6.6-4.2 6.6-3.9 0 .3.7 0 1.5-.7.8-.6 1.8-.9 2.3-.6.6.3 1.7-.5 2.6-1.8 1-1.6 2.2-2.3 3.4-1.9 1 .2 2.4-.3 3.1-1.1.8-.9 1.8-1.6 2.4-1.6.6 0 3.1-1 5.6-2.2 5.3-2.6 14.8-3.5 18-1.9 1.6.9 2.1 2.1 2.1 5 0 4.7-.8 5.4-8.5 7.4-3.3.9-8.5 2.5-11.5 3.7-3 1.2-7.7 2.8-10.3 3.5-2.7.7-6 2.1-7.3 3-1.4.9-2.8 1.4-3.1 1.1-.3-.3-2.6 1.3-5.1 3.4-2.5 2.2-5.4 4-6.5 4-1.1 0-3.8 1.6-6.1 3.6-5 4.2-5.1 4.4-9.8 7.3-2.1 1.2-3.8 2.7-3.8 3.2s-1.7 1.7-3.7 2.7c-2.1.9-4.2 2.3-4.6 2.9-.4.7-1.3 1.3-2 1.3-1.6.1-5.7 3.6-5.7 4.9 0 .6-.6 1.1-1.3 1.1-.7 0-3.2 2-5.5 4.5-3.9 4.2-7.2 5.8-7.2 3.5 0-.6-.4-1-1-1-.5 0-1 .4-1 .9 0 1.4-4.1 5.6-6.7 7-1.3.6-2.3 1.8-2.3 2.5s-1.1 2.3-2.5 3.6c-5.6 5.2-3.4-4.7 2.4-10.9 1.7-1.8 3.1-3.9 3.1-4.7 0-.7 1.4-2.9 3-4.7 1.7-1.9 3-4.3 3-5.3 0-1.1 1.4-3.2 3-4.8 3.2-3.1 3.6-4.1 2.1-5.1-.6-.3-1.5.4-2.1 1.6-1 1.8-1.8 2-5.1 1.5-2.2-.4-4.9-.2-5.9.4-1.8 1-2 .7-2-2.3 0-1.9.5-4.7 1-6.3 1-2.9 6.4-7.4 8.9-7.4 1.8 0 12.1-6.8 12.1-8 0-.5 1.2-1.3 2.8-1.6 1.5-.4 4.3-1.8 6.2-3.3 6.1-4.5 19.4-13.1 20.3-13.1 1.6 0 9-6.1 15.2-12.4 4.9-5.1 18-14.6 20-14.6.2 0 3-1.6 6.1-3.6 5.1-3.2 14.9-8.2 16.5-8.3.4-.1 1.1 3.4 1.7 7.6zm26.2-3.2c1.9 1.3 4.6 2.6 5.8 3 1.3.4 4.4 2.1 6.9 3.8 2.4 1.8 5.5 3.7 6.7 4.4 1.2.7 3.5 2.4 5 3.8s5.3 3.9 8.4 5.6c9.5 5.2 12.4 7 21.2 13.3 4.7 3.4 8.7 6.3 9 6.6 5.3 5.5 30.8 19.9 35.1 20 2 0 11.8 7 17.7 12.7 3.7 3.5 4.2 4.5 4.2 8.4 0 2.5.7 7.2 1.6 10.4 2 7.1 3.3 14.8 2.8 15.4-.9 1-10.5-6.8-18.4-14.9-12.7-13-31.2-27.8-39-31.3-.8-.4-5.5-3.2-10.3-6.2-4.8-3-9.2-5.5-9.6-5.5-.5 0-1.5-.7-2.2-1.6-.7-.9-2.2-2-3.4-2.5-4.2-1.9-11-6-13-7.9-1.2-1.1-2.6-2-3.2-2-.6 0-1.6-.7-2.3-1.5-.7-.8-1.6-1.2-2.1-.9-.5.3-3.9-1.1-7.5-3-3.6-2-7.1-3.6-7.7-3.6-.6 0-1.9-.8-2.9-1.7-1.8-1.6-3.3-1.9-9-2.2-2.9-.2-5.8-14.8-4.9-24.9.2-1.9 6.8-.5 11.1 2.3zm97 25c.7.8 2 1.5 3 1.5 2.3 0 11.6 3.8 16 6.6 4.7 2.9 6.4 5.1 7.8 10.1.7 2.3 2 4.4 3 4.7 1.5.5 6.2 6.6 6.2 8.1 0 2-3.9-.5-9.9-6.3-3.8-3.7-9.4-8.5-12.5-10.7-3.1-2.2-5.8-4.8-6.1-5.8-.4-.9-1.1-1.7-1.6-1.7-1.3 0-8.9-6.2-8.9-7.3 0-1.2 1.7-.8 3 .8zm-95 5.3c3 1.5 6.9 3.7 8.7 4.9 1.7 1.3 3.5 2.3 4 2.3 2.3 0 13.5 6.5 20.5 11.9 1.4 1.2 3 2.1 3.6 2.1.5 0 2 .9 3.4 1.9 1.3 1.1 3.6 2.3 5.1 2.6 1.4.4 3.3 1.8 4.1 3 1 1.4 3 2.7 5.1 3.1 1.9.3 3.5 1 3.5 1.4 0 .4 1.5 1.7 3.3 2.8 1.7 1.1 6 3.8 9.4 5.9 6.3 3.9 24.3 20.3 24.3 22.2 0 .6 1 1.6 2.2 2.2 1.3.7 2.9 1.8 3.6 2.6.7.7 2 1.3 2.7 1.3.8 0 1.9.8 2.4 1.8.6 1 2.6 2.9 4.5 4.3 2.4 1.6 3.8 3.5 4.4 6.1 1 4 1.7 25.8.7 25.8-.3 0-1.4-.9-2.5-2s-2.9-2-3.9-2c-1.1 0-7.4-5.4-14.8-12.8-15.9-15.6-19.8-19.2-21.1-19.2-.6 0-3.4-1.9-6.3-4.3-6.5-5.1-7.1-5.6-19.5-13.8-13.7-9.1-17.8-11.5-30.2-18.1-3.9-2.1-7.2-4.1-7.4-4.5-.5-1.2-9-5.3-10.9-5.3-.9 0-2.6-.8-3.8-1.8-1.8-1.4-2.3-3.4-3.1-11.2-.5-5.2-1.2-11-1.6-12.8-.6-2.9-.4-3.2 1.7-3.2 1.3 0 4.9 1.2 7.9 2.8zm-23.7 17.6c1.4 4.2-1.6 7.5-9.5 10.6-3.6 1.4-8.4 3.7-10.6 5.2-2.3 1.6-4.4 2.8-4.7 2.8-.9 0-6.5 4.2-10.9 8.2-2.3 2.1-4.4 3.8-4.7 3.8-1.3 0-16.4 16.2-18.2 19.3-.9 1.8-2.5 3.8-3.5 4.5-.9.7-1.7 1.9-1.7 2.7 0 1.5-3.2 5.6-8.7 11.6-1.6 1.6-2.9 3.4-2.9 3.9-.1.6-.2 1.4-.3 1.9 0 .5-1.3 2-2.7 3.3-3 2.8-5.9 7.2-5.9 9.1 0 .8-.7 2-1.5 2.7-.8.7-1.5 2.3-1.5 3.6 0 1.2-.8 3-1.7 4-1.8 1.8-3 3.5-5.9 9.1-1 1.9-2.7 3.3-4.3 3.6-3.4.7-8.1-2.1-8.1-4.8 0-1.2-.5-2.6-1.1-3.2-2.4-2.4 2-14 7.7-20.7 1.9-2.2 3.4-4.6 3.4-5.4 0-.7.6-2 1.4-2.7.7-.8 1.7-3.1 2.1-5.1.3-2.1 1.6-4.9 2.8-6.2 1.2-1.3 3.4-3.7 4.9-5.2 1.4-1.6 2.9-3.9 3.3-5.2.4-1.3 1.8-3.4 3.1-4.8 6.1-6.4 10.2-11 13.9-15.4 2.2-2.6 4.9-5.2 6-5.7 3-1.4 5.2-3 10.1-7.7 2.6-2.5 5.4-4.2 6.8-4.2 1.2 0 3.1-.9 4-1.9 1.7-1.9 7-4.3 21.6-9.9 3.6-1.3 8.1-3 10-3.8 4.7-1.8 6.2-1.4 7.3 2zm25.1 14.3c2.3 1.6 5.2 3.8 6.6 5.1 1.4 1.3 4.1 3 6 3.9 1.9.9 5.1 2.8 7 4.2 4 2.9 5 3.6 13.8 8.6 3.4 2 6.2 4 6.2 4.5s1 1.2 2.2 1.6c1.3.4 5.7 3.3 9.8 6.5 4.2 3.3 8.1 5.9 8.7 5.9.7 0 1.6.6 2 1.3.4.6 2.6 2.5 4.8 4.2 6.4 4.6 18.3 16.6 21.8 21.8 2.2 3.3 3.7 4.6 5 4.3 2.3-.6 7.5 4.1 9.3 8.3 2.4 5.8 1.6 11.1-1.7 11.1-1.2 0-2.3 1-2.9 2.5-1.4 3.6-2.6 3.1-5.1-1.8-1.2-2.3-5-7.5-8.5-11.5s-6.4-7.7-6.4-8.3c0-.5-.6-.9-1.3-.9-.8 0-2.4-1.2-3.8-2.6-4.4-4.8-28-21.4-30.5-21.4-.8 0-1.4-.4-1.4-1 0-1.3-13.2-10.4-19.5-13.4-1.7-.8-3.9-2.4-5-3.6-1.1-1.2-6.2-4.2-11.5-6.7-5.2-2.5-9.7-4.7-9.9-4.9-.7-.6-2.3-17.5-1.7-18.9.7-2 1.4-1.9 6 1.2zm-22.9 4c.3 3.2 1 6.8 1.6 8.1 2.5 6.1-.1 10.9-8.1 15.2-4.4 2.4-12.2 7.1-15.3 9.2-1.6 1.1-3.1 1.7-3.4 1.4-.7-.7-6.6 2.3-7.5 3.9-.4.7-2 1.6-3.5 2-1.5.3-4.3 2-6.4 3.6-2 1.6-4 2.9-4.4 2.9-2.5 0-14.8 11.6-18 17.1-1.1 1.8-2.8 4.6-3.8 6.2-1 1.6-1.7 3.7-1.5 4.6.2.9-1.9 5.6-4.6 10.6-8.7 15.8-10.6 19.7-13.2 27.5-2.7 7.6-7.6 14-10.9 14-2.1 0-2.1-13.6 0-18.7.8-1.9 1.5-4.5 1.5-5.7 0-2.9 6.3-15.7 8.9-18 1.2-1.1 2.1-2.5 2.1-3.2 0-.7.9-1.8 2-2.4 1.1-.6 2-1.9 2-2.9s1.7-4 3.9-6.7c2.1-2.7 4.2-6 4.6-7.4.4-1.4 2.3-4 4.1-5.7 1.9-1.8 3.4-4.2 3.4-5.3 0-1.7 2.6-5 12.9-16.2 4.5-4.9 8.7-8.8 9.5-8.8.5 0 3.3-2.4 6.3-5.3 10-9.8 12.1-11.7 13.2-11.7.6 0 1.8-.9 2.8-1.9 3.4-3.6 16.7-12.1 18.9-12.1 2 0 2.3.6 2.9 5.7zm23.9 21.2c.3.5 2.9 2.1 5.8 3.6s7.1 4.2 9.3 6c4.5 3.5 27.9 19.4 35.3 23.9 2.6 1.5 6.5 4.4 8.7 6.3 11.4 9.7 14.2 12.2 18.7 16.6 6.3 6.2 14.4 18.6 16.4 25.2.6 1.8.5 1.8-1 .3-.9-.9-1.6-2.1-1.6-2.6 0-.6-.6-1.2-1.4-1.5-2.4-1-5.3 3.5-5.9 9.2-.4 2.9-.8 5.6-1.1 5.8-1.3 1.3-2.5-1.4-3.7-8-.7-3.9-1.9-8.6-2.7-10.2-1.9-3.8-23-24.6-29.7-29.3-2.7-1.9-5.3-4-5.7-4.6-.4-.6-2-1.5-3.5-2.1-5.4-1.9-15.2-8.9-15.5-11-.2-1.2-1.2-2.1-2.4-2.3-1.6-.2-2-.8-1.7-2.2.6-2.2-4.6-8-7.1-8-.8 0-1.8-.5-2.1-1-.3-.6-1.5-1-2.6-1-1 0-1.9-.4-1.9-.9s-1.2-1.2-2.7-1.6c-4.4-1.1-6.3-3.4-6.3-7.7 0-3.1.4-3.8 1.9-3.8 1.1 0 2.2.4 2.5.9zm-20.6 2.3c1.9 1.9 1.4 4.6-1 5.3-5.7 1.6-11.1 4.8-14.3 8.4-8.1 9-10.5 14.7-11.2 26.8-.4 6.8-.6 7.3-2.7 7.3-1.3 0-3.4.9-4.7 2-1.3 1.1-2.9 2.4-3.5 2.9-.6.5-3.2 1.9-5.8 3-2.5 1.2-4.6 2.6-4.6 3.1s-3.3 4.2-7.3 8.2c-4 4-8.8 9.4-10.6 12-1.7 2.7-3.6 4.8-4.1 4.8-.6 0-1 .7-1 1.5s-.9 2.2-1.9 3.2c-1.7 1.6-6.4 13.3-5.7 14.1.8.7 9.4-10.5 11.6-15.2 1-2 2.4-3.2 4-3.4 2.8-.4 6-2.9 6-4.7 0-1.2 4.7-6.5 9-10.1 1.4-1.1 3.4-3.2 4.6-4.5 2.5-3 8.2-7.9 9-7.9.3 0 .3 1.8-.1 3.9-.4 2.4-.2 4.2.4 4.6.7.3 1.1-.2 1.1-1.5 0-1.1.7-2.3 1.5-2.6.8-.4 1.5-1.4 1.5-2.4s.4-3 1-4.5c1.2-3.2 3.6-2.3 5.6 2.3 1 2.6 1 3.3-.2 4.3-.8.6-1.4 2.4-1.4 3.9 0 2.8-2.9 9-4.1 9-1.7 0-21.9 20.9-23.4 24.2-1.7 3.7-6.8 7.8-9.6 7.8-.8 0-2.9 1.4-4.6 3.1-1.8 1.6-3.3 2.7-3.3 2.2 0-.4-2.2 1.4-4.9 4.1l-4.9 4.8-1.2-2.3c-.7-1.3-1.5-7.4-1.8-13.6-.4-9.8-.7-11.5-2.3-12.4-2.3-1.2-2.5-6.1-.4-7.9.8-.7 1.5-2.3 1.5-3.5 0-1.3 1.1-3 2.5-3.9 1.4-.9 2.5-2.1 2.5-2.7 0-.6 1.2-2.6 2.8-4.5 1.5-1.8 4.7-6.4 7.1-10.3 2.4-3.8 5.4-7.4 6.7-8 1.3-.5 3.1-2.5 4-4.3.9-1.8 2.5-3.9 3.6-4.6 1-.8 2.7-2.3 3.7-3.4 1.1-1.1 2.6-2 3.5-2.2 1.7-.2 6.6-6.9 6.6-9.1 0-.7.9-1.7 2.1-2 1.2-.4 1.8-1.2 1.5-2.1-.3-.7-.1-1.6.4-1.9.6-.4 1-.1 1 .4 0 1.7 2 1.3 5-1.2 5.6-4.4 7.4-5.7 8.2-5.7.5 0 1.3-1.2 1.8-2.6.6-1.4 1.5-2.2 2.1-1.9.6.4 1.7-.2 2.5-1.4s2.1-2.1 2.8-2.1c.7 0 2.1-.9 3.1-2s2.3-2 3-2c.7 0 2-.9 3-2 2.1-2.3 2.7-2.4 4.3-.8zm-91.6 3.3c-.2 1.4-.8 2.8-1.3 3.1-.5.3-.9 1.4-.9 2.6 0 1.3-.5 1.8-1.4 1.5-1-.4-1.8.2-2.2 1.6-.4 1.1-1.3 2.7-2 3.4-.7.8-1.6 3.6-2 6.3-.4 2.8-1.1 5-1.6 5-1.3 0-7.8 6.7-7.8 8.1 0 .8-.6.7-1.7-.3-2.4-2-5.9-.2-5.5 2.8.4 2.5-2.4 5.2-3.9 3.7-1.2-1.2 5.3-16.3 7-16.3 1.1 0 5.1-7.9 5.1-10 0-1.5 6.7-7.2 10.2-8.7 1.6-.7 4.1-2.2 5.5-3.3 3.2-2.5 3.1-2.5 2.5.5zm114.8 14.8c0 1.2 4.7 5.7 6 5.7 1.9 0 7 10.8 7 14.9 0 4.3-1.6 5.7-2.2 1.8-.2-1.2-.7-2-1.3-1.7-.5.3-.9.8-.7 1.2.1.5-.5.8-1.4.8-.8 0-1.3-.4-1-.8.2-.4.1-1.4-.4-2.1-.6-1.1-4.9-1.4-18.9-1.5-13.4-.1-18.3-.4-19.3-1.4-1.1-1.1-1-1.6.5-2.7 1.1-.7 2.5-1.1 3.2-.9.9.4 1.5-.4 1.7-2.2.3-2.4 1.1-3.1 6.1-4.7 3.2-1.1 6-1.7 6.4-1.4.3.4-.6 1.9-2.1 3.3-3.1 3.1-2.9 3.5 1.6 3.8 4.8.4 10.3-4.1 11.2-9.2.4-2.5 1.1-3.9 2.1-3.9.8 0 1.5.5 1.5 1zm26.4 18c2.3 1.8 5.5 4.1 7.1 5.1 1.7 1 4.4 3.1 6 4.7 1.7 1.5 5.4 4.9 8.4 7.6 19.3 17.1 29.9 31.4 25.6 34.7-.7.6-2.2 4.8-3.4 9.4-1.1 4.5-2.8 9.2-3.7 10.5-1.5 2.1-1.6 2-.9-3.5.4-4.1.2-6.4-.9-8.6-.8-1.6-1.8-5.3-2.2-8.3-1-7.8-6.1-14.1-21.9-27-8.1-6.7-11.5-8.9-13.2-8.6-1.5.3-2.3-.2-2.6-1.5-.3-1-1.4-1.8-2.5-1.8-1.8 0-1.9-.7-1.8-8 0-4.4.5-8 1-8s2.7 1.5 5 3.3zm-16.4 15.6c-3.9 9.6-6.6 12.9-11.5 14.3-2.2.6-4.6 1.6-5.3 2.2-1 .7-1.6.6-2.2-.4-.4-.7-1.5-1-2.4-.7-1 .4-1.6.1-1.6-.8 0-.8-.9-1.5-1.9-1.5-1.1 0-2.8-1.1-3.8-2.4-1.5-1.8-2.3-2.2-3.6-1.4-2 1.1-3.7.3-3.7-1.8 0-.8-.4-1.4-1-1.4-.5 0-1 .7-1 1.6 0 .9-.8 2.3-1.7 3-1.5 1-1.6 1.5-.5 2.5 1.6 1.7 1.5 2.9-.3 2.9-1.3 0-3.2-3.3-4.9-8.3-.3-1-1-1.5-1.6-1.2-1.4.8-1.3-.8.1-2.2.6-.6 1.8-.9 2.7-.6 1.2.5 1.4.1.9-1.9-.9-3.3 3.2-7.4 6-6.1 1 .5 2.9.7 4.3.6 1.4-.2 7.2-.5 13-.8 8.6-.4 14.7-1 22.2-2.4.4 0-.6 3-2.2 6.8zm17.9 6.6c1.2.3 6.7 5.3 12.4 10.9 5.6 5.7 10.7 10.5 11.2 10.7.6.2 2.3 1.8 3.8 3.6 2.7 3 2.8 3.2 1.3 5.5-.9 1.4-2.1 6.3-2.7 10.9-.6 4.6-1.5 9.6-2 11.1-5.2 15.5-5.3 15.5-5.9 5.6-.4-6.2-1-9.1-2.2-10.5-1-1.1-1.8-2.6-1.8-3.3 0-1.3-1.3-3-5.2-6.8-1-.9-1.8-2.4-1.8-3.4 0-.9-.8-2.3-1.8-3-1-.7-4-4.1-6.8-7.6-2.8-3.4-6.9-7.6-9.2-9.3-4.5-3.3-5-5.1-2.7-9.5.8-1.6 1.5-3.9 1.5-5.2 0-1.2 1-3.2 2.2-4.4l2.1-2.1 2.8 3c1.5 1.7 3.6 3.4 4.8 3.8zm-61.3 16.4c3.3 3.2 3.6 3.3 4.9 1.5 1.1-1.5 1.4-1.6 1.5-.4 0 1.1 1.2 1.5 4.6 1.5h4.7l.1 5.5c.1 4.6-.2 5.5-1.6 5.2-.9-.1-1.9.2-2.3.8-.3.5-1.5 1-2.5 1-1.4 0-1.9.6-1.7 2.2.1 1.7-.7 2.7-3.6 4-2 1-4.5 2.6-5.5 3.6-2.6 2.4-10.2 9.1-15.2 13.2-2.3 1.9-4.8 4-5.4 4.6-.7.6-2.6 1.8-4.2 2.7-1.7.9-4.7 4.2-6.8 7.6-2 3.4-4.1 6.1-4.5 6.1-2.5 0-4.6-15.2-3.5-25 .6-5.7.9-6.1 8.8-14.2 4.5-4.6 9.1-9 10.1-9.9 1.1-.9 2.9-2.8 3.9-4.3 1-1.4 2.3-2.6 2.9-2.6.5 0 1.6-.8 2.4-1.8 1.3-1.5 1.4-1.5.8 1-.3 1.6-.2 2.8.3 2.8 1.6 0 3.2-2.5 3.2-5 0-1.5.3-3 .6-3.3 1.3-1.3 4.6 0 8 3.2zm48.1 1.3c2.9 2.9 5.3 5.7 5.3 6.4 0 .6.9 1.9 2 2.9s4 5.1 6.6 9.1c2.5 4.1 4.9 7.4 5.4 7.4s2.2 1.9 3.8 4.2c3.4 5.2 3.1 9.5-1.4 15.9-1.6 2.2-3.6 5.4-4.6 7.1l-1.6 2.9v-3.8c0-10-.9-14-3.8-17.9-4.2-5.7-16.2-17.4-17.8-17.4-2.9 0-10.5-4.1-11.1-6.1-1.2-3.6.5-9.9 2.8-10.9 1.2-.5 3.6-1.8 5.2-2.9 1.7-1.2 3.2-2.1 3.5-2.1.2 0 2.8 2.3 5.7 5.2zm-7.4 21.9c1.6.9 4 3.4 5.5 5.5 1.4 2.1 3.8 4.8 5.2 6.1 3.5 2.9 9 13.6 9 17.5 0 1.7-.6 3.9-1.3 4.7-.8.9-2 5-2.7 9.1-1.7 10.2-2.4 11.3-4.4 6.7-.8-2.1-2.6-4.2-4.1-4.9-1.6-.7-3.6-3.2-5.1-6.5-1.4-2.9-2.9-5.3-3.4-5.3-.4 0-2.3-2.4-4.1-5.3-3.1-5-3.2-5.6-3.7-18.4l-.5-13.3 3.4 1.2c1.9.6 4.7 1.9 6.2 2.9zm-24.3 3.9c0 2.2-.7 4.5-1.6 5.4-1.6 1.7-1.1 3.6 1 3.6 1 0 1.6 2.6 2 9.2.6 7.6.4 9.9-.9 12.6-1.6 3.1-1.6 3.3.4 5 2.5 2.1 4.9 12.8 5.8 26 .4 6.1 1.1 9.6 1.9 9.9 1.8.7 2.6 5 1.4 7.3-1.7 3.1-3.7 2.4-5.1-1.8-.6-2-2.8-6.2-4.9-9.2-7.2-10.9-11-17.8-10.9-20.1 0-2.3.5-3.2 6.2-11.7 2.9-4.5 3.4-6.6 1.5-6-.7.3-1.4 1.4-1.6 2.6-.2 1.1-1.2 2.4-2.3 2.7-1.1.4-3 2.8-4.3 5.3-1.3 2.6-3.3 6.5-4.5 8.7-1.1 2.1-2.1 4.6-2.1 5.3 0 2.6-2.8-.7-3.6-4.1-.8-3.7-4-10.5-6.1-12.9-1.5-1.7-.9-4.3.7-3.3.4.3 2.3-1.4 4.1-3.7 1.9-2.4 4.3-5.1 5.4-6 2.3-2 2.2-1.9 7-7.4 3.1-3.7 4.4-6.4 3-6.4-2 0-7.8 5.4-12 11.1-2.7 3.8-5.4 6.9-6 6.9-.5 0-3.2 2-5.8 4.5-2.7 2.5-5.3 4.5-5.8 4.5s-1.1-1.2-1.5-2.8c-.3-1.5-1-3.7-1.5-5-1.5-3.9-1-6 2.4-9.2 2.4-2.3 3.9-3 5.8-2.6 2 .4 3.3-.2 5.6-2.7 1.6-1.8 5.4-5.1 8.4-7.5 2.9-2.3 7.9-6.2 10.9-8.6 3-2.5 5.8-4.2 6.2-4 .5.3.8 2.3.8 4.4zm95.8 1.5c.9 1.8 1.9 2.5 4.1 2.5 4.2 0 5.8 2.3 3.6 5.6-1.1 1.6-1.8 5.2-2 9.9-.2 4-.8 8.3-1.5 9.5-1 1.8-.9 2.8.6 5.5 1.1 2.1 1.5 4.1 1 5.8-.6 2.6-2.6 3.8-2.6 1.7 0-.6-.4-1-1-1-1.6 0-1.1 3.2.7 4.5 1.5 1.1 1.5 1.7.5 4-1.1 2.3-1 3.2.8 6.1 2.3 3.6 1.9 6.4-.6 4.3-.8-.6-1.7-.9-2-.6-.6.6 1.4 4.9 2.7 5.7 1.5 1-.3 4.9-2.5 5.2-1.6.2-2 .9-1.8 2.8.1 1.9-.5 3-2.8 4.3-4.7 2.8-3.3 5.7 2.3 4.8.4 0 .7.6.7 1.5 0 .8.5 1.2 1 .9 1-.6 1.5 2.7 1.2 7.9-.1 1.6.3 3.5.9 4.3 1 1.1.8 1.8-.9 3.3-1.1 1.1-2.3 2.8-2.7 4-.7 2.2-2.5 2.8-2.5.8 0-.9-.3-.9-1.2 0-.9.9-.8 1.5.8 2.7 1.7 1.3 1.7 1.4.2 1.5-2.1 0-2.3 2.2-.7 5.2 1 1.8.8 2.4-.7 3.5-2.2 1.6-2 5.1.3 9.6 1 2 1.1 3.2.4 4.1-.6.7-.6 1.7-.1 2.6.5.8.7 2.5.3 3.8-.3 1.2 0 2.8.6 3.6.8 1 .7 2.1-.5 4.5-.8 1.7-1.4 4.6-1.3 6.5.2 1.9-.3 4.1-1 5-1.3 1.5-1.2 1.8.7 2.3 1.7.4 2.2 1.3 2.2 3.8 0 1.8.3 6 .6 9.4.6 5.7.5 6.1-1.3 6.1-1.1 0-2.6.6-3.2 1.3-.8 1.1-.6 1.3 1.2 1.3 1.5-.1 2.1.4 1.8 1.4-.2.8-.3 3-.2 4.8.1 2.1-.4 3.4-1.3 3.8-1.4.5-1.4.9 0 3.6s1.4 3.1-.2 4.9c-1.3 1.4-1.9 1.6-2.5.7-.6-.9-1.4-.9-3.6.2-4.5 2.4-6.8 6-3.8 6 .8 0 1.5-.5 1.5-1.1 0-.8.5-.8 1.5.1 1.6 1.3 2.1 5 .6 5-.5 0-.8 1.1-.8 2.5s.3 2.5.8 2.5.9.9.9 1.9c0 1.1.5 2.3 1 2.6.6.3.7 1.7.4 2.9-.4 1.5 0 2.5.9 2.9 1.2.4 1.3 1.4.7 4.4-.4 2.1-1.4 7.3-2.1 11.6-1.1 6.5-1.9 8.4-4.6 11.2-2.7 2.8-3.2 3.9-2.7 6.4.4 1.7 1 2.8 1.5 2.6.4-.3 1.1-.1 1.4.5.4.6-.5 2.2-1.9 3.5-1.4 1.3-2.6 3.2-2.6 4.2s.4 1.4.8.8c.7-1 4.8-3.5 5.7-3.5.3 0 .1.9-.5 1.9-.5 1.1-1 2.8-1 3.7 0 1-.7 2.6-1.7 3.6-1.5 1.7-1.5 1.9 0 3.6 1.3 1.4 1.4 2.1.5 3-.9.9-.9 1.8 0 3.7.8 1.7.9 3.2.3 4.3-.9 1.6-1 1.6-1.6-.1-1-2.5-2.7-2.1-2.3.5.2 1.7.9 2.2 2.6 2.1 1.2-.2 2.2.2 2.2.7 0 .6-.4 1-.9 1-1.5 0-5.5 8.4-4.2 8.8.6.2 1.1 1.2 1.1 2.3 0 1 .6 1.9 1.4 1.9.8 0 1.7.4 2 .8.9 1.5-.6 5.2-2 5.2-2.4 0-1.5 3.6 1.2 4.8 2.6 1.2 2.4 3.8-.3 2.8-2.6-1-4.6 2.1-4 6.5.5 4.2-.5 5.8-2.8 3.9-1.1-.9-1.6-.7-2.3.7-1.5 2.8-1.7 10.5-.4 13.6.8 2 .9 3.4.2 4.7-1.2 2.3-1.3 5.3-.1 4.6 1.7-1.1-.2 3.9-2 5.2-1.6 1.1-1.6 1.5-.4 3.9.9 1.7 1.1 3.2.5 4.4-.8 1.4-.4 1.8 2.1 2.3 3.6.7 3.4 2.8-.2 3.6-2 .5-2.3 1.1-2.1 3.7.2 1.8-.3 3.7-1.2 4.6-.9.9-1.4 2.2-1.1 2.9.3.8-.3 2.3-1.5 3.3-2.4 2.2-2.6 4.1-.5 4.9.8.3 1.5.9 1.4 1.3-.4 2.5.4 3.9 2.7 5 1.5.7 3.1 1 3.5.7 1.1-.7 1.1 3 0 7.9-1.2 4.9-1.7 5.4-4.1 3.9-2.7-1.6-2.6.1 0 5.3 1.1 2.2 1.6 4.1 1.1 4.3-.6.2-.8.9-.5 1.7.3.7 0 2.3-.6 3.5-.8 1.6-.8 2.9.2 5.6 1.1 3.1 1.1 3.7-.4 4.8-1.1.8-1.5 2-1.2 3.3.3 1.1.1 2.3-.4 2.7-1.3.8-.6 5.9 1.3 9.6.8 1.6 1.2 3.6.9 4.4-.3.9.1 2.3 1 3.1 1.8 1.9 2.1 4.8.6 7.5-.7 1.3-.7 2.1.2 2.6.8.5.6.9-.7 1.4-1.2.4-1.9 1.9-2.2 4.6-.2 2.3-1.2 4.6-2.3 5.5-2.3 2-3.4 6-2.6 9.4.8 3 3.6 3.4 3.6.5 0-3.1 2-2.4 2.2.7.4 6.9-.6 12.2-2.8 13.7-1.5 1.2-1.7 1.8-.8 3.3.9 1.4.9 2.3-.1 3.6-.7.9-1.5 1.7-1.9 1.7-.3 0-1.5.9-2.7 2.1-2.1 2.1-2 4.9.3 4.9.8 0 .6.5-.4 1.1-2 1.1-2.4 4.9-.6 4.9.6 0 .2.9-1 2-2.5 2.4-2.8 3.2-.9 2.9.6-.1 2.3.3 3.7.9l2.5 1.1-2.2.7c-1.3.3-2.3 1.4-2.3 2.3 0 .9-.3 2.6-.6 3.8-.8 2.8 2 3.2 3.5.6 1.6-2.9 2.1-1 1 3.2-.6 2.1-.8 5.1-.5 6.6.6 3.3-.6 4.5-2.4 2.4-1.8-2.2-6-1.9-6 .4 0 1 .6 2.4 1.4 3 1.5 1.3 1 10.1-.6 11.2-1.5 1 .3 6.1 2.3 6.6 2.5.7 2.4 1.8-.2 4.4-1.7 1.7-1.9 2.3-.8 3 1.1.8 1.1 1.1-.4 2-1.6.9-1.8 1.8-1.2 5.7.4 2.6 1.6 5.9 2.7 7.4 2.5 3.6 1.9 5.3-1.8 5.3-3.4 0-3.5 2.4-.3 5.6 2.5 2.5 2.4 3-1.1 5.4-3.7 2.4-4.9 5.4-2.6 6.7 1.3.7 1.4 1.2.3 2.8-.9 1.6-.9 2.4 0 4 .8 1.2.9 2.1.3 2.5-1.2.8-1.3 9.2-.1 9.9.9.6.1 5.1-1.7 9.8-1.9 4.6-.3 11.3 2.7 12.1 1.4.3 1.7 1.2 1.3 3.8-.5 3.1-.6 3.2-1.3 1.1-.5-1.3-1.3-2-1.9-1.7-1.4.9-1.2 2.6.4 4.4 1.2 1.3 1.3 3 .5 9-.5 4.1-.6 9.2-.2 11.3.3 2.4.2 4.3-.5 4.7-1.2.7-2.3 12.1-2.6 25.3-.1 6.7-.6 9.1-1.8 10-2.7 2.2-4.9 18.7-2.8 21.2.8 1 .8 1.5 0 1.8-.6.2-1.2 1.5-1.4 2.9-.1 1.3-.6 3-1 3.7-.4.7-.4 2.1 0 3 1.5 3.6 1.5 6.6-.1 7.5-1.9 1-1.3 5.2 1.3 10.2 1.9 3.5 1.7 6.5-.5 8.2-.8.6-1.2 1.7-.8 2.3.4.6.1 1.8-.6 2.6-1 1.3-1 1.7.1 2.4s1.1 1.2-.2 3.2c-2 3-3.5 11.8-2 11.8.6 0 .8.9.5 2-.3 1.1 0 2.6.6 3.3 1.7 2.1 1.5 14.5-.5 36.2-1 11.3-2.2 33-1.8 33.7.2.3-.2 5.1-1 10.5-1.4 9.2-2.4 21.8-3.1 37.8-.2 3.8-.7 11.7-1.3 17.5-1.1 13.3-1.3 14.9-1.4 20.7 0 2.7-.4 8.2-.9 12.3-1.3 11.5-2.8 28.5-3.4 39-.3 5.2-1 9.9-1.5 10.4-1.2 1.2-1.3-.8-1.2-35.9 0-11.6-.1-28.9-.3-38.5-.2-9.6-.3-18.6-.3-20v-4c-.1-.8-.3-12.8-.6-26.5-.3-13.8-.8-30.9-1.1-38-.8-15.6-.8-14.9-.2-25.5.3-4.7 0-9.3-.5-10.4-.6-1.1-1.1-20.2-1.2-47.6-.2-25.1-.6-46.3-1-46.9-.4-.7-.3-1.8.3-2.5s.8-1.5.5-1.9c-.7-.7-1.2-14.1-1.7-47.7-.2-14-.7-26.3-1.2-27.3-.4-1-.3-2.8.3-4 .7-1.3.9-5.2.7-9.2-.3-3.9-.7-13.4-.9-21.2-.3-7.8-.9-15-1.4-16-.6-1-.7-2.6-.1-4.1 1-2.6 1.2-15.6.4-30-.4-5.9-.1-10 .6-11.4.6-1.1.7-2.3.3-2.7-.5-.3-.9-2.2-1-4.1 0-1.9-.1-5.3-.3-7.5-.1-2.2 0-12.1.3-22 .2-9.9 0-18.5-.4-19-1-1.2-.6-8.7.4-10.4.4-.6.2-2.7-.4-4.5-.6-1.9-.9-6.2-.6-9.5.2-3.5 0-6.3-.5-6.7-.6-.4-.4-1.3.6-2.4 1.7-1.9 1.9-4.2 1.3-14.3-.3-3.8-.1-6.7.4-6.7.6 0 .7-2.6.3-6.3-.3-3.4-.8-10.7-1.1-16.2-.3-5.5-.9-11.1-1.5-12.5-1-2.8-1.9-10.2-2-17 0-2.5-.3-5.2-.6-6-1.2-3.2-2.2-24.6-2.7-54-.3-14-.7-37-1-51-1.1-46.5-1.1-79.7 0-81.1.6-.9.7-10.3.3-27.4-2.1-77.7-2.1-74.1.4-77.2 5.2-6.5 8.8-19.9 9-33.5l.2-7.6 3.9.1c3.5.2 4.2-.2 5.5-2.8.9-1.7 1.9-3.2 2.4-3.3.4-.2 1.4-1.1 2.2-1.9 2-1.9 4-1.1 5.7 2.4 1.5 3.2 3.6 3.9 6.2 2 1.5-1.1 1.8-2.7 1.7-11.5-.1-10 0-10.3 2.4-11.2 1.4-.5 2.5-1.7 2.5-2.7 0-2 6.1-12.3 7.3-12.3 1.5 0 .2 17.2-1.8 24.2-1.6 5.4-1.7 7-.7 8 2 2 4.4-.2 6.5-5.8 1-2.7 2.7-6.8 3.8-9.2 1-2.3 1.9-5.7 1.9-7.5 0-1.7.6-4.4 1.4-5.9.8-1.5 1.2-3.6.9-4.8-.3-1.1.2-3.1 1.1-4.5.9-1.3 1.6-3.3 1.6-4.3s.7-3.3 1.6-5.1c2.2-4.5 3.8-2.6 3.5 4.3-.1 3 .3 5.7.9 6.1 1.4.9 5-1.3 5-3 0-.8.6-1.4 1.2-1.3.7.2 1.4-.8 1.6-2.2.2-1.4.9-3 1.6-3.5.8-.6 1.7-2.5 2.1-4.3.8-3.9 3.4-9.2 4.4-9.2.4 0 1.3 1.1 1.9 2.5zm-74.4 31.8c4 4.9 5.5 9.2 3.3 10-.9.3-1.7 2.8-2.1 6.7-.6 5.3-1 6.1-2.4 5.5-.9-.4-2.4-.9-3.2-1.2-1.2-.3-1.6-2.1-1.7-7.6-.2-9.3.6-17.7 1.7-17.7.5 0 2.4 1.9 4.4 4.3zm-78.6 222c.2 1.1-.3 1.7-1.6 1.7-1.1 0-2.7 1.1-3.6 2.5-1.8 2.7-2.1 6.5-.6 6.5.6 0 1 .9 1 2s.5 2 1 2c1.9 0 1 4-1.6 6.9-2.4 2.7-2.7 2.8-4.2 1.3-2.4-2.4-5.2-8.6-4.3-9.2.5-.3 1-1.4 1.3-2.5.2-1.2 1-1.9 2.1-1.7 1.3.2 1.7-.5 1.7-3.1 0-1.8-.5-3.8-1.2-4.5-.6-.6-.8-1.5-.4-1.9.4-.4 1-.2 1.4.4.6.9 1.6.7 3.7-.7 3.4-2.2 4.8-2.1 5.3.3zm-7.8 27.9c1.2 2 2 2.6 2 1.7 0-.9 1.1-2.4 2.5-3.3 3.2-2.1 3.8-2 3.2.4-.3 1.1-.1 2.3.4 2.6 2 1.2.7 2.3-2.1 1.7-2.6-.5-3-.3-3 1.7 0 1.3.8 2.4 2 2.7 1.1.3 2 1.3 2 2.2.1 1.2.7.9 2.4-1.1 1.3-1.5 2.6-3.3 2.9-4 .2-.7.8-1 1.2-.6.5.5.1 1.6-.9 2.6-.9 1.1-1.4 2.6-1.1 3.4.4 1-.1 1.7-1.4 2.1-1.2.3-2.5 1.7-3.1 3.1-1.4 3.8-3.1 3.2-2.8-1 .2-2.3-.2-3.9-.9-4.1-.8-.3-1.3.4-1.3 1.6 0 2.8-1.6 2.7-2.4-.2-.5-1.8-.8-2-1.6-.7-.9 1.3-1.1 1.3-2 0-1.6-2.5-.7-14 1.1-14 .5 0 1.8 1.5 2.9 3.2z"/><path d="M1481.8 1150.2c-3.6 7.6-7.2 21.3-8.5 33.2-.8 6.5 1.1 5.4 2.7-1.6.7-2.9 1.8-6.3 2.6-7.5.8-1.2 1.4-3.3 1.4-4.5 0-1.3.7-3.6 1.5-5.2.8-1.5 1.5-3.5 1.5-4.2 0-.8.9-4.1 2.1-7.4 1.9-5.5 1.9-8 0-8-.4 0-1.8 2.4-3.3 5.2z"/></svg>